<?xml version="1.0" encoding="UTF-8"?>
<!DOCTYPE svg PUBLIC "-//W3C//DTD SVG 1.1//EN" "http://www.w3.org/Graphics/SVG/1.1/DTD/svg11.dtd">
<svg xmlns="http://www.w3.org/2000/svg" version="1.1" width="800px" height="236px" style="shape-rendering:geometricPrecision; text-rendering:geometricPrecision; image-rendering:optimizeQuality; fill-rule:evenodd; clip-rule:evenodd" xmlns:xlink="http://www.w3.org/1999/xlink">
<g><path style="opacity:1" fill="#8b603f" d="M -0.5,-0.5 C 266.167,-0.5 532.833,-0.5 799.5,-0.5C 799.5,78.1667 799.5,156.833 799.5,235.5C 784.833,235.5 770.167,235.5 755.5,235.5C 755.5,231.833 755.5,228.167 755.5,224.5C 766.082,224.82 776.582,224.487 787,223.5C 787.5,152.501 787.667,81.5008 787.5,10.5C 528.833,10.5 270.167,10.5 11.5,10.5C 11.1675,81.6686 11.5008,152.669 12.5,223.5C 226.999,224.5 441.666,224.833 656.5,224.5C 656.5,228.167 656.5,231.833 656.5,235.5C 437.5,235.5 218.5,235.5 -0.5,235.5C -0.5,156.833 -0.5,78.1667 -0.5,-0.5 Z"/></g>
<g><path style="opacity:1" fill="#295d40" d="M 755.5,224.5 C 755.5,224.167 755.5,223.833 755.5,223.5C 765.473,222.634 775.473,222.301 785.5,222.5C 785.5,152.5 785.5,82.5 785.5,12.5C 528.127,12.8324 270.793,12.4991 13.5,11.5C 12.5,82.1635 12.1667,152.83 12.5,223.5C 11.5008,152.669 11.1675,81.6686 11.5,10.5C 270.167,10.5 528.833,10.5 787.5,10.5C 787.667,81.5008 787.5,152.501 787,223.5C 776.582,224.487 766.082,224.82 755.5,224.5 Z"/></g>
<g><path style="opacity:1" fill="#066040" d="M 755.5,223.5 C 755.5,220.833 755.5,218.167 755.5,215.5C 756.461,217.265 756.795,219.265 756.5,221.5C 765.833,221.5 775.167,221.5 784.5,221.5C 784.5,152.167 784.5,82.8333 784.5,13.5C 528.5,13.5 272.5,13.5 16.5,13.5C 15.7611,13.369 15.0944,13.5357 14.5,14C 15.498,82.7623 15.8314,151.596 15.5,220.5C 14.8999,221.9 13.8999,222.9 12.5,223.5C 12.1667,152.83 12.5,82.1635 13.5,11.5C 270.793,12.4991 528.127,12.8324 785.5,12.5C 785.5,82.5 785.5,152.5 785.5,222.5C 775.473,222.301 765.473,222.634 755.5,223.5 Z"/></g>
<g><path style="opacity:1" fill="#036e4a" d="M 16.5,13.5 C 272.5,13.5 528.5,13.5 784.5,13.5C 784.5,82.8333 784.5,152.167 784.5,221.5C 775.167,221.5 765.833,221.5 756.5,221.5C 756.795,219.265 756.461,217.265 755.5,215.5C 753.833,215.5 752.167,215.5 750.5,215.5C 750.833,199.819 750.499,184.152 749.5,168.5C 748.478,168.855 747.811,169.522 747.5,170.5C 732.135,185.306 717.135,200.306 702.5,215.5C 687.167,215.5 671.833,215.5 656.5,215.5C 656.5,217.167 656.5,218.833 656.5,220.5C 443.325,220.494 229.992,220.494 16.5,220.5C 16.5,151.5 16.5,82.5 16.5,13.5 Z"/></g>
<g><path style="opacity:1" fill="#abd4c9" d="M 646.5,24.5 C 647.167,25.1667 647.833,25.8333 648.5,26.5C 647.833,27.1667 647.167,27.8333 646.5,28.5C 644.832,26.1423 642.499,24.4757 639.5,23.5C 635.852,24.4732 634.186,26.8065 634.5,30.5C 632.926,27.5696 633.592,25.0696 636.5,23C 639.968,22.5658 643.302,23.0658 646.5,24.5 Z"/></g>
<g><path style="opacity:1" fill="#eef6f4" d="M 152.5,31.5 C 149.703,30.7593 146.87,30.0927 144,29.5C 142.624,29.3158 141.791,28.6491 141.5,27.5C 144.877,23.5222 148.377,23.5222 152,27.5C 152.49,28.7932 152.657,30.1266 152.5,31.5 Z"/></g>
<g><path style="opacity:1" fill="#dfefeb" d="M 715.5,29.5 C 714.833,29.5 714.167,29.5 713.5,29.5C 711.823,26.8608 712.49,25.1942 715.5,24.5C 717.266,24.4342 718.266,25.2676 718.5,27C 718.252,28.7491 717.252,29.5824 715.5,29.5 Z"/></g>
<g><path style="opacity:1" fill="#f4f9f8" d="M 648.5,26.5 C 654.543,27.3596 657.377,30.6929 657,36.5C 652.648,40.2656 648.148,40.2656 643.5,36.5C 643.833,35.8333 644.167,35.1667 644.5,34.5C 644.971,32.4214 645.637,30.4214 646.5,28.5C 647.167,27.8333 647.833,27.1667 648.5,26.5 Z"/></g>
<g><path style="opacity:1" fill="#679d8c" d="M 141.5,27.5 C 141.791,28.6491 142.624,29.3158 144,29.5C 146.87,30.0927 149.703,30.7593 152.5,31.5C 152.5,31.8333 152.5,32.1667 152.5,32.5C 149.154,31.9641 145.82,31.2974 142.5,30.5C 141.287,30.7472 140.62,31.4138 140.5,32.5C 139.322,30.6621 139.655,28.9955 141.5,27.5 Z"/></g>
<g><path style="opacity:1" fill="#1c7858" d="M 646.5,28.5 C 645.637,30.4214 644.971,32.4214 644.5,34.5C 640.707,34.2688 637.374,32.9355 634.5,30.5C 634.186,26.8065 635.852,24.4732 639.5,23.5C 642.499,24.4757 644.832,26.1423 646.5,28.5 Z"/></g>
<g><path style="opacity:1" fill="#eff8f6" d="M 152.5,32.5 C 150.251,36.2522 146.918,37.4188 142.5,36C 141.695,34.8873 141.028,33.7206 140.5,32.5C 140.62,31.4138 141.287,30.7472 142.5,30.5C 145.82,31.2974 149.154,31.9641 152.5,32.5 Z"/></g>
<g><path style="opacity:1" fill="#d8eee9" d="M 91.5,44.5 C 88.282,46.1839 85.6154,45.5172 83.5,42.5C 83.5,40.5 83.5,38.5 83.5,36.5C 84.1605,31.6653 86.8271,29.8319 91.5,31C 92.885,32.9645 92.7184,34.7979 91,36.5C 91,35.1667 91,33.8333 91,32.5C 90.2825,31.5494 89.4491,31.3828 88.5,32C 85.0483,35.8068 84.7149,39.8068 87.5,44C 88.7932,44.49 90.1266,44.6567 91.5,44.5 Z"/></g>
<g><path style="opacity:1" fill="#b0d6cc" d="M 634.5,30.5 C 637.374,32.9355 640.707,34.2688 644.5,34.5C 644.167,35.1667 643.833,35.8333 643.5,36.5C 640.378,35.4388 637.378,34.1054 634.5,32.5C 634.5,31.8333 634.5,31.1667 634.5,30.5 Z"/></g>
<g><path style="opacity:1" fill="#daf2ed" d="M 75.5,43.5 C 75.44,44.0431 75.1067,44.3764 74.5,44.5C 72.9,41.4925 73.5667,39.1592 76.5,37.5C 76.8333,37.6667 77.1667,37.8333 77.5,38C 75.3943,39.6371 74.7276,41.4705 75.5,43.5 Z"/></g>
<g><path style="opacity:1" fill="#c8e4dd" d="M 61.5,43.5 C 61.7947,39.7721 62.4614,36.1054 63.5,32.5C 65.2213,36.1249 67.0547,39.7915 69,43.5C 69.9449,39.8859 70.6116,36.2192 71,32.5C 71.8538,36.6251 71.5204,40.6251 70,44.5C 69.2825,45.4506 68.4491,45.6172 67.5,45C 65.9588,43.4207 64.7922,41.5873 64,39.5C 63.3918,41.0664 62.5585,42.3998 61.5,43.5 Z"/></g>
<g><path style="opacity:1" fill="#f3f9f8" d="M 616.5,39.5 C 616.5,38.8333 616.833,38.5 617.5,38.5C 623.509,38.3338 629.509,38.5005 635.5,39C 639.676,42.9465 639.343,46.4465 634.5,49.5C 631.287,49.81 628.287,49.4767 625.5,48.5C 625.5,45.5 625.5,42.5 625.5,39.5C 622.5,39.5 619.5,39.5 616.5,39.5 Z"/></g>
<g><path style="opacity:1" fill="#e0efeb" d="M 705.5,47.5 C 703.574,46.7577 701.741,45.7577 700,44.5C 695.154,46.3225 693.488,44.6558 695,39.5C 696.388,38.4464 697.888,38.2797 699.5,39C 700.894,42.299 702.894,45.1323 705.5,47.5 Z"/></g>
<g><path style="opacity:1" fill="#9ccbbe" d="M 713.5,29.5 C 714.167,29.5 714.833,29.5 715.5,29.5C 714.127,35.0104 712.461,40.3437 710.5,45.5C 710.167,45.5 709.833,45.5 709.5,45.5C 710.834,40.1659 712.167,34.8326 713.5,29.5 Z"/></g>
<g><path style="opacity:1" fill="#bedfd6" d="M 98.5,33.5 C 98.0538,36.3892 97.0538,39.0559 95.5,41.5C 96.4886,45.1451 97.9886,45.1451 100,41.5C 99.3554,45.7158 97.3554,46.3824 94,43.5C 93.3292,44.2524 92.4959,44.5858 91.5,44.5C 93.1685,40.4093 94.3351,36.076 95,31.5C 95.5885,29.1367 97.0885,28.1367 99.5,28.5C 99.7845,30.4147 99.4511,32.0813 98.5,33.5 Z"/></g>
<g><path style="opacity:1" fill="#4b8b75" d="M 98.5,33.5 C 97.4415,34.6002 96.6082,35.9336 96,37.5C 95.8201,34.6906 96.4868,32.0239 98,29.5C 98.49,30.7932 98.6567,32.1266 98.5,33.5 Z"/></g>
<g><path style="opacity:1" fill="#b6d3ca" d="M 154.5,41.5 C 154.842,40.6618 155.508,40.3284 156.5,40.5C 157.789,42.248 159.289,42.5814 161,41.5C 161.671,44.0004 163.171,45.6671 165.5,46.5C 165.158,47.3382 164.492,47.6716 163.5,47.5C 160.754,45.0818 157.754,43.0818 154.5,41.5 Z"/></g>
<g><path style="opacity:1" fill="#f3f9f8" d="M 165.5,46.5 C 163.171,45.6671 161.671,44.0004 161,41.5C 159.289,42.5814 157.789,42.248 156.5,40.5C 158.417,38.2549 160.75,37.9215 163.5,39.5C 165.171,41.5098 165.838,43.8431 165.5,46.5 Z"/></g>
<g><path style="opacity:1" fill="#147654" d="M 616.5,39.5 C 619.5,39.5 622.5,39.5 625.5,39.5C 625.5,42.5 625.5,45.5 625.5,48.5C 622.482,48.6646 619.482,48.498 616.5,48C 613.899,45.1705 613.899,42.3371 616.5,39.5 Z"/></g>
<g><path style="opacity:1" fill="#f1f9f7" d="M 154.5,41.5 C 157.754,43.0818 160.754,45.0818 163.5,47.5C 161.583,49.7451 159.25,50.0785 156.5,48.5C 154.829,46.4902 154.162,44.1569 154.5,41.5 Z"/></g>
<g><path style="opacity:1" fill="#9ccabd" d="M 83.5,36.5 C 83.5,38.5 83.5,40.5 83.5,42.5C 82.1434,43.6854 80.6434,44.6854 79,45.5C 77.9231,44.5705 76.7564,43.9038 75.5,43.5C 77.7409,38.0015 78.9076,38.3348 79,44.5C 81.6333,42.3587 83.1333,39.6921 83.5,36.5 Z"/></g>
<g><path style="opacity:1" fill="#c2e0d9" d="M 714.5,47.5 C 718.28,45.2228 721.613,42.3895 724.5,39C 725.793,38.51 727.127,38.3433 728.5,38.5C 728.5,39.8333 728.5,41.1667 728.5,42.5C 726.801,42.3398 725.134,42.5065 723.5,43C 720.757,45.0383 717.757,46.5383 714.5,47.5 Z"/></g>
<g><path style="opacity:1" fill="#eff7f5" d="M 696.5,49.5 C 696.158,50.3382 695.492,50.6716 694.5,50.5C 690.473,50.0056 687.473,51.5056 685.5,55C 679.171,55.6675 676.671,52.8342 678,46.5C 683.158,41.8962 686.658,42.8962 688.5,49.5C 691.167,49.5 693.833,49.5 696.5,49.5 Z"/></g>
<g><path style="opacity:1" fill="#80b7a8" d="M 61.5,43.5 C 60.9789,46.7195 59.3122,47.7195 56.5,46.5C 58.3188,45.6801 59.9855,44.6801 61.5,43.5 Z"/></g>
<g><path style="opacity:1" fill="#ccebe3" d="M 37.5,46.5 C 39.337,46.6395 39.6704,47.3061 38.5,48.5C 37.7025,48.0431 37.3691,47.3764 37.5,46.5 Z"/></g>
<g><path style="opacity:1" fill="#ebf5f3" d="M 709.5,45.5 C 709.833,45.5 710.167,45.5 710.5,45.5C 711.183,47.1765 712.517,47.8432 714.5,47.5C 713.766,48.7079 713.433,50.0413 713.5,51.5C 713.167,52.1667 712.833,52.8333 712.5,53.5C 712.5,54.1667 712.167,54.5 711.5,54.5C 709.833,54.5 708.167,54.5 706.5,54.5C 705.952,52.4677 704.619,51.4677 702.5,51.5C 702.5,51.1667 702.5,50.8333 702.5,50.5C 703.5,50.5 704.5,50.5 705.5,50.5C 705.5,49.5 705.5,48.5 705.5,47.5C 707.38,47.7709 708.713,47.1042 709.5,45.5 Z"/></g>
<g><path style="opacity:1" fill="#a2cdc1" d="M 616.5,39.5 C 613.899,42.3371 613.899,45.1705 616.5,48C 619.482,48.498 622.482,48.6646 625.5,48.5C 628.287,49.4767 631.287,49.81 634.5,49.5C 628.599,50.8057 622.599,50.8057 616.5,49.5C 614.124,48.488 613.124,46.6546 613.5,44C 613.05,41.3743 614.05,39.8743 616.5,39.5 Z"/></g>
<g><path style="opacity:1" fill="#deeee9" d="M 143.5,45.5 C 149.501,45.7414 150.834,48.2414 147.5,53C 141.413,53.2054 140.079,50.7054 143.5,45.5 Z"/></g>
<g><path style="opacity:1" fill="#197b59" d="M 653.5,57.5 C 653.843,51.6741 651.176,49.1741 645.5,50C 642.896,50.3903 640.562,51.2237 638.5,52.5C 631.673,51.8253 628.84,54.8253 630,61.5C 630.383,62.056 630.883,62.3893 631.5,62.5C 632.312,63.9931 633.645,64.6598 635.5,64.5C 638.08,64.2757 640.414,63.6091 642.5,62.5C 644.806,62.0074 647.139,61.6741 649.5,61.5C 642.772,67.7092 635.438,73.2092 627.5,78C 623.149,78.7448 619.149,77.9115 615.5,75.5C 612.579,76.4066 609.579,76.7399 606.5,76.5C 607.795,70.5222 610.462,65.1889 614.5,60.5C 613.675,59.6143 612.675,59.281 611.5,59.5C 612.229,55.7507 613.896,52.4174 616.5,49.5C 622.599,50.8057 628.599,50.8057 634.5,49.5C 639.343,46.4465 639.676,42.9465 635.5,39C 629.509,38.5005 623.509,38.3338 617.5,38.5C 623.901,38.6234 629.567,36.6234 634.5,32.5C 637.378,34.1054 640.378,35.4388 643.5,36.5C 648.148,40.2656 652.648,40.2656 657,36.5C 657.377,30.6929 654.543,27.3596 648.5,26.5C 647.833,25.8333 647.167,25.1667 646.5,24.5C 650.476,23.6693 654.476,23.5027 658.5,24C 659.747,25.4579 659.747,26.9579 658.5,28.5C 660.922,30.7263 660.922,33.0596 658.5,35.5C 660.108,36.3184 661.775,36.9851 663.5,37.5C 664.731,38.6507 664.731,39.8173 663.5,41C 665.619,41.0976 667.286,41.9309 668.5,43.5C 664.108,48.8943 659.108,53.561 653.5,57.5 Z"/></g>
<g><path style="opacity:1" fill="#f5faf9" d="M 653.5,57.5 C 652.473,59.1942 651.139,60.5275 649.5,61.5C 647.139,61.6741 644.806,62.0074 642.5,62.5C 642.5,62.1667 642.5,61.8333 642.5,61.5C 642.322,58.7835 641.822,56.1168 641,53.5C 640.329,52.7476 639.496,52.4142 638.5,52.5C 640.562,51.2237 642.896,50.3903 645.5,50C 651.176,49.1741 653.843,51.6741 653.5,57.5 Z"/></g>
<g><path style="opacity:1" fill="#85b8ab" d="M 696.5,49.5 C 698.565,49.5172 700.565,49.8505 702.5,50.5C 702.5,50.8333 702.5,51.1667 702.5,51.5C 699.615,51.8064 696.948,51.4731 694.5,50.5C 695.492,50.6716 696.158,50.3382 696.5,49.5 Z"/></g>
<g><path style="opacity:1" fill="#e6f4f1" d="M 41.5,50.5 C 44.3892,50.999 45.0558,52.499 43.5,55C 42.552,55.4828 41.552,55.6495 40.5,55.5C 40.366,53.7085 40.6993,52.0418 41.5,50.5 Z"/></g>
<g><path style="opacity:1" fill="#add3ca" d="M 713.5,51.5 C 716.986,53.1056 720.653,54.1056 724.5,54.5C 724.167,55.1667 723.833,55.8333 723.5,56.5C 719.905,55.3028 716.239,54.3028 712.5,53.5C 712.833,52.8333 713.167,52.1667 713.5,51.5 Z"/></g>
<g><path style="opacity:1" fill="#f2f9f8" d="M 723.5,56.5 C 723.833,55.8333 724.167,55.1667 724.5,54.5C 727.217,51.8555 730.05,51.8555 733,54.5C 734.72,60.4443 732.553,62.9443 726.5,62C 724.329,60.8261 723.329,58.9928 723.5,56.5 Z"/></g>
<g><path style="opacity:1" fill="#b7dbd3" d="M 638.5,52.5 C 635.755,53.1679 633.255,54.5012 631,56.5C 630.51,58.5454 630.677,60.5454 631.5,62.5C 630.883,62.3893 630.383,62.056 630,61.5C 628.84,54.8253 631.673,51.8253 638.5,52.5 Z"/></g>
<g><path style="opacity:1" fill="#247d5e" d="M 638.5,52.5 C 639.496,52.4142 640.329,52.7476 641,53.5C 641.822,56.1168 642.322,58.7835 642.5,61.5C 638.862,63.0047 635.195,63.3381 631.5,62.5C 630.677,60.5454 630.51,58.5454 631,56.5C 633.255,54.5012 635.755,53.1679 638.5,52.5 Z"/></g>
<g><path style="opacity:1" fill="#dbefea" d="M 221.5,50.5 C 221.34,52.1992 221.506,53.8659 222,55.5C 222.662,53.1873 223.162,50.854 223.5,48.5C 223.5,46.5 223.5,44.5 223.5,42.5C 224.5,42.5 225.5,42.5 226.5,42.5C 226.838,44.854 227.338,47.1873 228,49.5C 229.226,23.57 231.559,23.2367 235,48.5C 235.863,45.0408 237.03,41.7074 238.5,38.5C 239.298,38.9569 239.631,39.6236 239.5,40.5C 240.167,47.1667 240.833,47.1667 241.5,40.5C 241.215,38.712 241.548,37.0453 242.5,35.5C 244.88,39.4637 245.88,43.7971 245.5,48.5C 252.863,48.1694 260.197,48.5027 267.5,49.5C 259.862,50.4975 252.196,50.8308 244.5,50.5C 244.162,48.146 243.662,45.8127 243,43.5C 242.411,48.5454 241.578,53.5454 240.5,58.5C 239.435,54.2163 238.602,49.8829 238,45.5C 237.137,48.9592 235.97,52.2926 234.5,55.5C 233.252,49.8476 232.085,44.181 231,38.5C 230.627,44.5699 229.793,50.5699 228.5,56.5C 227.35,54.2372 226.35,51.9038 225.5,49.5C 224.294,55.5298 222.961,61.5298 221.5,67.5C 220.419,58.863 219.752,50.1963 219.5,41.5C 219.66,39.8008 219.494,38.1341 219,36.5C 218.178,39.1168 217.678,41.7835 217.5,44.5C 217.5,46.1667 217.5,47.8333 217.5,49.5C 209.472,49.831 201.472,49.4977 193.5,48.5C 201.138,47.5025 208.804,47.1692 216.5,47.5C 216.613,39.8114 217.113,32.1447 218,24.5C 218.249,23.376 218.749,22.376 219.5,21.5C 220.875,31.1175 221.541,40.7842 221.5,50.5 Z"/></g>
<g><path style="opacity:1" fill="#5f9482" d="M 223.5,48.5 C 223.162,50.854 222.662,53.1873 222,55.5C 221.506,53.8659 221.34,52.1992 221.5,50.5C 222.167,49.8333 222.833,49.1667 223.5,48.5 Z"/></g>
<g><path style="opacity:1" fill="#70a997" d="M 239.5,40.5 C 240.167,40.5 240.833,40.5 241.5,40.5C 240.833,47.1667 240.167,47.1667 239.5,40.5 Z"/></g>
<g><path style="opacity:1" fill="#7bac9c" d="M 219.5,41.5 C 218.833,42.5 218.167,43.5 217.5,44.5C 217.678,41.7835 218.178,39.1168 219,36.5C 219.494,38.1341 219.66,39.8008 219.5,41.5 Z"/></g>
<g><path style="opacity:1" fill="#add5ca" d="M 706.5,54.5 C 708.167,54.5 709.833,54.5 711.5,54.5C 711.736,57.7852 712.736,60.7852 714.5,63.5C 713.675,64.3857 712.675,64.719 711.5,64.5C 711.296,61.4824 710.963,58.4824 710.5,55.5C 709.5,55.5 708.5,55.5 707.5,55.5C 706.373,60.4664 705.373,65.4664 704.5,70.5C 703.833,70.1667 703.167,69.8333 702.5,69.5C 703.989,64.5427 705.323,59.5427 706.5,54.5 Z"/></g>
<g><path style="opacity:1" fill="#f7fbfa" d="M 102.5,62.5 C 102.174,66.8839 102.508,71.2172 103.5,75.5C 104.107,75.3764 104.44,75.0431 104.5,74.5C 104.5,73.5 104.5,72.5 104.5,71.5C 105.833,71.5 107.167,71.5 108.5,71.5C 108.312,73.1033 108.812,74.4366 110,75.5C 110.333,71.1667 110.667,66.8333 111,62.5C 114.791,61.5525 117.791,62.8859 120,66.5C 125.613,73.3875 129.946,81.0542 133,89.5C 134.223,95.3792 133.389,100.879 130.5,106C 126.732,107.209 123.732,106.209 121.5,103C 118.833,102.667 116.167,102.333 113.5,102C 113,101.5 112.5,101 112,100.5C 110.737,93.2718 110.07,85.9385 110,78.5C 107.667,74.5 105.333,74.5 103,78.5C 102.667,85.5 102.333,92.5 102,99.5C 101.167,100.333 100.333,101.167 99.5,102C 95.1133,101.652 91.4466,102.986 88.5,106C 83.4518,106.97 80.6184,104.803 80,99.5C 79.502,96.5184 79.3354,93.5184 79.5,90.5C 82.2612,83.3876 85.9279,76.7209 90.5,70.5C 92.934,67.5624 95.6007,64.7291 98.5,62C 100.066,61.235 101.399,61.4017 102.5,62.5 Z"/></g>
<g><path style="opacity:1" fill="#a6cfc5" d="M 642.5,61.5 C 642.5,61.8333 642.5,62.1667 642.5,62.5C 640.414,63.6091 638.08,64.2757 635.5,64.5C 633.645,64.6598 632.312,63.9931 631.5,62.5C 635.195,63.3381 638.862,63.0047 642.5,61.5 Z"/></g>
<g><path style="opacity:1" fill="#187a59" d="M 90.5,70.5 C 85.9279,76.7209 82.2612,83.3876 79.5,90.5C 75.369,94.1296 71.369,97.963 67.5,102C 62.2398,105.128 56.9065,107.961 51.5,110.5C 60.0758,101.11 59.4092,92.443 49.5,84.5C 49.1667,81.3333 48.8333,78.1667 48.5,75C 48.5152,71.4242 49.1818,68.2575 50.5,65.5C 49.42,68.7431 49.2534,72.0764 50,75.5C 56.0942,70.3708 62.9275,66.7042 70.5,64.5C 77.0363,66.7708 83.703,68.7708 90.5,70.5 Z"/></g>
<g><path style="opacity:1" fill="#609d8a" d="M 102.5,62.5 C 103.167,66.5 103.833,70.5 104.5,74.5C 104.44,75.0431 104.107,75.3764 103.5,75.5C 102.508,71.2172 102.174,66.8839 102.5,62.5 Z"/></g>
<g><path style="opacity:1" fill="#edf8f6" d="M 568.5,32.5 C 573.223,31.5531 577.056,32.8864 580,36.5C 580.333,45.8333 580.667,55.1667 581,64.5C 584.741,70.6457 583.908,76.1457 578.5,81C 568.987,84.5787 563.32,81.412 561.5,71.5C 561.295,68.7715 562.128,66.4382 564,64.5C 564.333,55.1667 564.667,45.8333 565,36.5C 566.376,35.2949 567.542,33.9616 568.5,32.5 Z"/></g>
<g><path style="opacity:1" fill="#dcece7" d="M 570.5,76.5 C 567.066,73.7858 566.733,70.7858 569.5,67.5C 570.492,60.0182 570.825,52.3516 570.5,44.5C 571.833,44.5 573.167,44.5 574.5,44.5C 574.334,52.1739 574.5,59.8406 575,67.5C 578.82,72.8907 577.32,75.8907 570.5,76.5 Z"/></g>
<g><path style="opacity:1" fill="#1a7452" d="M 574.5,78.5 C 572.345,78.628 570.345,78.128 568.5,77C 569.094,76.5357 569.761,76.369 570.5,76.5C 577.32,75.8907 578.82,72.8907 575,67.5C 574.5,59.8406 574.334,52.1739 574.5,44.5C 573.167,44.5 571.833,44.5 570.5,44.5C 570.825,52.3516 570.492,60.0182 569.5,67.5C 568.761,67.631 568.094,67.4643 567.5,67C 568.486,57.2496 568.819,47.4163 568.5,37.5C 569.134,36.0532 570.301,35.3866 572,35.5C 574.305,35.4841 575.972,36.4841 577,38.5C 577.333,47.8333 577.667,57.1667 578,66.5C 581.102,69.584 581.269,72.9173 578.5,76.5C 577.423,77.7051 576.09,78.3718 574.5,78.5 Z"/></g>
<g><path style="opacity:1" fill="#307e61" d="M 568.5,37.5 C 568.819,47.4163 568.486,57.2496 567.5,67C 568.094,67.4643 568.761,67.631 569.5,67.5C 566.733,70.7858 567.066,73.7858 570.5,76.5C 569.761,76.369 569.094,76.5357 568.5,77C 570.345,78.128 572.345,78.628 574.5,78.5C 568.405,80.2498 565.072,77.7498 564.5,71C 564.858,68.9676 565.692,67.1343 567,65.5C 567.17,55.991 567.67,46.6577 568.5,37.5 Z"/></g>
<g><path style="opacity:1" fill="#edf6f4" d="M 702.5,69.5 C 703.167,69.8333 703.833,70.1667 704.5,70.5C 707.808,77.679 705.475,80.5123 697.5,79C 694.095,73.2278 695.762,70.0611 702.5,69.5 Z"/></g>
<g><path style="opacity:1" fill="#e3f1ee" d="M 754.5,98.5 C 755.301,100.042 755.634,101.708 755.5,103.5C 754.167,103.5 752.833,103.5 751.5,103.5C 748.989,103.838 746.655,103.838 744.5,103.5C 747.149,102.939 748.816,101.939 749.5,100.5C 750.5,99.8333 751.5,99.1667 752.5,98.5C 753.643,95.0242 753.81,91.3575 753,87.5C 749.38,83.9889 749.88,81.3222 754.5,79.5C 759.484,81.4868 759.818,84.1534 755.5,87.5C 754.511,91.1073 754.177,94.774 754.5,98.5 Z"/></g>
<g><path style="opacity:1" fill="#e4f3f0" d="M 401.5,84.5 C 403.199,84.3398 404.866,84.5065 406.5,85C 405.378,87.1238 403.878,88.9571 402,90.5C 400.311,88.6804 400.145,86.6804 401.5,84.5 Z"/></g>
<g><path style="opacity:1" fill="#f1fbf9" d="M 438.5,85.5 C 440.167,85.5 441.833,85.5 443.5,85.5C 443.5,92.8333 443.5,100.167 443.5,107.5C 432.09,110.903 427.59,106.903 430,95.5C 432.196,92.8748 435.03,91.8748 438.5,92.5C 438.5,90.1667 438.5,87.8333 438.5,85.5 Z"/></g>
<g><path style="opacity:1" fill="#91c2b3" d="M 354.5,87.5 C 349.167,87.5 343.833,87.5 338.5,87.5C 338.5,88.8333 338.5,90.1667 338.5,91.5C 337.549,90.0813 337.216,88.4147 337.5,86.5C 343.358,86.1778 349.025,86.5111 354.5,87.5 Z"/></g>
<g><path style="opacity:1" fill="#f2fcfa" d="M 354.5,87.5 C 354.5,88.8333 354.5,90.1667 354.5,91.5C 352.833,91.5 351.167,91.5 349.5,91.5C 348.512,96.6405 348.179,101.974 348.5,107.5C 346.833,107.5 345.167,107.5 343.5,107.5C 343.5,102.167 343.5,96.8333 343.5,91.5C 341.833,91.5 340.167,91.5 338.5,91.5C 338.5,90.1667 338.5,88.8333 338.5,87.5C 343.833,87.5 349.167,87.5 354.5,87.5 Z"/></g>
<g><path style="opacity:1" fill="#a5cfc2" d="M 349.5,91.5 C 349.5,97.1667 349.5,102.833 349.5,108.5C 347.265,108.795 345.265,108.461 343.5,107.5C 345.167,107.5 346.833,107.5 348.5,107.5C 348.179,101.974 348.512,96.6405 349.5,91.5 Z"/></g>
<g><path style="opacity:1" fill="#eaf7f4" d="M 369.5,96.5 C 369.5,98.1667 369.5,99.8333 369.5,101.5C 366.753,101.187 364.086,101.52 361.5,102.5C 361.624,103.107 361.957,103.44 362.5,103.5C 364.292,104.309 366.292,104.809 368.5,105C 369.833,106 369.833,107 368.5,108C 357.428,109.597 353.595,105.097 357,94.5C 360.256,92.5715 363.756,92.0715 367.5,93C 368.823,93.8159 369.489,94.9826 369.5,96.5 Z"/></g>
<g><path style="opacity:1" fill="#eaf7f4" d="M 375.5,92.5 C 384.889,91.3872 388.389,95.3872 386,104.5C 380.837,110.062 376.171,109.729 372,103.5C 370.663,98.8721 371.83,95.2054 375.5,92.5 Z"/></g>
<g><path style="opacity:1" fill="#86bcab" d="M 389.5,92.5 C 389.5,97.5 389.5,102.5 389.5,107.5C 391.167,107.5 392.833,107.5 394.5,107.5C 392.735,108.461 390.735,108.795 388.5,108.5C 388.179,102.974 388.512,97.6405 389.5,92.5 Z"/></g>
<g><path style="opacity:1" fill="#f2fcfb" d="M 389.5,92.5 C 391.451,92.2267 392.951,92.8934 394,94.5C 395.11,92.9632 396.61,92.2965 398.5,92.5C 398.5,93.8333 398.5,95.1667 398.5,96.5C 397.178,96.33 396.011,96.6634 395,97.5C 394.502,100.817 394.335,104.15 394.5,107.5C 392.833,107.5 391.167,107.5 389.5,107.5C 389.5,102.5 389.5,97.5 389.5,92.5 Z"/></g>
<g><path style="opacity:1" fill="#f1fbfa" d="M 405.5,92.5 C 405.5,97.5 405.5,102.5 405.5,107.5C 403.833,107.5 402.167,107.5 400.5,107.5C 400.5,102.5 400.5,97.5 400.5,92.5C 402.167,92.5 403.833,92.5 405.5,92.5 Z"/></g>
<g><path style="opacity:1" fill="#b4d7cc" d="M 405.5,92.5 C 406.488,97.6405 406.821,102.974 406.5,108.5C 404.265,108.795 402.265,108.461 400.5,107.5C 402.167,107.5 403.833,107.5 405.5,107.5C 405.5,102.5 405.5,97.5 405.5,92.5 Z"/></g>
<g><path style="opacity:1" fill="#e9f6f4" d="M 409.5,92.5 C 412.85,92.335 416.183,92.5017 419.5,93C 420,93.5 420.5,94 421,94.5C 421.499,98.8206 421.666,103.154 421.5,107.5C 417.815,107.895 414.148,108.062 410.5,108C 408.556,105.847 408.056,103.347 409,100.5C 411.087,99.2062 413.254,98.0395 415.5,97C 413.527,96.5045 411.527,96.3379 409.5,96.5C 409.5,95.1667 409.5,93.8333 409.5,92.5 Z"/></g>
<g><path style="opacity:1" fill="#e3f3ef" d="M 449.5,92.5 C 457.666,91.0022 461.333,94.3355 460.5,102.5C 457.753,102.187 455.086,102.52 452.5,103.5C 454.743,104.474 457.076,104.808 459.5,104.5C 459.126,107.62 457.293,108.954 454,108.5C 448.878,108.044 446.044,105.211 445.5,100C 445.927,96.9766 447.261,94.4766 449.5,92.5 Z"/></g>
<g><path style="opacity:1" fill="#f9fcfc" d="M 601.5,97.5 C 601.726,102.562 601.392,107.562 600.5,112.5C 596.945,114.622 593.278,116.122 589.5,117C 586.333,115.167 583.167,113.333 580,111.5C 579.333,106.833 579.333,102.167 580,97.5C 583.362,94.9847 587.029,92.9847 591,91.5C 594.593,93.3785 598.093,95.3785 601.5,97.5 Z"/></g>
<g><path style="opacity:1" fill="#e3f0ed" d="M 741.5,96.5 C 740.833,97.1667 740.167,97.8333 739.5,98.5C 738.116,99.8009 736.616,99.8009 735,98.5C 734.505,96.5273 734.338,94.5273 734.5,92.5C 736.604,92.2011 738.604,92.5344 740.5,93.5C 741.127,94.4168 741.461,95.4168 741.5,96.5 Z"/></g>
<g><path style="opacity:1" fill="#217c5a" d="M 377.5,96.5 C 378.5,96.5 379.5,96.5 380.5,96.5C 380.813,99.2469 380.48,101.914 379.5,104.5C 378.914,104.291 378.414,103.957 378,103.5C 377.503,101.19 377.337,98.8568 377.5,96.5 Z"/></g>
<g><path style="opacity:1" fill="#1b7b5a" d="M 361.5,96.5 C 362.675,96.281 363.675,96.6143 364.5,97.5C 362.948,98.7979 361.948,98.4646 361.5,96.5 Z"/></g>
<g><path style="opacity:1" fill="#429073" d="M 435.5,96.5 C 436.5,96.5 437.5,96.5 438.5,96.5C 438.813,99.2469 438.48,101.914 437.5,104.5C 436.914,104.291 436.414,103.957 436,103.5C 435.503,101.19 435.337,98.8568 435.5,96.5 Z"/></g>
<g><path style="opacity:1" fill="#308262" d="M 452.5,96.5 C 453.675,96.281 454.675,96.6143 455.5,97.5C 453.948,98.7979 452.948,98.4646 452.5,96.5 Z"/></g>
<g><path style="opacity:1" fill="#92c2b5" d="M 741.5,96.5 C 744.998,97.9168 748.665,98.5835 752.5,98.5C 751.5,99.1667 750.5,99.8333 749.5,100.5C 746.321,99.2066 742.988,98.5399 739.5,98.5C 740.167,97.8333 740.833,97.1667 741.5,96.5 Z"/></g>
<g><path style="opacity:1" fill="#84bba9" d="M 369.5,96.5 C 370.461,98.2646 370.795,100.265 370.5,102.5C 367.615,102.194 364.948,102.527 362.5,103.5C 361.957,103.44 361.624,103.107 361.5,102.5C 364.086,101.52 366.753,101.187 369.5,101.5C 369.5,99.8333 369.5,98.1667 369.5,96.5 Z"/></g>
<g><path style="opacity:1" fill="#3f8e71" d="M 414.5,101.5 C 417.012,102.216 417.012,103.216 414.5,104.5C 413.438,103.575 413.438,102.575 414.5,101.5 Z"/></g>
<g><path style="opacity:1" fill="#badbd2" d="M 751.5,112.5 C 748.05,111.756 746.384,113.09 746.5,116.5C 744.951,113.131 746.118,110.798 750,109.5C 750.813,107.564 751.313,105.564 751.5,103.5C 752.833,103.5 754.167,103.5 755.5,103.5C 755.634,101.708 755.301,100.042 754.5,98.5C 756.64,96.505 757.973,94.005 758.5,91C 761.667,90.1667 762.833,91.3333 762,94.5C 758.263,95.2949 756.43,97.6282 756.5,101.5C 761.384,102.902 766.384,103.569 771.5,103.5C 771.5,104.833 771.5,106.167 771.5,107.5C 767.029,105.453 762.362,103.786 757.5,102.5C 756.417,103.365 756.251,104.365 757,105.5C 758.362,108.236 760.196,110.569 762.5,112.5C 762.167,113.5 761.5,114.167 760.5,114.5C 759.091,111.348 757.424,108.348 755.5,105.5C 754.675,104.614 753.675,104.281 752.5,104.5C 752.167,107.167 751.833,109.833 751.5,112.5 Z"/></g>
<g><path style="opacity:1" fill="#daece7" d="M 50.5,65.5 C 49.1818,68.2575 48.5152,71.4242 48.5,75C 48.8333,78.1667 49.1667,81.3333 49.5,84.5C 59.4092,92.443 60.0758,101.11 51.5,110.5C 38.5645,115.721 30.5645,111.554 27.5,98C 27.6797,91.8032 30.513,87.3032 36,84.5C 36.1667,81.3333 36.3333,78.1667 36.5,75C 36.2944,69.8024 35.4611,64.9691 34,60.5C 39.4162,59.3611 44.9162,59.1944 50.5,60C 51.7525,61.8278 51.7525,63.6612 50.5,65.5 Z"/></g>
<g><path style="opacity:1" fill="#fafcfc" d="M 38.5,98.5 C 38.9623,99.8799 39.9623,100.547 41.5,100.5C 44.937,98.6122 48.6037,97.6122 52.5,97.5C 53.1667,97.8333 53.8333,98.1667 54.5,98.5C 51.5719,109.72 44.9052,112.553 34.5,107C 32.3034,104.579 30.97,101.745 30.5,98.5C 33.0259,97.3433 35.6926,97.3433 38.5,98.5 Z"/></g>
<g><path style="opacity:1" fill="#51977e" d="M 52.5,97.5 C 48.6037,97.6122 44.937,98.6122 41.5,100.5C 39.9623,100.547 38.9623,99.8799 38.5,98.5C 39.7918,96.7451 40.7918,94.7451 41.5,92.5C 42.4776,92.9767 43.3109,93.6433 44,94.5C 46.1293,93.1373 46.6293,93.4706 45.5,95.5C 46.325,96.3857 47.325,96.719 48.5,96.5C 47.812,91.7581 48.812,90.9247 51.5,94C 49.042,95.7331 49.3753,96.8998 52.5,97.5 Z"/></g>
<g><path style="opacity:1" fill="#247e5e" d="M 46.5,64.5 C 46.3337,71.5079 46.5004,78.5079 47,85.5C 51.555,87.8824 54.3883,91.549 55.5,96.5C 55.4573,97.4164 55.1239,98.0831 54.5,98.5C 53.8333,98.1667 53.1667,97.8333 52.5,97.5C 49.3753,96.8998 49.042,95.7331 51.5,94C 48.812,90.9247 47.812,91.7581 48.5,96.5C 47.325,96.719 46.325,96.3857 45.5,95.5C 46.6293,93.4706 46.1293,93.1373 44,94.5C 43.3109,93.6433 42.4776,92.9767 41.5,92.5C 40.7918,94.7451 39.7918,96.7451 38.5,98.5C 35.6926,97.3433 33.0259,97.3433 30.5,98.5C 29.6465,92.8953 31.9799,88.8953 37.5,86.5C 39.256,85.4479 39.9227,83.7812 39.5,81.5C 41.3936,80.9524 43.0603,79.9524 44.5,78.5C 45.1669,73.6833 45.8335,69.0166 46.5,64.5 Z"/></g>
<g><path style="opacity:1" fill="#649f8c" d="M 36.5,63.5 C 37.5,63.5 38.5,63.5 39.5,63.5C 39.5,69.5 39.5,75.5 39.5,81.5C 39.9227,83.7812 39.256,85.4479 37.5,86.5C 39.143,78.6404 38.8097,70.9737 36.5,63.5 Z"/></g>
<g><path style="opacity:1" fill="#086f4b" d="M 46.5,64.5 C 45.8335,69.0166 45.1669,73.6833 44.5,78.5C 43.0603,79.9524 41.3936,80.9524 39.5,81.5C 39.5,75.5 39.5,69.5 39.5,63.5C 38.5,63.5 37.5,63.5 36.5,63.5C 35.9569,63.44 35.6236,63.1067 35.5,62.5C 40.1667,61.1667 44.8333,61.1667 49.5,62.5C 48.9953,63.9185 47.9953,64.5852 46.5,64.5 Z"/></g>
<g><path style="opacity:1" fill="#e7f3f0" d="M 719.5,135.5 C 702.273,136.273 693.94,127.94 694.5,110.5C 685.728,109.228 678.894,104.895 674,97.5C 673.312,96.6683 673.479,96.0016 674.5,95.5C 675.281,96.7366 676.281,97.7366 677.5,98.5C 681.615,97.2765 685.282,95.2765 688.5,92.5C 686.847,90.8786 684.847,89.7119 682.5,89C 681.663,87.9887 681.33,86.8221 681.5,85.5C 693.365,87.8943 698.531,95.2277 697,107.5C 706.178,109.572 712.512,114.905 716,123.5C 716.813,125.436 717.313,127.436 717.5,129.5C 730.941,127.069 742.441,130.735 752,140.5C 752.667,141.833 752.667,143.167 752,144.5C 750.289,141.42 747.789,140.254 744.5,141C 741.469,144.23 738.803,147.73 736.5,151.5C 740.122,152.325 743.789,152.825 747.5,153C 748.337,154.011 748.67,155.178 748.5,156.5C 733.528,156.866 723.862,149.866 719.5,135.5 Z"/></g>
<g><path style="opacity:1" fill="#207456" d="M 691.5,102.5 C 693.176,103.183 693.843,104.517 693.5,106.5C 688.174,106.577 687.508,105.244 691.5,102.5 Z"/></g>
<g><path style="opacity:1" fill="#307d62" d="M 689.5,96.5 C 690.675,96.281 691.675,96.6143 692.5,97.5C 688.956,100.448 684.956,101.948 680.5,102C 683.865,100.656 686.865,98.8227 689.5,96.5 Z"/></g>
<g><path style="opacity:1" fill="#f4faf9" d="M 751.5,112.5 C 752.801,113.884 752.801,115.384 751.5,117C 749.613,117.78 747.946,117.613 746.5,116.5C 746.384,113.09 748.05,111.756 751.5,112.5 Z"/></g>
<g><path style="opacity:1" fill="#2d7b5e" d="M 696.5,111.5 C 700.34,112.568 700.507,114.235 697,116.5C 696.506,114.866 696.34,113.199 696.5,111.5 Z"/></g>
<g><path style="opacity:1" fill="#2c7c5d" d="M 703.5,114.5 C 705.103,114.312 706.437,114.812 707.5,116C 704.667,118.833 701.833,121.667 699,124.5C 698.626,123.584 698.126,122.75 697.5,122C 699.334,119.337 701.334,116.837 703.5,114.5 Z"/></g>
<g><path style="opacity:1" fill="#207656" d="M 709.5,119.5 C 712.076,119.722 712.91,121.055 712,123.5C 709.289,125.946 706.456,127.779 703.5,129C 702.483,127.951 702.316,126.784 703,125.5C 705.063,123.266 707.229,121.266 709.5,119.5 Z"/></g>
<g><path style="opacity:1" fill="#daede8" d="M 194.5,66.5 C 197.785,66.2693 200.285,67.6026 202,70.5C 205.529,76.3447 207.363,82.678 207.5,89.5C 211.759,88.1846 216.093,87.0179 220.5,86C 221.398,83.6001 223.064,82.1001 225.5,81.5C 228.742,83.2897 231.575,85.623 234,88.5C 234.118,92.6159 232.784,96.2825 230,99.5C 226.625,103.044 223.125,106.377 219.5,109.5C 224.158,113.325 228.324,117.658 232,122.5C 234.159,126.192 233.993,129.692 231.5,133C 223.455,134.292 215.788,133.125 208.5,129.5C 206.794,135.991 204.627,142.325 202,148.5C 200.417,151.709 197.917,152.876 194.5,152C 191.665,148.134 188.498,144.634 185,141.5C 185.017,137.525 185.184,133.525 185.5,129.5C 179.639,131.453 173.639,132.787 167.5,133.5C 162.495,134.748 159.828,132.914 159.5,128C 159.7,124.767 160.867,121.933 163,119.5C 166.375,115.956 169.875,112.623 173.5,109.5C 168.815,105.648 164.648,101.315 161,96.5C 157.433,89.4862 159.433,85.8196 167,85.5C 173.243,86.5264 179.409,87.8597 185.5,89.5C 185.965,80.7598 188.965,73.0931 194.5,66.5 Z"/></g>
<g><path style="opacity:1" fill="#1e7555" d="M 205.5,118.5 C 206.468,120.607 206.802,122.941 206.5,125.5C 203.984,125.245 201.65,124.411 199.5,123C 201.389,121.236 203.389,119.736 205.5,118.5 Z"/></g>
<g><path style="opacity:1" fill="#1d7454" d="M 186.5,118.5 C 188.95,119.777 191.283,121.277 193.5,123C 191.35,124.411 189.016,125.245 186.5,125.5C 186.5,123.167 186.5,120.833 186.5,118.5 Z"/></g>
<g><path style="opacity:1" fill="#0e704d" d="M 215.5,111.5 C 222.338,114.165 227.505,118.832 231,125.5C 231.743,127.441 231.576,129.274 230.5,131C 223.117,132.192 216.117,131.025 209.5,127.5C 208.167,123.833 208.167,120.167 209.5,116.5C 211.941,115.291 213.941,113.624 215.5,111.5 Z"/></g>
<g><path style="opacity:1" fill="#0c704c" d="M 174.5,111.5 C 177.693,112.665 180.693,114.331 183.5,116.5C 184.833,120.167 184.833,123.833 183.5,127.5C 176.813,130.677 169.813,131.844 162.5,131C 161.203,128.455 161.369,125.955 163,123.5C 166.364,118.971 170.197,114.971 174.5,111.5 Z"/></g>
<g><path style="opacity:1" fill="#197252" d="M 209.5,105.5 C 215.85,107.85 216.016,110.516 210,113.5C 209.503,110.854 209.336,108.187 209.5,105.5 Z"/></g>
<g><path style="opacity:1" fill="#14704f" d="M 182.5,105.5 C 183.634,107.966 183.801,110.633 183,113.5C 181.028,112.695 179.528,111.361 178.5,109.5C 179.867,108.16 181.2,106.827 182.5,105.5 Z"/></g>
<g><path style="opacity:1" fill="#1f7655" d="M 195.5,97.5 C 199.189,99.0969 202.689,101.097 206,103.5C 206.828,107.871 206.661,112.205 205.5,116.5C 202.661,118.42 199.661,120.087 196.5,121.5C 187.324,118.908 184.158,112.908 187,103.5C 189.988,101.601 192.821,99.6009 195.5,97.5 Z"/></g>
<g><path style="opacity:1" fill="#f4faf9" d="M 192.5,102.5 C 203.818,101.992 206.485,106.492 200.5,116C 194.02,118.27 190.353,116.103 189.5,109.5C 189.695,106.782 190.695,104.449 192.5,102.5 Z"/></g>
<g><path style="opacity:1" fill="#247859" d="M 186.5,93.5 C 189.09,93.9182 191.423,94.9182 193.5,96.5C 191.417,97.9587 189.25,99.2921 187,100.5C 186.503,98.1902 186.337,95.8568 186.5,93.5 Z"/></g>
<g><path style="opacity:1" fill="#237758" d="M 203.5,93.5 C 204.5,93.5 205.5,93.5 206.5,93.5C 206.808,95.924 206.474,98.2573 205.5,100.5C 203.5,99.1667 201.5,97.8333 199.5,96.5C 200.901,95.4793 202.235,94.4793 203.5,93.5 Z"/></g>
<g><path style="opacity:1" fill="#0f714e" d="M 217.5,88.5 C 220.541,88.5513 223.208,89.5513 225.5,91.5C 227.405,90.935 229.071,89.935 230.5,88.5C 230.833,89.3333 231.167,90.1667 231.5,91C 229.053,97.7884 224.72,103.122 218.5,107C 215.01,106.509 211.843,105.009 209,102.5C 208.501,98.8484 208.335,95.1817 208.5,91.5C 211.67,90.7345 214.67,89.7345 217.5,88.5 Z"/></g>
<g><path style="opacity:1" fill="#0d714d" d="M 162.5,87.5 C 170.019,87.7832 177.352,89.1165 184.5,91.5C 184.665,95.1817 184.499,98.8484 184,102.5C 181.485,104.423 178.818,106.09 176,107.5C 170.013,104.179 165.346,99.5125 162,93.5C 161.322,91.4024 161.489,89.4024 162.5,87.5 Z"/></g>
<g><path style="opacity:1" fill="#10714e" d="M 194.5,69.5 C 196.722,69.178 198.556,69.8446 200,71.5C 203.733,77.7568 205.233,84.4235 204.5,91.5C 201.554,92.3061 198.888,93.6395 196.5,95.5C 193.833,94.1667 191.167,92.8333 188.5,91.5C 187.682,83.4411 189.682,76.1078 194.5,69.5 Z"/></g>
<g><path style="opacity:1" fill="#11714f" d="M 194.5,124.5 C 198.105,124.799 201.439,125.965 204.5,128C 205.118,133.268 204.285,138.435 202,143.5C 201.089,146.576 199.256,148.909 196.5,150.5C 194.473,149.307 192.973,147.64 192,145.5C 193.178,142.383 193.511,139.05 193,135.5C 188.462,134.772 186.629,132.105 187.5,127.5C 190.241,127.293 192.574,126.293 194.5,124.5 Z"/></g>
<g><path style="opacity:1" fill="#ecf8f6" d="M 385.5,126.5 C 389.138,125.737 390.638,127.07 390,130.5C 385.415,132.413 383.915,131.079 385.5,126.5 Z"/></g>
<g><path style="opacity:1" fill="#e6f4f1" d="M 340.5,127.5 C 351.788,127.899 352.288,129.899 342,133.5C 341.333,136.833 341.333,140.167 342,143.5C 344.069,144.264 346.236,144.764 348.5,145C 349.38,146.356 349.714,147.856 349.5,149.5C 337.511,150.677 332.678,145.344 335,133.5C 336.36,130.977 338.193,128.977 340.5,127.5 Z"/></g>
<g><path style="opacity:1" fill="#287a5b" d="M 623.5,136.5 C 620.833,135.167 618.167,133.833 615.5,132.5C 617.672,130.055 620.338,128.055 623.5,126.5C 624.806,129.98 624.806,133.313 623.5,136.5 Z"/></g>
<g><path style="opacity:1" fill="#157150" d="M 103.5,134.5 C 102.626,136.69 100.959,137.69 98.5,137.5C 98.5,135.833 98.5,134.167 98.5,132.5C 98.7118,130.616 99.7118,129.283 101.5,128.5C 103.086,130.173 103.753,132.173 103.5,134.5 Z"/></g>
<g><path style="opacity:1" fill="#ecf8f6" d="M 426.5,129.5 C 428.167,129.5 429.833,129.5 431.5,129.5C 431.5,130.833 431.5,132.167 431.5,133.5C 432.833,133.5 434.167,133.5 435.5,133.5C 435.5,134.833 435.5,136.167 435.5,137.5C 434.167,137.5 432.833,137.5 431.5,137.5C 431.337,139.857 431.503,142.19 432,144.5C 433.011,145.337 434.178,145.67 435.5,145.5C 435.67,146.822 435.337,147.989 434.5,149C 431.653,149.944 429.153,149.444 427,147.5C 426.868,143.338 426.034,139.338 424.5,135.5C 425.754,133.666 426.421,131.666 426.5,129.5 Z"/></g>
<g><path style="opacity:1" fill="#378166" d="M 713.5,126.5 C 715.121,126.787 716.121,127.787 716.5,129.5C 714.5,130.833 712.5,130.833 710.5,129.5C 711.77,128.712 712.77,127.712 713.5,126.5 Z"/></g>
<g><path style="opacity:1" fill="#c3e4dc" d="M 104.5,134.5 C 104.167,134.5 103.833,134.5 103.5,134.5C 103.753,132.173 103.086,130.173 101.5,128.5C 99.7118,129.283 98.7118,130.616 98.5,132.5C 97.5489,133.919 97.2155,135.585 97.5,137.5C 96.0748,134.277 96.4081,131.11 98.5,128C 103.921,126.72 105.921,128.887 104.5,134.5 Z"/></g>
<g><path style="opacity:1" fill="#f8fbfb" d="M 610.5,130.5 C 610.842,129.662 611.508,129.328 612.5,129.5C 613.5,130.5 614.5,131.5 615.5,132.5C 618.167,133.833 620.833,135.167 623.5,136.5C 624.209,137.404 625.209,137.737 626.5,137.5C 626.167,138.167 625.833,138.833 625.5,139.5C 625.824,143.555 625.491,147.555 624.5,151.5C 621.065,153.633 617.565,155.633 614,157.5C 610.029,156.015 606.362,154.015 603,151.5C 602.333,146.833 602.333,142.167 603,137.5C 605.921,135.288 609.088,133.455 612.5,132C 611.956,131.283 611.289,130.783 610.5,130.5 Z"/></g>
<g><path style="opacity:1" fill="#dbefea" d="M 601.5,97.5 C 602.324,101.312 602.824,105.312 603,109.5C 606.424,107.082 610.09,105.082 614,103.5C 618.148,105.574 622.148,107.907 626,110.5C 626.333,114.5 626.667,118.5 627,122.5C 630.082,120.375 633.249,118.375 636.5,116.5C 640.5,118.833 644.5,121.167 648.5,123.5C 649.804,128.719 649.804,133.886 648.5,139C 644.732,141.3 640.898,143.467 637,145.5C 633.234,143.367 629.401,141.367 625.5,139.5C 625.833,138.833 626.167,138.167 626.5,137.5C 625.209,137.737 624.209,137.404 623.5,136.5C 624.806,133.313 624.806,129.98 623.5,126.5C 620.338,128.055 617.672,130.055 615.5,132.5C 614.5,131.5 613.5,130.5 612.5,129.5C 611.508,129.328 610.842,129.662 610.5,130.5C 607.777,128.719 604.943,127.052 602,125.5C 601.825,120.981 601.325,116.647 600.5,112.5C 601.392,107.562 601.726,102.562 601.5,97.5 Z"/></g>
<g><path style="opacity:1" fill="#0b704c" d="M 626.5,137.5 C 624.033,127.773 627.533,121.773 637,119.5C 640.072,121.287 643.239,122.953 646.5,124.5C 650.07,134.527 646.736,140.527 636.5,142.5C 633.173,140.844 629.839,139.177 626.5,137.5 Z"/></g>
<g><path style="opacity:1" fill="#0e704d" d="M 612.5,129.5 C 609.898,127.858 607.231,126.192 604.5,124.5C 603.339,120.205 603.172,115.871 604,111.5C 607.065,109.593 610.232,107.926 613.5,106.5C 623.736,108.473 627.07,114.473 623.5,124.5C 619.889,126.475 616.223,128.142 612.5,129.5 Z"/></g>
<g><path style="opacity:1" fill="#b3dfd2" d="M 80.5,132.5 C 79.791,133.404 78.791,133.737 77.5,133.5C 77.6602,135.199 77.4935,136.866 77,138.5C 76.245,135.697 76.5783,133.03 78,130.5C 78.4169,131.756 79.2502,132.423 80.5,132.5 Z"/></g>
<g><path style="opacity:1" fill="#b4d9cf" d="M 80.5,132.5 C 81.1834,130.824 82.5168,130.157 84.5,130.5C 84.3962,133.09 85.0629,135.423 86.5,137.5C 86.4731,139.704 85.4731,140.538 83.5,140C 85.1397,137.224 84.473,135.224 81.5,134C 84.1304,131.645 83.797,131.145 80.5,132.5 Z"/></g>
<g><path style="opacity:1" fill="#73a797" d="M 721.5,133.5 C 725.351,132.191 729.351,132.191 733.5,133.5C 733.376,134.107 733.043,134.44 732.5,134.5C 729.038,133.518 725.371,133.185 721.5,133.5 Z"/></g>
<g><path style="opacity:1" fill="#bce0d6" d="M 93.5,136.5 C 92.4422,139.242 90.6089,139.909 88,138.5C 87.0715,134.756 87.5715,131.256 89.5,128C 95.0798,126.739 96.9132,128.906 95,134.5C 94.7216,135.416 94.2216,136.082 93.5,136.5 Z"/></g>
<g><path style="opacity:1" fill="#1c7454" d="M 93.5,136.5 C 91.9582,137.301 90.2915,137.634 88.5,137.5C 87.9454,133.613 89.2787,130.613 92.5,128.5C 94.7223,130.884 95.0556,133.551 93.5,136.5 Z"/></g>
<g><path style="opacity:1" fill="#dff1ec" d="M 354.5,133.5 C 365.777,133.224 368.777,138.057 363.5,148C 353.901,151.071 349.734,147.571 351,137.5C 352.376,136.295 353.542,134.962 354.5,133.5 Z"/></g>
<g><path style="opacity:1" fill="#f2fbfa" d="M 381.5,135.5 C 381.5,139.833 381.5,144.167 381.5,148.5C 379.833,148.5 378.167,148.5 376.5,148.5C 376.5,144.833 376.5,141.167 376.5,137.5C 375.5,137.5 374.5,137.5 373.5,137.5C 373.5,141.167 373.5,144.833 373.5,148.5C 371.833,148.5 370.167,148.5 368.5,148.5C 368.5,143.5 368.5,138.5 368.5,133.5C 372.514,133.334 376.514,133.501 380.5,134C 381.056,134.383 381.389,134.883 381.5,135.5 Z"/></g>
<g><path style="opacity:1" fill="#e9f6f4" d="M 384.5,133.5 C 386.5,133.5 388.5,133.5 390.5,133.5C 390.666,139.509 390.499,145.509 390,151.5C 387.103,154.231 383.603,155.231 379.5,154.5C 379.5,153.167 379.5,151.833 379.5,150.5C 381.167,150.5 382.833,150.5 384.5,150.5C 384.5,144.833 384.5,139.167 384.5,133.5 Z"/></g>
<g><path style="opacity:1" fill="#e5f4f1" d="M 392.5,133.5 C 394.5,133.5 396.5,133.5 398.5,133.5C 399.167,148.167 399.833,148.167 400.5,133.5C 402.5,133.5 404.5,133.5 406.5,133.5C 406.5,138.5 406.5,143.5 406.5,148.5C 403.626,148.451 400.792,148.784 398,149.5C 395.849,149.357 394.182,148.357 393,146.5C 392.501,142.179 392.334,137.846 392.5,133.5 Z"/></g>
<g><path style="opacity:1" fill="#f0fbf9" d="M 422.5,135.5 C 422.5,139.833 422.5,144.167 422.5,148.5C 420.833,148.5 419.167,148.5 417.5,148.5C 418.08,144.351 417.414,140.684 415.5,137.5C 414.518,140.962 414.185,144.629 414.5,148.5C 412.833,148.5 411.167,148.5 409.5,148.5C 409.5,143.5 409.5,138.5 409.5,133.5C 413.514,133.334 417.514,133.501 421.5,134C 422.056,134.383 422.389,134.883 422.5,135.5 Z"/></g>
<g><path style="opacity:1" fill="#eaf7f5" d="M 439.5,133.5 C 443.257,133.071 446.757,133.737 450,135.5C 453.441,142.946 451.275,147.613 443.5,149.5C 438.845,148.672 436.512,145.838 436.5,141C 436.548,138.078 437.548,135.578 439.5,133.5 Z"/></g>
<g><path style="opacity:1" fill="#e6f4f1" d="M 455.5,133.5 C 458.722,133.108 461.722,133.608 464.5,135C 463.33,136.755 461.663,137.755 459.5,138C 460.729,139.529 462.229,140.696 464,141.5C 465.212,144.834 464.379,147.334 461.5,149C 458.833,149.667 456.167,149.667 453.5,149C 453.043,148.586 452.709,148.086 452.5,147.5C 454.483,145.976 456.816,144.976 459.5,144.5C 457.613,142.96 455.78,141.293 454,139.5C 453.252,137.16 453.752,135.16 455.5,133.5 Z"/></g>
<g><path style="opacity:1" fill="#167250" d="M 721.5,133.5 C 725.371,133.185 729.038,133.518 732.5,134.5C 729.835,137.335 727.335,140.335 725,143.5C 722.897,140.941 721.064,138.274 719.5,135.5C 719.5,134.167 720.167,133.5 721.5,133.5 Z"/></g>
<g><path style="opacity:1" fill="#aad3c8" d="M 107.5,128.5 C 108.209,127.596 109.209,127.263 110.5,127.5C 110.5,129.167 110.5,130.833 110.5,132.5C 112.124,132.64 113.29,131.973 114,130.5C 114.5,131.667 115.333,132.5 116.5,133C 115.552,133.483 114.552,133.649 113.5,133.5C 113.402,139.373 112.402,139.706 110.5,134.5C 109.376,135.914 108.376,137.414 107.5,139C 106.365,139.749 105.365,139.583 104.5,138.5C 105.934,136.154 107.267,133.821 108.5,131.5C 108.48,130.274 108.147,129.274 107.5,128.5 Z"/></g>
<g><path style="opacity:1" fill="#b3d7cd" d="M 67.5,128.5 C 67.1667,128.5 66.8333,128.5 66.5,128.5C 65.5416,128.953 64.7083,129.619 64,130.5C 63.5034,132.81 63.3367,135.143 63.5,137.5C 70.1697,137.394 72.8364,134.227 71.5,128C 72.448,127.517 73.448,127.351 74.5,127.5C 74.0137,129.807 74.0137,131.973 74.5,134C 73.5709,136.391 72.0709,138.225 70,139.5C 61.5542,140.223 59.2209,136.556 63,128.5C 64.6155,127.199 66.1155,127.199 67.5,128.5 Z"/></g>
<g><path style="opacity:1" fill="#67a893" d="M 66.5,128.5 C 66.8333,128.5 67.1667,128.5 67.5,128.5C 68.782,129.708 68.782,131.042 67.5,132.5C 66.5713,131.311 66.238,129.978 66.5,128.5 Z"/></g>
<g><path style="opacity:1" fill="#1d7554" d="M 737.5,135.5 C 739.484,135.383 741.15,136.05 742.5,137.5C 738.52,141.467 735.02,145.801 732,150.5C 730.59,149.213 729.09,148.046 727.5,147C 730.035,142.399 733.369,138.566 737.5,135.5 Z"/></g>
<g><path style="opacity:1" fill="#0d724e" d="M 357.5,137.5 C 358.748,138.334 359.415,139.667 359.5,141.5C 359.167,142.833 358.833,144.167 358.5,145.5C 357.52,142.914 357.187,140.247 357.5,137.5 Z"/></g>
<g><path style="opacity:1" fill="#127552" d="M 442.5,137.5 C 443.5,137.5 444.5,137.5 445.5,137.5C 444.5,148.167 443.5,148.167 442.5,137.5 Z"/></g>
<g><path style="opacity:1" fill="#85baab" d="M 98.5,132.5 C 98.5,134.167 98.5,135.833 98.5,137.5C 100.959,137.69 102.626,136.69 103.5,134.5C 103.833,134.5 104.167,134.5 104.5,134.5C 103.856,137.144 102.189,138.811 99.5,139.5C 98.4777,139.145 97.811,138.478 97.5,137.5C 97.2155,135.585 97.5489,133.919 98.5,132.5 Z"/></g>
<g><path style="opacity:1" fill="#90c1b2" d="M 381.5,135.5 C 382.486,139.97 382.819,144.637 382.5,149.5C 380.265,149.795 378.265,149.461 376.5,148.5C 378.167,148.5 379.833,148.5 381.5,148.5C 381.5,144.167 381.5,139.833 381.5,135.5 Z"/></g>
<g><path style="opacity:1" fill="#83baa8" d="M 415.5,137.5 C 415.5,141.5 415.5,145.5 415.5,149.5C 413.265,149.795 411.265,149.461 409.5,148.5C 411.167,148.5 412.833,148.5 414.5,148.5C 414.185,144.629 414.518,140.962 415.5,137.5 Z"/></g>
<g><path style="opacity:1" fill="#a7cfc2" d="M 422.5,135.5 C 423.486,139.97 423.819,144.637 423.5,149.5C 421.265,149.795 419.265,149.461 417.5,148.5C 419.167,148.5 420.833,148.5 422.5,148.5C 422.5,144.167 422.5,139.833 422.5,135.5 Z"/></g>
<g><path style="opacity:1" fill="#086e4b" d="M 63.5,152.5 C 63.5,157.5 63.5,162.5 63.5,167.5C 61.8333,167.5 60.1667,167.5 58.5,167.5C 57.3493,162.35 57.1826,157.016 58,151.5C 60.2345,150.02 62.0679,150.353 63.5,152.5 Z"/></g>
<g><path style="opacity:1" fill="#def3f0" d="M 35.5,148.5 C 38.0444,148.104 40.2111,148.771 42,150.5C 42.6667,167.833 42.6667,185.167 42,202.5C 39.3333,205.167 36.6667,205.167 34,202.5C 33.3333,185.167 33.3333,167.833 34,150.5C 34.7172,149.956 35.2172,149.289 35.5,148.5 Z"/></g>
<g><path style="opacity:1" fill="#036e49" d="M 40.5,152.5 C 40.5,160.5 40.5,168.5 40.5,176.5C 38.8333,176.5 37.1667,176.5 35.5,176.5C 35.5,168.167 35.5,159.833 35.5,151.5C 36.0968,150.861 36.9302,150.528 38,150.5C 39.3756,150.684 40.2089,151.351 40.5,152.5 Z"/></g>
<g><path style="opacity:1" fill="#bbdcd4" d="M 80.5,148.5 C 83.368,148.085 85.5347,149.085 87,151.5C 87.6667,168.5 87.6667,185.5 87,202.5C 84,205.167 81,205.167 78,202.5C 77.3333,185.5 77.3333,168.5 78,151.5C 79.045,150.627 79.8783,149.627 80.5,148.5 Z"/></g>
<g><path style="opacity:1" fill="#036d4a" d="M 80.5,150.5 C 82.1439,150.286 83.6439,150.62 85,151.5C 85.4999,163.829 85.6665,176.162 85.5,188.5C 83.5,188.5 81.5,188.5 79.5,188.5C 79.1869,175.754 79.5202,163.087 80.5,150.5 Z"/></g>
<g><path style="opacity:1" fill="#046f4a" d="M 165.5,157.5 C 165.5,164.5 165.5,171.5 165.5,178.5C 150.167,178.5 134.833,178.5 119.5,178.5C 119.5,171.167 119.5,163.833 119.5,156.5C 118.5,156.5 117.5,156.5 116.5,156.5C 116.5,155.5 116.5,154.5 116.5,153.5C 133.833,153.5 151.167,153.5 168.5,153.5C 168.5,154.5 168.5,155.5 168.5,156.5C 167.209,156.263 166.209,156.596 165.5,157.5 Z"/></g>
<g><path style="opacity:1" fill="#197b59" d="M 672.5,152.5 C 674.574,153.514 676.574,154.514 678.5,155.5C 674.595,156.965 673.928,159.298 676.5,162.5C 675.872,164.258 674.872,165.758 673.5,167C 676.119,167.151 678.453,167.985 680.5,169.5C 680.167,170.167 679.833,170.833 679.5,171.5C 681.045,172.452 682.712,172.785 684.5,172.5C 684.649,173.552 684.483,174.552 684,175.5C 678.333,180.833 672.667,186.167 667,191.5C 666.517,192.448 666.351,193.448 666.5,194.5C 666.672,195.492 666.338,196.158 665.5,196.5C 665.322,190.955 665.822,185.621 667,180.5C 665.412,178.032 663.578,177.866 661.5,180C 660.199,181.616 660.199,183.116 661.5,184.5C 662.787,188.268 662.787,191.935 661.5,195.5C 661.294,193.451 660.461,193.117 659,194.5C 658.365,195.966 657.531,197.3 656.5,198.5C 657.363,199.726 657.363,201.06 656.5,202.5C 656.565,202.938 656.399,203.272 656,203.5C 655.692,202.692 655.192,202.025 654.5,201.5C 651.5,203.667 648.5,205.833 645.5,208C 637.8,208.137 630.133,207.637 622.5,206.5C 623.702,201.765 625.702,197.432 628.5,193.5C 628.435,193.938 628.601,194.272 629,194.5C 630.743,192.679 632.243,190.679 633.5,188.5C 634.518,189.193 635.518,189.859 636.5,190.5C 637.5,191.833 638.5,191.833 639.5,190.5C 640.482,189.859 641.482,189.193 642.5,188.5C 643.861,190.028 645.028,191.695 646,193.5C 646.654,194.696 647.154,194.696 647.5,193.5C 647.484,189.777 645.984,186.443 643,183.5C 641.961,184.71 640.794,185.71 639.5,186.5C 639.365,180.386 640.031,174.386 641.5,168.5C 642.117,168.611 642.617,168.944 643,169.5C 644.412,167.548 646.245,166.215 648.5,165.5C 646.667,167.496 646.167,169.829 647,172.5C 647.748,170.249 649.248,168.916 651.5,168.5C 652.26,170.985 653.26,170.985 654.5,168.5C 656.624,169.031 658.124,170.365 659,172.5C 659.707,169.239 658.707,166.572 656,164.5C 655.292,165.381 654.458,166.047 653.5,166.5C 653.194,163.615 653.527,160.948 654.5,158.5C 654.343,159.873 654.51,161.207 655,162.5C 660.345,157.922 666.179,154.589 672.5,152.5 Z"/></g>
<g><path style="opacity:1" fill="#ddf1ed" d="M 168.5,158.5 C 167.791,157.596 166.791,157.263 165.5,157.5C 166.209,156.596 167.209,156.263 168.5,156.5C 168.5,155.5 168.5,154.5 168.5,153.5C 151.167,153.5 133.833,153.5 116.5,153.5C 116.5,154.5 116.5,155.5 116.5,156.5C 117.5,156.5 118.5,156.5 119.5,156.5C 119.5,163.833 119.5,171.167 119.5,178.5C 119.5,179.167 119.833,179.5 120.5,179.5C 120.5,185.833 120.5,192.167 120.5,198.5C 119.833,198.5 119.5,198.833 119.5,199.5C 118.833,199.5 118.5,199.833 118.5,200.5C 117.833,186.661 117.167,172.661 116.5,158.5C 114.306,156.685 113.972,154.518 115.5,152C 133.5,151.333 151.5,151.333 169.5,152C 171.02,154.552 170.687,156.718 168.5,158.5 Z"/></g>
<g><path style="opacity:1" fill="#f0f8f6" d="M 210.5,198.5 C 210.5,197.5 210.5,196.5 210.5,195.5C 218.5,195.5 226.5,195.5 234.5,195.5C 234.5,196.5 234.5,197.5 234.5,198.5C 231.5,198.5 228.5,198.5 225.5,198.5C 225.5,201.5 225.5,204.5 225.5,207.5C 227.5,207.5 229.5,207.5 231.5,207.5C 231.5,208.5 231.5,209.5 231.5,210.5C 218.167,210.5 204.833,210.5 191.5,210.5C 191.5,209.5 191.5,208.5 191.5,207.5C 193.924,207.808 196.257,207.474 198.5,206.5C 198.376,205.893 198.043,205.56 197.5,205.5C 192.163,200.309 190.329,193.975 192,186.5C 194.465,180.371 198.631,175.871 204.5,173C 203.756,170.845 202.756,168.845 201.5,167C 204.575,162.96 208.575,161.46 213.5,162.5C 216.465,168.625 219.632,174.625 223,180.5C 222.89,184.129 222.724,187.796 222.5,191.5C 216.213,190.639 211.88,187.305 209.5,181.5C 203.64,180.149 199.807,182.482 198,188.5C 197.343,200.176 202.843,205.342 214.5,204C 217.707,203.428 219.374,201.595 219.5,198.5C 216.5,198.5 213.5,198.5 210.5,198.5 Z"/></g>
<g><path style="opacity:1" fill="#f4f9f8" d="M 589.5,164.5 C 590.833,164.5 592.167,164.5 593.5,164.5C 594.901,170.368 593.068,174.702 588,177.5C 586.798,181.793 587.965,185.293 591.5,188C 595.53,188.326 599.53,188.326 603.5,188C 606.87,190.697 608.204,194.197 607.5,198.5C 606.167,198.5 604.833,198.5 603.5,198.5C 603.547,195.427 602.381,193.094 600,191.5C 581.87,201.601 572.87,196.268 573,175.5C 574.167,173 576,171.167 578.5,170C 581.961,169.865 585.294,170.199 588.5,171C 589.423,168.959 589.756,166.792 589.5,164.5 Z"/></g>
<g><path style="opacity:1" fill="#639b89" d="M 35.5,151.5 C 35.5,159.833 35.5,168.167 35.5,176.5C 37.1667,176.5 38.8333,176.5 40.5,176.5C 40.5,168.5 40.5,160.5 40.5,152.5C 41.8333,168.833 41.8333,185.167 40.5,201.5C 40.5,193.5 40.5,185.5 40.5,177.5C 38.8333,177.5 37.1667,177.5 35.5,177.5C 35.5,185.5 35.5,193.5 35.5,201.5C 34.1667,184.833 34.1667,168.167 35.5,151.5 Z"/></g>
<g><path style="opacity:1" fill="#83b9a8" d="M 654.5,168.5 C 654.167,167.833 653.833,167.167 653.5,166.5C 654.458,166.047 655.292,165.381 656,164.5C 658.707,166.572 659.707,169.239 659,172.5C 658.124,170.365 656.624,169.031 654.5,168.5 Z"/></g>
<g><path style="opacity:1" fill="#b8d8cf" d="M 65.5,152.5 C 65.1667,152.5 64.8333,152.5 64.5,152.5C 64.1667,152.5 63.8333,152.5 63.5,152.5C 62.0679,150.353 60.2345,150.02 58,151.5C 57.1826,157.016 57.3493,162.35 58.5,167.5C 58.3335,178.838 58.5001,190.172 59,201.5C 60.0113,202.337 61.1779,202.67 62.5,202.5C 61.1667,203.167 59.8333,203.833 58.5,204.5C 57.2101,203.942 56.3768,202.942 56,201.5C 55.3333,184.833 55.3333,168.167 56,151.5C 59.8594,147.247 63.0261,147.58 65.5,152.5 Z"/></g>
<g><path style="opacity:1" fill="#1e7455" d="M 209.5,164.5 C 210.675,164.281 211.675,164.614 212.5,165.5C 214.38,169.428 216.38,173.261 218.5,177C 218.37,178.059 217.87,178.892 217,179.5C 213.941,174.715 211.441,169.715 209.5,164.5 Z"/></g>
<g><path style="opacity:1" fill="#f2faf8" d="M 641.5,168.5 C 640.031,174.386 639.365,180.386 639.5,186.5C 639.5,187.833 639.5,189.167 639.5,190.5C 638.5,191.833 637.5,191.833 636.5,190.5C 636.5,189.167 636.5,187.833 636.5,186.5C 636.839,181.037 636.172,175.703 634.5,170.5C 635.836,166.165 638.169,165.498 641.5,168.5 Z"/></g>
<g><path style="opacity:1" fill="#88bcac" d="M 651.5,165.5 C 651.5,166.5 651.5,167.5 651.5,168.5C 649.248,168.916 647.748,170.249 647,172.5C 646.167,169.829 646.667,167.496 648.5,165.5C 649.348,164.375 650.348,164.375 651.5,165.5 Z"/></g>
<g><path style="opacity:1" fill="#daece7" d="M 654.5,158.5 C 653.527,160.948 653.194,163.615 653.5,166.5C 653.833,167.167 654.167,167.833 654.5,168.5C 653.26,170.985 652.26,170.985 651.5,168.5C 651.5,167.5 651.5,166.5 651.5,165.5C 651.354,161.481 651.021,157.481 650.5,153.5C 654.935,152.922 656.268,154.589 654.5,158.5 Z"/></g>
<g><path style="opacity:1" fill="#f6fbfa" d="M 58.5,167.5 C 60.1667,167.5 61.8333,167.5 63.5,167.5C 63.7913,179.217 63.458,190.884 62.5,202.5C 61.1779,202.67 60.0113,202.337 59,201.5C 58.5001,190.172 58.3335,178.838 58.5,167.5 Z"/></g>
<g><path style="opacity:1" fill="#dff0ec" d="M 678.5,155.5 C 676.574,154.514 674.574,153.514 672.5,152.5C 669.001,150.602 668.335,148.269 670.5,145.5C 671.584,146.665 672.417,147.998 673,149.5C 676.349,145.984 679.849,142.651 683.5,139.5C 683.5,137.167 683.5,134.833 683.5,132.5C 689.815,138.463 693.482,145.797 694.5,154.5C 701.243,154.269 707.577,155.769 713.5,159C 719.687,163.687 725.02,169.187 729.5,175.5C 728.635,176.583 727.635,176.749 726.5,176C 724.307,172.124 721.307,169.457 717.5,168C 713.73,171.097 710.73,174.764 708.5,179C 708.645,179.772 708.978,180.439 709.5,181C 712.363,182.399 715.363,183.399 718.5,184C 711.46,185.754 705.627,183.588 701,177.5C 697.385,170.656 694.551,163.49 692.5,156C 687.845,155.501 683.179,155.334 678.5,155.5 Z"/></g>
<g><path style="opacity:1" fill="#177251" d="M 711.5,161.5 C 713.886,162.373 715.886,163.873 717.5,166C 712.359,168.641 708.359,172.474 705.5,177.5C 702.856,176.259 702.023,174.259 703,171.5C 704.978,167.362 707.811,164.029 711.5,161.5 Z"/></g>
<g><path style="opacity:1" fill="#177251" d="M 695.5,157.5 C 700.613,155.972 705.279,156.972 709.5,160.5C 706.5,163.833 703.5,167.167 700.5,170.5C 698.668,166.124 697.002,161.791 695.5,157.5 Z"/></g>
<g><path style="opacity:1" fill="#72aa98" d="M 691.5,152.5 C 692.043,152.56 692.376,152.893 692.5,153.5C 689.355,154.803 686.355,154.803 683.5,153.5C 686.385,153.806 689.052,153.473 691.5,152.5 Z"/></g>
<g><path style="opacity:1" fill="#157250" d="M 691.5,152.5 C 689.052,153.473 686.385,153.806 683.5,153.5C 683.785,150.72 685.451,148.386 688.5,146.5C 690.553,147.939 691.553,149.939 691.5,152.5 Z"/></g>
<g><path style="opacity:1" fill="#1a7353" d="M 685.5,139.5 C 686.965,140.406 687.965,141.739 688.5,143.5C 685.312,145.854 682.645,148.688 680.5,152C 675.858,153.032 674.692,151.532 677,147.5C 680.333,145.333 683.166,142.666 685.5,139.5 Z"/></g>
<g><path style="opacity:1" fill="#bdded4" d="M 47.5,171.5 C 48.9311,172.082 50.2644,172.915 51.5,174C 50.3333,174.5 49.5,175.333 49,176.5C 46.5274,175.26 46.0274,173.593 47.5,171.5 Z"/></g>
<g><path style="opacity:1" fill="#9abdb3" d="M 63.5,152.5 C 63.8333,152.5 64.1667,152.5 64.5,152.5C 64.6666,168.837 64.4999,185.17 64,201.5C 63.6174,202.056 63.1174,202.389 62.5,202.5C 63.458,190.884 63.7913,179.217 63.5,167.5C 63.5,162.5 63.5,157.5 63.5,152.5 Z"/></g>
<g><path style="opacity:1" fill="#c0e2d8" d="M 71.5,171.5 C 72.3094,172.469 73.3094,173.302 74.5,174C 73.3333,174.5 72.5,175.333 72,176.5C 71.1667,175.667 70.3333,174.833 69.5,174C 70.756,173.583 71.4226,172.75 71.5,171.5 Z"/></g>
<g><path style="opacity:1" fill="#ebfcfc" d="M 64.5,152.5 C 64.8333,152.5 65.1667,152.5 65.5,152.5C 65.6666,169.17 65.4999,185.837 65,202.5C 63.2111,204.229 61.0444,204.896 58.5,204.5C 59.8333,203.833 61.1667,203.167 62.5,202.5C 63.1174,202.389 63.6174,202.056 64,201.5C 64.4999,185.17 64.6666,168.837 64.5,152.5 Z"/></g>
<g><path style="opacity:1" fill="#f9fdfd" d="M 40.5,201.5 C 38.8333,202.833 37.1667,202.833 35.5,201.5C 35.5,193.5 35.5,185.5 35.5,177.5C 37.1667,177.5 38.8333,177.5 40.5,177.5C 40.5,185.5 40.5,193.5 40.5,201.5 Z"/></g>
<g><path style="opacity:1" fill="#635a3b" d="M 750.5,215.5 C 750.167,215.5 749.833,215.5 749.5,215.5C 750.15,200.129 749.484,185.129 747.5,170.5C 747.811,169.522 748.478,168.855 749.5,168.5C 750.499,184.152 750.833,199.819 750.5,215.5 Z"/></g>
<g><path style="opacity:1" fill="#fdfefe" d="M 120.5,179.5 C 135.167,179.5 149.833,179.5 164.5,179.5C 164.812,186.422 164.479,193.256 163.5,200C 149.5,200.667 135.5,200.667 121.5,200C 120.944,199.617 120.611,199.117 120.5,198.5C 120.5,192.167 120.5,185.833 120.5,179.5 Z"/></g>
<g><path style="opacity:1" fill="#e9f4f2" d="M 665.5,196.5 C 665.5,197.5 665.5,198.5 665.5,199.5C 664.167,194.5 662.833,189.5 661.5,184.5C 660.199,183.116 660.199,181.616 661.5,180C 663.578,177.866 665.412,178.032 667,180.5C 665.822,185.621 665.322,190.955 665.5,196.5 Z"/></g>
<g><path style="opacity:1" fill="#e6f5f2" d="M 165.5,157.5 C 166.791,157.263 167.791,157.596 168.5,158.5C 167.669,172.327 167.169,186.327 167,200.5C 166.167,201.333 165.333,202.167 164.5,203C 149.833,203.667 135.167,203.667 120.5,203C 119.619,202.292 118.953,201.458 118.5,200.5C 118.5,199.833 118.833,199.5 119.5,199.5C 119.611,200.117 119.944,200.617 120.5,201C 135.167,201.667 149.833,201.667 164.5,201C 165.481,193.587 165.814,186.087 165.5,178.5C 165.5,171.5 165.5,164.5 165.5,157.5 Z"/></g>
<g><path style="opacity:1" fill="#aed0c8" d="M 661.5,184.5 C 662.833,189.5 664.167,194.5 665.5,199.5C 664.053,200.885 663.053,200.552 662.5,198.5C 662.443,197.391 662.11,196.391 661.5,195.5C 662.787,191.935 662.787,188.268 661.5,184.5 Z"/></g>
<g><path style="opacity:1" fill="#fbfcfc" d="M 80.5,189.5 C 81.8333,189.5 83.1667,189.5 84.5,189.5C 84.6655,193.514 84.4988,197.514 84,201.5C 83,202.833 82,202.833 81,201.5C 80.5012,197.514 80.3345,193.514 80.5,189.5 Z"/></g>
<g><path style="opacity:1" fill="#6da996" d="M 636.5,186.5 C 636.5,187.833 636.5,189.167 636.5,190.5C 635.518,189.859 634.518,189.193 633.5,188.5C 632.243,190.679 630.743,192.679 629,194.5C 628.601,194.272 628.435,193.938 628.5,193.5C 628.45,190.057 629.784,186.89 632.5,184C 634.082,184.193 635.416,185.026 636.5,186.5 Z"/></g>
<g><path style="opacity:1" fill="#72ae9b" d="M 639.5,190.5 C 639.5,189.167 639.5,187.833 639.5,186.5C 640.794,185.71 641.961,184.71 643,183.5C 645.984,186.443 647.484,189.777 647.5,193.5C 647.154,194.696 646.654,194.696 646,193.5C 645.028,191.695 643.861,190.028 642.5,188.5C 641.482,189.193 640.482,189.859 639.5,190.5 Z"/></g>
<g><path style="opacity:1" fill="#415834" d="M 742.5,215.5 C 733.014,216.494 723.348,216.827 713.5,216.5C 713.5,216.167 713.5,215.833 713.5,215.5C 722.833,215.5 732.167,215.5 741.5,215.5C 742.138,206.105 741.471,197.105 739.5,188.5C 739.811,187.522 740.478,186.855 741.5,186.5C 742.498,196.144 742.832,205.81 742.5,215.5 Z"/></g>
<g><path style="opacity:1" fill="#5e9d88" d="M 234.5,195.5 C 226.5,195.5 218.5,195.5 210.5,195.5C 210.5,196.5 210.5,197.5 210.5,198.5C 209.566,197.432 209.232,196.099 209.5,194.5C 218.017,194.174 226.35,194.507 234.5,195.5 Z"/></g>
<g><path style="opacity:1" fill="#69a995" d="M 665.5,199.5 C 665.5,198.5 665.5,197.5 665.5,196.5C 666.338,196.158 666.672,195.492 666.5,194.5C 667.15,194.196 667.817,193.863 668.5,193.5C 672.081,195.98 673.248,199.314 672,203.5C 670.667,201.5 669.333,199.5 668,197.5C 667.292,198.381 666.458,199.047 665.5,199.5 Z"/></g>
<g><path style="opacity:1" fill="#72af9c" d="M 661.5,195.5 C 662.11,196.391 662.443,197.391 662.5,198.5C 661.448,198.351 660.448,198.517 659.5,199C 658.837,200.518 657.837,201.685 656.5,202.5C 657.363,201.06 657.363,199.726 656.5,198.5C 657.531,197.3 658.365,195.966 659,194.5C 660.461,193.117 661.294,193.451 661.5,195.5 Z"/></g>
<g><path style="opacity:1" fill="#84ada0" d="M 119.5,178.5 C 134.833,178.5 150.167,178.5 165.5,178.5C 165.814,186.087 165.481,193.587 164.5,201C 149.833,201.667 135.167,201.667 120.5,201C 119.944,200.617 119.611,200.117 119.5,199.5C 119.5,198.833 119.833,198.5 120.5,198.5C 120.611,199.117 120.944,199.617 121.5,200C 135.5,200.667 149.5,200.667 163.5,200C 164.479,193.256 164.812,186.422 164.5,179.5C 149.833,179.5 135.167,179.5 120.5,179.5C 119.833,179.5 119.5,179.167 119.5,178.5 Z"/></g>
<g><path style="opacity:1" fill="#8ebcad" d="M 197.5,205.5 C 198.043,205.56 198.376,205.893 198.5,206.5C 196.257,207.474 193.924,207.808 191.5,207.5C 193.5,206.833 195.5,206.167 197.5,205.5 Z"/></g>
<g><path style="opacity:1" fill="#735233" d="M 747.5,170.5 C 749.484,185.129 750.15,200.129 749.5,215.5C 747.167,215.5 744.833,215.5 742.5,215.5C 742.832,205.81 742.498,196.144 741.5,186.5C 740.478,186.855 739.811,187.522 739.5,188.5C 730.806,197.527 722.139,206.527 713.5,215.5C 713.5,215.833 713.5,216.167 713.5,216.5C 709.936,215.577 706.269,215.244 702.5,215.5C 717.135,200.306 732.135,185.306 747.5,170.5 Z"/></g>
<g><path style="opacity:1" fill="#066d48" d="M 739.5,188.5 C 741.471,197.105 742.138,206.105 741.5,215.5C 732.167,215.5 722.833,215.5 713.5,215.5C 722.139,206.527 730.806,197.527 739.5,188.5 Z"/></g>
<g><path style="opacity:1" fill="#3c4c26" d="M 702.5,215.5 C 687.676,216.496 672.676,216.829 657.5,216.5C 657.802,219.059 657.468,221.393 656.5,223.5C 656.5,222.833 656.5,222.167 656.5,221.5C 656.5,221.167 656.5,220.833 656.5,220.5C 656.5,218.833 656.5,217.167 656.5,215.5C 671.833,215.5 687.167,215.5 702.5,215.5 Z"/></g>
<g><path style="opacity:1" fill="#5f3813" d="M 702.5,215.5 C 706.269,215.244 709.936,215.577 713.5,216.5C 723.348,216.827 733.014,216.494 742.5,215.5C 744.833,215.5 747.167,215.5 749.5,215.5C 749.833,215.5 750.167,215.5 750.5,215.5C 752.167,215.5 753.833,215.5 755.5,215.5C 755.5,218.167 755.5,220.833 755.5,223.5C 755.5,223.833 755.5,224.167 755.5,224.5C 755.5,228.167 755.5,231.833 755.5,235.5C 722.5,235.5 689.5,235.5 656.5,235.5C 656.5,231.833 656.5,228.167 656.5,224.5C 656.5,224.167 656.5,223.833 656.5,223.5C 657.468,221.393 657.802,219.059 657.5,216.5C 672.676,216.829 687.676,216.496 702.5,215.5 Z"/></g>
<g><path style="opacity:1" fill="#046746" d="M 16.5,13.5 C 16.5,82.5 16.5,151.5 16.5,220.5C 229.992,220.494 443.325,220.494 656.5,220.5C 656.5,220.833 656.5,221.167 656.5,221.5C 442.666,221.833 228.999,221.5 15.5,220.5C 15.8314,151.596 15.498,82.7623 14.5,14C 15.0944,13.5357 15.7611,13.369 16.5,13.5 Z"/></g>
<g><path style="opacity:1" fill="#225c3f" d="M 15.5,220.5 C 228.999,221.5 442.666,221.833 656.5,221.5C 656.5,222.167 656.5,222.833 656.5,223.5C 656.5,223.833 656.5,224.167 656.5,224.5C 441.666,224.833 226.999,224.5 12.5,223.5C 13.8999,222.9 14.8999,221.9 15.5,220.5 Z"/></g>
</svg>
