<?xml version="1.0" encoding="UTF-8"?>
<!DOCTYPE svg PUBLIC "-//W3C//DTD SVG 1.1//EN" "http://www.w3.org/Graphics/SVG/1.1/DTD/svg11.dtd">
<svg xmlns="http://www.w3.org/2000/svg" version="1.1" width="1604px" height="470px" style="shape-rendering:geometricPrecision; text-rendering:geometricPrecision; image-rendering:optimizeQuality; fill-rule:evenodd; clip-rule:evenodd" xmlns:xlink="http://www.w3.org/1999/xlink">
<g><path style="opacity:1" fill="#8a5d3c" d="M -0.5,-0.5 C 534.167,-0.5 1068.83,-0.5 1603.5,-0.5C 1603.5,156.167 1603.5,312.833 1603.5,469.5C 1163.5,469.5 723.5,469.5 283.5,469.5C 283.5,462.5 283.5,455.5 283.5,448.5C 283.833,448.5 284.167,448.5 284.5,448.5C 285.263,449.268 286.263,449.768 287.5,450C 502.833,450.167 718.167,450.333 933.5,450.5C 1148.83,450.333 1364.17,450.167 1579.5,450C 1580.06,449.617 1580.39,449.117 1580.5,448.5C 1581.17,305.163 1580.5,162.163 1578.5,19.5C 1062,18.5001 545.334,18.1668 28.5,18.5C 28.0825,17.7784 27.4158,17.2784 26.5,17C 544.171,16.8246 1061.84,16.3246 1579.5,15.5C 1579.54,11.0713 1578.04,10.0713 1575,12.5C 1573.77,11.8922 1572.44,11.5589 1571,11.5C 1057.21,13.3303 543.381,14.1636 29.5,14C 28.9747,14.6924 28.3081,15.1924 27.5,15.5C 26.3887,14.3887 25.0554,13.722 23.5,13.5C 20.9906,14.8365 18.324,15.6698 15.5,16C 17.0441,16.2896 18.3774,16.9563 19.5,18C 18.5697,19.1939 17.9031,20.5272 17.5,22C 18.8319,161.375 18.8319,300.709 17.5,440C 18.0442,440.717 18.7109,441.217 19.5,441.5C 19.2155,443.415 19.5489,445.081 20.5,446.5C 20.6107,447.117 20.944,447.617 21.5,448C 42.8307,448.5 64.1641,448.667 85.5,448.5C 85.5,455.5 85.5,462.5 85.5,469.5C 56.8333,469.5 28.1667,469.5 -0.5,469.5C -0.5,312.833 -0.5,156.167 -0.5,-0.5 Z"/></g>
<g><path style="opacity:1" fill="#885e3c" d="M 28.5,18.5 C 26.2655,18.6199 24.0989,18.2865 22,17.5C 21.0546,17.9054 20.3879,18.572 20,19.5C 19.5,160.166 19.3333,300.833 19.5,441.5C 18.7109,441.217 18.0442,440.717 17.5,440C 18.8319,300.709 18.8319,161.375 17.5,22C 17.9031,20.5272 18.5697,19.1939 19.5,18C 18.3774,16.9563 17.0441,16.2896 15.5,16C 18.324,15.6698 20.9906,14.8365 23.5,13.5C 25.0554,13.722 26.3887,14.3887 27.5,15.5C 28.3081,15.1924 28.9747,14.6924 29.5,14C 543.381,14.1636 1057.21,13.3303 1571,11.5C 1572.44,11.5589 1573.77,11.8922 1575,12.5C 1578.04,10.0713 1579.54,11.0713 1579.5,15.5C 1061.84,16.3246 544.171,16.8246 26.5,17C 27.4158,17.2784 28.0825,17.7784 28.5,18.5 Z"/></g>
<g><path style="opacity:1" fill="#855f46" d="M 28.5,18.5 C 545.334,18.1668 1062,18.5001 1578.5,19.5C 1059.33,19.1668 540.333,19.5001 21.5,20.5C 20.5004,162.332 20.1671,304.332 20.5,446.5C 19.5489,445.081 19.2155,443.415 19.5,441.5C 19.3333,300.833 19.5,160.166 20,19.5C 20.3879,18.572 21.0546,17.9054 22,17.5C 24.0989,18.2865 26.2655,18.6199 28.5,18.5 Z"/></g>
<g><path style="opacity:1" fill="#413736" d="M 23.5,21.5 C 23.5,21.1667 23.5,20.8333 23.5,20.5C 542.167,20.5 1060.83,20.5 1579.5,20.5C 1579.83,163.001 1579.5,305.334 1578.5,447.5C 1578.5,305.5 1578.5,163.5 1578.5,21.5C 1060.26,21.5036 541.926,21.5036 23.5,21.5 Z"/></g>
<g><path style="opacity:1" fill="#39393b" d="M 23.5,21.5 C 541.926,21.5036 1060.26,21.5036 1578.5,21.5C 1578.5,163.5 1578.5,305.5 1578.5,447.5C 1577.5,447.5 1576.5,447.5 1575.5,447.5C 1575.29,445.616 1574.29,444.283 1572.5,443.5C 1569.79,445.26 1566.79,445.927 1563.5,445.5C 1141.05,445.665 718.387,445.498 295.5,445C 292.008,445.07 289.008,444.237 286.5,442.5C 715.833,442.5 1145.17,442.5 1574.5,442.5C 1574.67,303.166 1574.5,163.833 1574,24.5C 1059.43,25.166 544.261,25.8327 28.5,26.5C 28.5,165.167 28.5,303.833 28.5,442.5C 47.1667,442.5 65.8333,442.5 84.5,442.5C 84.5,443.833 84.5,445.167 84.5,446.5C 63.667,446.448 43.0003,446.448 22.5,446.5C 22.1671,304.666 22.5004,162.999 23.5,21.5 Z"/></g>
<g><path style="opacity:1" fill="#52423a" d="M 21.5,20.5 C 22.1667,20.5 22.8333,20.5 23.5,20.5C 23.5,20.8333 23.5,21.1667 23.5,21.5C 22.5004,162.999 22.1671,304.666 22.5,446.5C 43.0003,446.448 63.667,446.448 84.5,446.5C 84.5,445.167 84.5,443.833 84.5,442.5C 84.7935,438.563 84.4601,434.73 83.5,431C 87.2968,429.576 91.2968,429.076 95.5,429.5C 95.5,429.833 95.5,430.167 95.5,430.5C 92.2356,431.324 88.9023,431.658 85.5,431.5C 85.5,437.167 85.5,442.833 85.5,448.5C 64.1641,448.667 42.8307,448.5 21.5,448C 20.944,447.617 20.6107,447.117 20.5,446.5C 20.1671,304.332 20.5004,162.332 21.5,20.5 Z"/></g>
<g><path style="opacity:1" fill="#404042" d="M 286.5,442.5 C 286.57,438.575 285.903,434.909 284.5,431.5C 254.517,429.673 224.183,428.839 193.5,429C 189.816,425.696 186.482,422.196 183.5,418.5C 224.003,418.832 264.337,418.499 304.5,417.5C 304.5,416.167 304.5,414.833 304.5,413.5C 278.833,413.5 253.167,413.5 227.5,413.5C 227.665,409.818 227.499,406.152 227,402.5C 226,401.167 225,401.167 224,402.5C 223.501,406.152 223.335,409.818 223.5,413.5C 207.833,413.5 192.167,413.5 176.5,413.5C 175.5,413.5 174.5,413.5 173.5,413.5C 173.191,410.654 171.525,409.154 168.5,409C 169.451,408.282 169.617,407.449 169,406.5C 162.02,400.502 155.686,394.502 150,388.5C 147.562,389.866 147.062,389.366 148.5,387C 142.804,380.306 136.804,373.973 130.5,368C 129.552,367.517 128.552,367.351 127.5,367.5C 127.649,366.448 127.483,365.448 127,364.5C 119.493,358.326 112.66,351.493 106.5,344C 105.207,343.51 103.873,343.343 102.5,343.5C 102.5,342.167 102.5,340.833 102.5,339.5C 100.084,339.039 98.2502,337.706 97,335.5C 95.9701,335.836 95.4701,336.503 95.5,337.5C 91.1539,337.334 86.8206,337.501 82.5,338C 81.1667,339 81.1667,340 82.5,341C 86.8206,341.499 91.1539,341.666 95.5,341.5C 95.5,365.5 95.5,389.5 95.5,413.5C 88.1667,413.5 80.8333,413.5 73.5,413.5C 73.5,371.833 73.5,330.167 73.5,288.5C 78.1667,288.5 82.8333,288.5 87.5,288.5C 87.5,287.5 87.5,286.5 87.5,285.5C 82.8333,285.5 78.1667,285.5 73.5,285.5C 73.5,259.167 73.5,232.833 73.5,206.5C 72.4324,205.566 71.099,205.232 69.5,205.5C 69.1675,275.669 69.5008,345.669 70.5,415.5C 78.5637,417.422 86.897,418.088 95.5,417.5C 95.5,421.5 95.5,425.5 95.5,429.5C 91.2968,429.076 87.2968,429.576 83.5,431C 84.4601,434.73 84.7935,438.563 84.5,442.5C 65.8333,442.5 47.1667,442.5 28.5,442.5C 28.5,303.833 28.5,165.167 28.5,26.5C 544.261,25.8327 1059.43,25.166 1574,24.5C 1574.5,163.833 1574.67,303.166 1574.5,442.5C 1145.17,442.5 715.833,442.5 286.5,442.5 Z"/></g>
<g><path style="opacity:1" fill="#ececed" d="M 1417.5,45.5 C 1418.5,45.5 1419.5,45.5 1420.5,45.5C 1420.34,48.1873 1420.5,50.854 1421,53.5C 1422.69,56.6438 1423.86,59.9771 1424.5,63.5C 1426.48,62.018 1428.32,60.3513 1430,58.5C 1428.62,64.5626 1424.62,67.5626 1418,67.5C 1416.03,67.6906 1414.53,67.024 1413.5,65.5C 1414.53,64.548 1415.7,64.548 1417,65.5C 1418.26,65.2409 1419.26,64.5742 1420,63.5C 1420.39,60.3154 1419.72,57.3154 1418,54.5C 1417,56.5 1416,58.5 1415,60.5C 1414.11,61.7112 1413.27,61.7112 1412.5,60.5C 1415.71,56.0384 1417.38,51.0384 1417.5,45.5 Z"/></g>
<g><path style="opacity:1" fill="#f4f4f4" d="M 272.5,53.5 C 308.835,53.3333 345.168,53.5 381.5,54C 398.878,57.943 407.878,68.7763 408.5,86.5C 408.344,104.832 399.344,116.332 381.5,121C 345.5,121.667 309.5,121.667 273.5,121C 251.007,113.185 242.84,97.6846 249,74.5C 253.597,63.7295 261.43,56.7295 272.5,53.5 Z"/></g>
<g><path style="opacity:1" fill="#ebebec" d="M 1389.5,48.5 C 1395.33,48.6223 1396.67,50.9556 1393.5,55.5C 1393.33,53.8827 1393,52.216 1392.5,50.5C 1389.58,52.3335 1388.25,55.0002 1388.5,58.5C 1388.62,63.6329 1390.95,64.7996 1395.5,62C 1397.96,59.5925 1399.79,56.7591 1401,53.5C 1403.4,49.3127 1406.4,48.646 1410,51.5C 1412.17,58.4808 1410.01,63.4808 1403.5,66.5C 1401.13,65.6314 1399.63,63.9647 1399,61.5C 1394.8,65.858 1390.13,66.5247 1385,63.5C 1383.38,57.4752 1384.88,52.4752 1389.5,48.5 Z"/></g>
<g><path style="opacity:1" fill="#48484a" d="M 1405.5,52.5 C 1407.95,52.8743 1408.95,54.3743 1408.5,57C 1408.81,60.2149 1407.48,62.3816 1404.5,63.5C 1403.01,62.6519 1402.34,61.3186 1402.5,59.5C 1403.03,56.9709 1404.03,54.6376 1405.5,52.5 Z"/></g>
<g><path style="opacity:1" fill="#414142" d="M 379.5,116.5 C 377.94,114.844 376.94,112.844 376.5,110.5C 374.692,111.918 374.025,113.918 374.5,116.5C 342.167,116.5 309.833,116.5 277.5,116.5C 277.784,114.585 277.451,112.919 276.5,111.5C 276.44,110.957 276.107,110.624 275.5,110.5C 274.534,112.396 274.201,114.396 274.5,116.5C 256.348,110.891 248.848,98.5573 252,79.5C 255.519,66.9779 263.686,59.8112 276.5,58C 293,57.8333 309.5,57.6667 326,57.5C 343.498,57.8535 360.832,57.8535 378,57.5C 397.482,61.6535 406.149,73.6535 404,93.5C 400.827,106.507 392.66,114.174 379.5,116.5 Z"/></g>
<g><path style="opacity:1" fill="#f5f5f6" d="M 274.5,63.5 C 275.777,64.6936 276.444,66.3603 276.5,68.5C 276.167,70.1667 275.833,71.8333 275.5,73.5C 274.513,70.2317 274.18,66.8984 274.5,63.5 Z"/></g>
<g><path style="opacity:1" fill="#e0e0e2" d="M 1244.5,68.5 C 1246,68.4148 1247,69.0815 1247.5,70.5C 1246.68,72.1112 1245.35,72.7778 1243.5,72.5C 1243.43,71.0413 1243.77,69.7079 1244.5,68.5 Z"/></g>
<g><path style="opacity:1" fill="#c9c9cb" d="M 374.5,63.5 C 375.5,63.5 376.5,63.5 377.5,63.5C 377.5,66.8333 377.5,70.1667 377.5,73.5C 376.5,73.5 375.5,73.5 374.5,73.5C 374.5,70.1667 374.5,66.8333 374.5,63.5 Z"/></g>
<g><path style="opacity:1" fill="#eeeeef" d="M 75.5,72.5 C 82.3367,71.4913 86.1701,74.4913 87,81.5C 89.128,78.3699 91.628,75.5366 94.5,73C 95.635,72.2506 96.635,72.4173 97.5,73.5C 96.4717,75.3615 94.9717,76.6948 93,77.5C 90.7574,80.0745 88.924,82.9078 87.5,86C 88.4199,91.3432 90.7533,95.8432 94.5,99.5C 92.4232,102.119 90.2565,102.119 88,99.5C 86.4725,96.5833 85.1392,93.5833 84,90.5C 81.1667,94 78.3333,97.5 75.5,101C 72.6891,103.331 71.1891,102.831 71,99.5C 76.6359,96.4216 80.8025,91.9216 83.5,86C 83.0574,82.9209 82.0574,80.0876 80.5,77.5C 77.2363,76.5843 74.2363,76.5843 71.5,77.5C 72.8569,75.8144 74.1902,74.1477 75.5,72.5 Z"/></g>
<g><path style="opacity:1" fill="#e5e5e6" d="M 100.5,72.5 C 105.501,71.6714 107.668,73.6714 107,78.5C 105.167,80.3333 103.333,82.1667 101.5,84C 103.392,84.9734 105.392,85.6401 107.5,86C 106.975,86.6924 106.308,87.1924 105.5,87.5C 102.891,86.7695 100.224,86.2695 97.5,86C 101.767,83.2555 104.101,79.4221 104.5,74.5C 101.762,73.9648 99.9282,74.9648 99,77.5C 98.3872,75.5048 98.8872,73.8381 100.5,72.5 Z"/></g>
<g><path style="opacity:1" fill="#eeeeef" d="M 1228.5,69.5 C 1229.5,69.5 1230.5,69.5 1231.5,69.5C 1231.34,72.1873 1231.5,74.854 1232,77.5C 1233.85,80.5687 1234.85,83.9021 1235,87.5C 1238.96,84.8707 1241.3,81.2041 1242,76.5C 1243.01,75.6634 1244.18,75.33 1245.5,75.5C 1244.39,79.5065 1244.39,83.5065 1245.5,87.5C 1250.73,83.9786 1253.23,78.9786 1253,72.5C 1254.01,71.6634 1255.18,71.33 1256.5,71.5C 1256.25,74.214 1256.08,76.8806 1256,79.5C 1257.59,76.3995 1260.09,74.7328 1263.5,74.5C 1263.18,78.5546 1263.51,82.5546 1264.5,86.5C 1267.19,84.644 1269.36,82.3106 1271,79.5C 1271.02,84.1667 1268.68,87.1667 1264,88.5C 1262.74,88.2409 1261.74,87.5742 1261,86.5C 1260.67,83.8333 1260.33,81.1667 1260,78.5C 1256.91,82.362 1254.08,86.362 1251.5,90.5C 1250.72,89.2713 1250.22,87.938 1250,86.5C 1246.11,90.8032 1242.95,90.4698 1240.5,85.5C 1236.07,91.0754 1230.74,92.4087 1224.5,89.5C 1232.06,88.6446 1233.56,84.978 1229,78.5C 1228.07,81.3616 1226.4,83.695 1224,85.5C 1223.78,83.5804 1224.45,81.9137 1226,80.5C 1226.97,76.8269 1227.81,73.1602 1228.5,69.5 Z"/></g>
<g><path style="opacity:1" fill="#efeff0" d="M 171.5,72.5 C 172.5,72.5 173.5,72.5 174.5,72.5C 172.801,79.7479 172.301,87.0812 173,94.5C 173.561,95.0219 174.228,95.3552 175,95.5C 176.944,94.5606 178.611,93.2273 180,91.5C 183.347,85.8118 185.847,79.8118 187.5,73.5C 188.5,73.5 189.5,73.5 190.5,73.5C 190.577,85.0981 188.077,96.0981 183,106.5C 179.043,111.27 174.877,111.603 170.5,107.5C 170.833,107.167 171.167,106.833 171.5,106.5C 174.376,109.08 177.21,109.08 180,106.5C 182.777,100.389 184.444,94.0557 185,87.5C 183.032,91.9215 180.198,95.7548 176.5,99C 173.975,99.8959 171.808,99.3959 170,97.5C 167.72,88.976 168.22,80.6427 171.5,72.5 Z"/></g>
<g><path style="opacity:1" fill="#f5f5f7" d="M 274.5,79.5 C 275.777,80.6936 276.444,82.3603 276.5,84.5C 276.167,86.1667 275.833,87.8333 275.5,89.5C 274.513,86.2317 274.18,82.8984 274.5,79.5 Z"/></g>
<g><path style="opacity:1" fill="#cbcbcd" d="M 374.5,79.5 C 375.5,79.5 376.5,79.5 377.5,79.5C 377.665,82.5184 377.498,85.5184 377,88.5C 376.586,88.9574 376.086,89.2907 375.5,89.5C 374.513,86.2317 374.18,82.8984 374.5,79.5 Z"/></g>
<g><path style="opacity:1" fill="#cfcfd1" d="M 121.5,90.5 C 126.214,90.1734 130.88,90.5067 135.5,91.5C 133.167,91.8333 130.833,92.1667 128.5,92.5C 125.731,92.4714 123.397,91.8048 121.5,90.5 Z"/></g>
<g><path style="opacity:1" fill="#efeff0" d="M 478.5,91.5 C 479.978,91.238 481.311,91.5713 482.5,92.5C 481.194,93.9122 480.36,95.5789 480,97.5C 479,102.5 478,107.5 477,112.5C 476.411,114.863 474.911,115.863 472.5,115.5C 473.723,109.992 475.056,104.492 476.5,99C 476.333,98.5 476.167,98 476,97.5C 474.428,99.5628 472.595,100.229 470.5,99.5C 473.494,97.1727 476.161,94.5061 478.5,91.5 Z"/></g>
<g><path style="opacity:1" fill="#dcdcde" d="M 121.5,94.5 C 126.214,94.1734 130.88,94.5067 135.5,95.5C 133.167,95.8333 130.833,96.1667 128.5,96.5C 125.731,96.4714 123.397,95.8048 121.5,94.5 Z"/></g>
<g><path style="opacity:1" fill="#f4f4f5" d="M 274.5,94.5 C 275.777,95.6936 276.444,97.3603 276.5,99.5C 276.167,101.167 275.833,102.833 275.5,104.5C 274.513,101.232 274.18,97.8984 274.5,94.5 Z"/></g>
<g><path style="opacity:1" fill="#d7d7d8" d="M 375.5,94.5 C 376.117,94.6107 376.617,94.944 377,95.5C 377.498,98.4816 377.665,101.482 377.5,104.5C 376.5,104.5 375.5,104.5 374.5,104.5C 374.253,101.061 374.586,97.728 375.5,94.5 Z"/></g>
<g><path style="opacity:1" fill="#f0f0f1" d="M 154.5,76.5 C 163.738,75.2264 166.905,78.8931 164,87.5C 161.317,90.0159 158.817,92.6826 156.5,95.5C 159.603,97.7037 162.937,98.0371 166.5,96.5C 167.594,97.868 167.26,99.0347 165.5,100C 160.089,99.6982 154.756,99.5315 149.5,99.5C 152.15,96.3489 154.984,93.3489 158,90.5C 160.823,87.2172 161.656,83.5505 160.5,79.5C 158.926,78.3691 157.259,78.2025 155.5,79C 153.981,80.3513 152.648,81.8513 151.5,83.5C 150.417,82.635 150.251,81.635 151,80.5C 152.376,79.2949 153.542,77.9616 154.5,76.5 Z"/></g>
<g><path style="opacity:1" fill="#eaeaeb" d="M 497.5,88.5 C 498.478,88.811 499.145,89.4777 499.5,90.5C 495.919,95.328 492.585,100.328 489.5,105.5C 491.044,107.446 493.044,107.946 495.5,107C 496.56,104.263 497.394,101.43 498,98.5C 499.185,96.4407 500.352,96.274 501.5,98C 500.313,100.724 499.647,103.557 499.5,106.5C 501.288,106.215 502.955,106.548 504.5,107.5C 502.667,109.05 500.501,110.05 498,110.5C 497.474,113.272 496.641,115.938 495.5,118.5C 494.223,115.966 494.223,113.466 495.5,111C 492.167,110.667 488.833,110.333 485.5,110C 484.941,109.275 484.608,108.442 484.5,107.5C 488.088,100.657 492.422,94.3232 497.5,88.5 Z"/></g>
<g><path style="opacity:1" fill="#ececed" d="M 445.5,92.5 C 454.489,92.2214 455.822,95.388 449.5,102C 456.578,102.74 459.411,106.573 458,113.5C 453.006,121.435 446.173,124.101 437.5,121.5C 441.532,120.775 445.532,119.942 449.5,119C 455.003,115.188 455.67,110.855 451.5,106C 448.556,105.03 445.556,104.196 442.5,103.5C 446.785,101.896 449.118,98.8964 449.5,94.5C 447.027,94.7991 444.86,95.7991 443,97.5C 442.5,97.1667 442,96.8333 441.5,96.5C 442.549,94.7844 443.882,93.4511 445.5,92.5 Z"/></g>
<g><path style="opacity:1" fill="#dcdcdd" d="M 463.5,110.5 C 464.5,110.5 465.5,110.5 466.5,110.5C 466.426,114.541 465.093,115.208 462.5,112.5C 462.863,111.817 463.196,111.15 463.5,110.5 Z"/></g>
<g><path style="opacity:1" fill="#a1a1a2" d="M 376.5,110.5 C 376.94,112.844 377.94,114.844 379.5,116.5C 378.791,117.404 377.791,117.737 376.5,117.5C 376.5,115.167 376.5,112.833 376.5,110.5 Z"/></g>
<g><path style="opacity:1" fill="#a1a1a1" d="M 276.5,111.5 C 277.451,112.919 277.784,114.585 277.5,116.5C 309.833,116.5 342.167,116.5 374.5,116.5C 342.004,117.498 309.338,117.832 276.5,117.5C 276.5,115.5 276.5,113.5 276.5,111.5 Z"/></g>
<g><path style="opacity:1" fill="#eeeeee" d="M 1514.5,87.5 C 1517.25,87.1866 1519.91,87.52 1522.5,88.5C 1522.29,89.086 1521.96,89.586 1521.5,90C 1499.62,93.6061 1477.62,94.6061 1455.5,93C 1446.44,97.0577 1440.61,103.891 1438,113.5C 1435.13,125.511 1432.13,137.511 1429,149.5C 1427.52,152.993 1425.52,153.326 1423,150.5C 1422,148.5 1421,146.5 1420,144.5C 1418.15,136.785 1416.15,129.119 1414,121.5C 1412.75,118.671 1411.25,116.005 1409.5,113.5C 1410.35,111.717 1411.68,111.217 1413.5,112C 1419.3,121.278 1422.46,131.444 1423,142.5C 1423.56,143.022 1424.23,143.355 1425,143.5C 1427.03,142.48 1428.36,140.813 1429,138.5C 1430.52,124.398 1434.52,111.065 1441,98.5C 1445.1,91.7812 1451.1,88.4478 1459,88.5C 1476.14,90.9323 1493.31,91.099 1510.5,89C 1512.06,88.79 1513.39,88.29 1514.5,87.5 Z"/></g>
<g><path style="opacity:1" fill="#eaeaeb" d="M 1500.5,113.5 C 1506.71,112.868 1510.04,115.701 1510.5,122C 1509.78,126.169 1508.28,130.003 1506,133.5C 1498.47,140.004 1493.64,138.504 1491.5,129C 1492.08,122.319 1495.08,117.152 1500.5,113.5 Z"/></g>
<g><path style="opacity:1" fill="#444446" d="M 1501.5,116.5 C 1505.58,116.081 1507.58,117.914 1507.5,122C 1507.3,128.253 1504.46,132.753 1499,135.5C 1497.74,135.241 1496.74,134.574 1496,133.5C 1494.44,126.648 1496.27,120.981 1501.5,116.5 Z"/></g>
<g><path style="opacity:1" fill="#ebebec" d="M 1457.5,114.5 C 1464.52,113.523 1468.18,116.523 1468.5,123.5C 1467.54,132.747 1463.04,139.747 1455,144.5C 1454.5,144.167 1454,143.833 1453.5,143.5C 1462.64,137.076 1465.64,128.576 1462.5,118C 1454.19,117.296 1451.86,120.629 1455.5,128C 1464.14,128.068 1464.47,129.235 1456.5,131.5C 1450.81,129.973 1448.98,126.306 1451,120.5C 1453.06,118.266 1455.23,116.266 1457.5,114.5 Z"/></g>
<g><path style="opacity:1" fill="#e9e9ea" d="M 1479.5,113.5 C 1485.94,112.94 1489.28,115.94 1489.5,122.5C 1488.79,132.05 1483.79,136.884 1474.5,137C 1469.3,127.675 1470.97,119.842 1479.5,113.5 Z"/></g>
<g><path style="opacity:1" fill="#434345" d="M 1480.5,116.5 C 1484.58,116.081 1486.58,117.914 1486.5,122C 1486.28,128.292 1483.45,132.792 1478,135.5C 1476.74,135.241 1475.74,134.574 1475,133.5C 1473.74,126.78 1475.57,121.113 1480.5,116.5 Z"/></g>
<g><path style="opacity:1" fill="#dcdcdd" d="M 1128.5,112.5 C 1176.17,112.5 1223.83,112.5 1271.5,112.5C 1261.1,140.369 1250.1,168.036 1238.5,195.5C 1191.17,196.5 1143.84,196.833 1096.5,196.5C 1096.34,194.801 1096.51,193.134 1097,191.5C 1108,165.342 1118.5,139.008 1128.5,112.5 Z"/></g>
<g><path style="opacity:1" fill="#404042" d="M 1235.5,115.5 C 1235.5,117.833 1235.5,120.167 1235.5,122.5C 1236.5,122.5 1237.5,122.5 1238.5,122.5C 1238.5,120.167 1238.5,117.833 1238.5,115.5C 1248.51,115.334 1258.51,115.5 1268.5,116C 1258.6,140.523 1248.6,165.023 1238.5,189.5C 1237.68,190.386 1236.68,190.719 1235.5,190.5C 1235.5,191.5 1235.5,192.5 1235.5,193.5C 1201.17,193.5 1166.83,193.5 1132.5,193.5C 1132.5,192.5 1132.5,191.5 1132.5,190.5C 1131.5,190.5 1130.5,190.5 1129.5,190.5C 1129.5,191.5 1129.5,192.5 1129.5,193.5C 1122.17,193.5 1114.83,193.5 1107.5,193.5C 1106.47,190.301 1104.8,187.468 1102.5,185C 1111.2,163.11 1120.03,141.277 1129,119.5C 1129.24,121.119 1130.07,122.119 1131.5,122.5C 1132.47,120.393 1132.8,118.059 1132.5,115.5C 1166.83,115.5 1201.17,115.5 1235.5,115.5 Z"/></g>
<g><path style="opacity:1" fill="#c9c9cb" d="M 1129.5,128.5 C 1130.5,128.414 1131.33,128.748 1132,129.5C 1132.5,132.482 1132.66,135.482 1132.5,138.5C 1131.5,138.5 1130.5,138.5 1129.5,138.5C 1129.5,135.167 1129.5,131.833 1129.5,128.5 Z"/></g>
<g><path style="opacity:1" fill="#cdcdcf" d="M 1235.5,115.5 C 1201.17,115.5 1166.83,115.5 1132.5,115.5C 1132.8,118.059 1132.47,120.393 1131.5,122.5C 1131.5,119.833 1131.5,117.167 1131.5,114.5C 1166.34,114.168 1201,114.502 1235.5,115.5 Z"/></g>
<g><path style="opacity:1" fill="#c9c9cb" d="M 1235.5,128.5 C 1236.5,128.5 1237.5,128.5 1238.5,128.5C 1238.5,131.833 1238.5,135.167 1238.5,138.5C 1237.5,138.5 1236.5,138.5 1235.5,138.5C 1235.5,135.167 1235.5,131.833 1235.5,128.5 Z"/></g>
<g><path style="opacity:1" fill="#f3f3f3" d="M 248.5,143.5 C 283.299,177.799 317.965,212.299 352.5,247C 317.502,247.5 282.502,247.667 247.5,247.5C 247.168,212.663 247.502,177.996 248.5,143.5 Z"/></g>
<g><path style="opacity:1" fill="#cacacc" d="M 1130.5,143.5 C 1131.12,143.611 1131.62,143.944 1132,144.5C 1132.9,148.033 1132.57,151.367 1131,154.5C 1129.18,150.941 1129.01,147.274 1130.5,143.5 Z"/></g>
<g><path style="opacity:1" fill="#414143" d="M 151.5,194.5 C 166.833,194.5 182.167,194.5 197.5,194.5C 197.5,197.167 197.5,199.833 197.5,202.5C 187.601,232.123 167.267,243.623 136.5,237C 110.423,224.672 101.257,204.505 109,176.5C 117.078,158.582 130.911,149.249 150.5,148.5C 150.17,164.009 150.504,179.342 151.5,194.5 Z"/></g>
<g><path style="opacity:1" fill="#a1a1a1" d="M 248.5,143.5 C 247.502,177.996 247.168,212.663 247.5,247.5C 246.17,212.664 246.17,177.664 247.5,142.5C 248.107,142.624 248.44,142.957 248.5,143.5 Z"/></g>
<g><path style="opacity:1" fill="#cfcfd1" d="M 253.5,137.5 C 261.196,136.87 268.196,138.703 274.5,143C 283.592,155.181 292.925,167.181 302.5,179C 306.206,181.593 310.206,182.593 314.5,182C 310.4,184.038 306.4,183.705 302.5,181C 293.327,171.482 285.494,160.982 279,149.5C 272.005,141.535 263.172,138.035 252.5,139C 253.056,138.617 253.389,138.117 253.5,137.5 Z"/></g>
<g><path style="opacity:1" fill="#d5d5d6" d="M 1235.5,144.5 C 1236.5,144.5 1237.5,144.5 1238.5,144.5C 1238.91,148.048 1238.41,151.381 1237,154.5C 1235.59,151.381 1235.09,148.048 1235.5,144.5 Z"/></g>
<g><path style="opacity:1" fill="#efefef" d="M 1340.5,67.5 C 1355.88,102.626 1370.88,137.96 1385.5,173.5C 1384.96,179.21 1381.96,183.043 1376.5,185C 1356.89,191.998 1336.89,193.331 1316.5,189C 1309.41,187.538 1303.24,184.372 1298,179.5C 1297.04,177.801 1296.54,175.967 1296.5,174C 1311.02,138.451 1325.69,102.951 1340.5,67.5 Z"/></g>
<g><path style="opacity:1" fill="#414143" d="M 1339.5,81.5 C 1342.05,81.5608 1343.55,82.8941 1344,85.5C 1355.09,111.464 1365.76,137.464 1376,163.5C 1365.33,159.018 1354.17,157.018 1342.5,157.5C 1342.5,154.833 1342.5,152.167 1342.5,149.5C 1341.5,149.5 1340.5,149.5 1339.5,149.5C 1339.5,151.833 1339.5,154.167 1339.5,156.5C 1334.2,157.177 1328.87,157.677 1323.5,158C 1317.42,159.37 1311.42,160.703 1305.5,162C 1316.72,135.068 1328.05,108.235 1339.5,81.5 Z"/></g>
<g><path style="opacity:1" fill="#cbcbcd" d="M 1339.5,133.5 C 1340.5,133.414 1341.33,133.748 1342,134.5C 1342.5,137.482 1342.66,140.482 1342.5,143.5C 1341.5,143.5 1340.5,143.5 1339.5,143.5C 1339.5,140.167 1339.5,136.833 1339.5,133.5 Z"/></g>
<g><path style="opacity:1" fill="#cbcbcd" d="M 1339.5,118.5 C 1340.5,118.5 1341.5,118.5 1342.5,118.5C 1342.66,121.518 1342.5,124.518 1342,127.5C 1341.59,127.957 1341.09,128.291 1340.5,128.5C 1339.51,125.232 1339.18,121.898 1339.5,118.5 Z"/></g>
<g><path style="opacity:1" fill="#ccccce" d="M 1339.5,102.5 C 1340.5,102.414 1341.33,102.748 1342,103.5C 1342.5,106.482 1342.66,109.482 1342.5,112.5C 1341.5,112.5 1340.5,112.5 1339.5,112.5C 1339.5,109.167 1339.5,105.833 1339.5,102.5 Z"/></g>
<g><path style="opacity:1" fill="#cececf" d="M 1339.5,87.5 C 1340.5,87.5 1341.5,87.5 1342.5,87.5C 1342.91,91.0479 1342.41,94.3812 1341,97.5C 1339.59,94.3812 1339.09,91.0479 1339.5,87.5 Z"/></g>
<g><path style="opacity:1" fill="#f1f1f2" d="M 161.5,137.5 C 182.477,139.635 196.643,150.635 204,170.5C 205.25,175.42 205.75,180.42 205.5,185.5C 189.5,185.5 173.5,185.5 157.5,185.5C 157.5,169.5 157.5,153.5 157.5,137.5C 158.833,137.5 160.167,137.5 161.5,137.5 Z"/></g>
<g><path style="opacity:1" fill="#414143" d="M 159.5,139.5 C 185.889,142.555 200.555,157.222 203.5,183.5C 188.833,183.5 174.167,183.5 159.5,183.5C 159.5,168.833 159.5,154.167 159.5,139.5 Z"/></g>
<g><path style="opacity:1" fill="#414143" d="M 252.5,153.5 C 282.686,183.186 312.686,213.019 342.5,243C 317.169,243.5 291.836,243.667 266.5,243.5C 266.5,238.167 266.5,232.833 266.5,227.5C 261.5,227.5 256.5,227.5 251.5,227.5C 251.169,202.661 251.502,177.994 252.5,153.5 Z"/></g>
<g><path style="opacity:1" fill="#424243" d="M 1324.5,161.5 C 1336.87,161.185 1349.21,161.685 1361.5,163C 1368.76,164.133 1375.1,167.133 1380.5,172C 1372.68,173.477 1372.68,174.977 1380.5,176.5C 1378.39,179.061 1375.73,180.894 1372.5,182C 1356.45,186.306 1340.12,187.639 1323.5,186C 1315.1,184.763 1307.6,181.596 1301,176.5C 1300.32,171.499 1302.48,168.332 1307.5,167C 1313.14,164.682 1318.8,162.849 1324.5,161.5 Z"/></g>
<g><path style="opacity:1" fill="#f4f4f4" d="M 416.5,159.5 C 427.081,158.808 436.414,161.808 444.5,168.5C 456.945,157.889 470.278,156.723 484.5,165C 498.344,176.911 501.178,191.077 493,207.5C 481.899,221.401 468.066,224.901 451.5,218C 449.023,216.357 446.69,214.524 444.5,212.5C 432.514,222.513 419.514,224.013 405.5,217C 390.354,204.573 387.52,189.739 397,172.5C 402.183,166.005 408.683,161.672 416.5,159.5 Z"/></g>
<g><path style="opacity:1" fill="#a0a0a0" d="M 252.5,153.5 C 251.502,177.994 251.169,202.661 251.5,227.5C 250.171,202.663 250.171,177.663 251.5,152.5C 252.107,152.624 252.44,152.957 252.5,153.5 Z"/></g>
<g><path style="opacity:1" fill="#414143" d="M 414.5,164.5 C 425.051,162.442 434.051,165.109 441.5,172.5C 433.576,184.509 433.576,196.509 441.5,208.5C 432.691,217.449 422.358,219.616 410.5,215C 395.175,205.018 391.675,191.852 400,175.5C 403.951,170.466 408.784,166.799 414.5,164.5 Z"/></g>
<g><path style="opacity:1" fill="#414143" d="M 458.5,164.5 C 475.558,161.747 487.058,168.414 493,184.5C 494.218,207.282 483.384,218.116 460.5,217C 455.393,215.554 451.06,212.888 447.5,209C 455.417,196.784 455.417,184.618 447.5,172.5C 450.665,169.09 454.332,166.423 458.5,164.5 Z"/></g>
<g><path style="opacity:1" fill="#e8e8ea" d="M 326.5,164.5 C 332.733,164.889 334.566,167.889 332,173.5C 328.573,176.256 325.907,179.59 324,183.5C 322.952,179.52 324.285,176.52 328,174.5C 330.121,171.543 329.954,168.876 327.5,166.5C 324.79,167.914 323.79,169.914 324.5,172.5C 322.836,169.09 323.503,166.423 326.5,164.5 Z"/></g>
<g><path style="opacity:1" fill="#d4d4d6" d="M 1129.5,159.5 C 1130.5,159.5 1131.5,159.5 1132.5,159.5C 1132.5,162.833 1132.5,166.167 1132.5,169.5C 1131.5,169.5 1130.5,169.5 1129.5,169.5C 1129.5,166.167 1129.5,162.833 1129.5,159.5 Z"/></g>
<g><path style="opacity:1" fill="#c7c7c8" d="M 1235.5,159.5 C 1236.5,159.5 1237.5,159.5 1238.5,159.5C 1238.5,162.833 1238.5,166.167 1238.5,169.5C 1237.5,169.5 1236.5,169.5 1235.5,169.5C 1235.5,166.167 1235.5,162.833 1235.5,159.5 Z"/></g>
<g><path style="opacity:1" fill="#cbcbcd" d="M 1340.5,164.5 C 1341.12,164.611 1341.62,164.944 1342,165.5C 1342.5,168.482 1342.66,171.482 1342.5,174.5C 1341.5,174.5 1340.5,174.5 1339.5,174.5C 1339.25,171.061 1339.59,167.728 1340.5,164.5 Z"/></g>
<g><path style="opacity:1" fill="#c9c9cb" d="M 1343.5,172.5 C 1346.83,172.5 1350.17,172.5 1353.5,172.5C 1353.5,173.5 1353.5,174.5 1353.5,175.5C 1350.17,175.5 1346.83,175.5 1343.5,175.5C 1343.5,174.5 1343.5,173.5 1343.5,172.5 Z"/></g>
<g><path style="opacity:1" fill="#ceced0" d="M 1359.5,172.5 C 1362.5,172.5 1365.5,172.5 1368.5,172.5C 1368.5,173.5 1368.5,174.5 1368.5,175.5C 1365.5,175.5 1362.5,175.5 1359.5,175.5C 1359.5,174.5 1359.5,173.5 1359.5,172.5 Z"/></g>
<g><path style="opacity:1" fill="#e9e9eb" d="M 146.5,145.5 C 146.082,146.222 145.416,146.722 144.5,147C 146.81,147.497 149.143,147.663 151.5,147.5C 151.5,163.167 151.5,178.833 151.5,194.5C 150.504,179.342 150.17,164.009 150.5,148.5C 130.911,149.249 117.078,158.582 109,176.5C 101.257,204.505 110.423,224.672 136.5,237C 167.267,243.623 187.601,232.123 197.5,202.5C 198.167,201.833 198.833,201.167 199.5,200.5C 191.894,230.584 172.561,244.084 141.5,241C 110.071,229.642 98.5714,207.809 107,175.5C 114.581,158.128 127.748,148.128 146.5,145.5 Z"/></g>
<g><path style="opacity:1" fill="#ccccce" d="M 1130.5,174.5 C 1131.12,174.611 1131.62,174.944 1132,175.5C 1132.5,178.482 1132.66,181.482 1132.5,184.5C 1131.5,184.5 1130.5,184.5 1129.5,184.5C 1129.25,181.061 1129.59,177.728 1130.5,174.5 Z"/></g>
<g><path style="opacity:1" fill="#d8d8da" d="M 1235.5,175.5 C 1236.5,175.5 1237.5,175.5 1238.5,175.5C 1238.5,178.5 1238.5,181.5 1238.5,184.5C 1237.5,184.5 1236.5,184.5 1235.5,184.5C 1235.5,181.5 1235.5,178.5 1235.5,175.5 Z"/></g>
<g><path style="opacity:1" fill="#8f8f90" d="M 159.5,139.5 C 159.5,154.167 159.5,168.833 159.5,183.5C 174.167,183.5 188.833,183.5 203.5,183.5C 188.676,184.496 173.676,184.829 158.5,184.5C 158.171,169.324 158.504,154.324 159.5,139.5 Z"/></g>
<g><path style="opacity:1" fill="#fdfdfd" d="M 146.5,145.5 C 148.5,145.5 150.5,145.5 152.5,145.5C 152.5,161.167 152.5,176.833 152.5,192.5C 168.167,192.5 183.833,192.5 199.5,192.5C 199.5,195.167 199.5,197.833 199.5,200.5C 198.833,201.167 198.167,201.833 197.5,202.5C 197.5,199.833 197.5,197.167 197.5,194.5C 182.167,194.5 166.833,194.5 151.5,194.5C 151.5,178.833 151.5,163.167 151.5,147.5C 149.143,147.663 146.81,147.497 144.5,147C 145.416,146.722 146.082,146.222 146.5,145.5 Z"/></g>
<g><path style="opacity:1" fill="#ceced0" d="M 161.5,137.5 C 160.167,137.5 158.833,137.5 157.5,137.5C 157.5,153.5 157.5,169.5 157.5,185.5C 173.5,185.5 189.5,185.5 205.5,185.5C 189.342,186.496 173.009,186.83 156.5,186.5C 156.5,169.833 156.5,153.167 156.5,136.5C 158.415,136.216 160.081,136.549 161.5,137.5 Z"/></g>
<g><path style="opacity:1" fill="#fcfcfd" d="M 322.5,186.5 C 324.337,186.639 324.67,187.306 323.5,188.5C 322.702,188.043 322.369,187.376 322.5,186.5 Z"/></g>
<g><path style="opacity:1" fill="#f4f4f4" d="M 796.5,187.5 C 803.831,187 807.331,190.333 807,197.5C 805.089,202.418 801.589,204.251 796.5,203C 791.931,200.459 790.431,196.625 792,191.5C 793.397,189.93 794.897,188.596 796.5,187.5 Z"/></g>
<g><path style="opacity:1" fill="#4b4b4d" d="M 1100.5,188.5 C 1103.3,188.967 1104.63,190.633 1104.5,193.5C 1102.83,193.5 1101.17,193.5 1099.5,193.5C 1099.63,191.784 1099.96,190.117 1100.5,188.5 Z"/></g>
<g><path style="opacity:1" fill="#f5f5f5" d="M 1424.5,192.5 C 1464.74,192.17 1504.91,192.503 1545,193.5C 1545.67,233.5 1545.67,273.5 1545,313.5C 1523.83,336 1502.67,358.5 1481.5,381C 1441.17,381.667 1400.83,381.667 1360.5,381C 1359.34,340.904 1359.17,300.738 1360,260.5C 1382.07,238.267 1403.57,215.6 1424.5,192.5 Z"/></g>
<g><path style="opacity:1" fill="#fefefe" d="M 638.5,204.5 C 630.5,204.5 622.5,204.5 614.5,204.5C 614.5,209.167 614.5,213.833 614.5,218.5C 620.5,218.5 626.5,218.5 632.5,218.5C 632.5,222.5 632.5,226.5 632.5,230.5C 626.5,230.5 620.5,230.5 614.5,230.5C 614.5,240.5 614.5,250.5 614.5,260.5C 609.5,260.5 604.5,260.5 599.5,260.5C 599.5,238.167 599.5,215.833 599.5,193.5C 612.5,193.5 625.5,193.5 638.5,193.5C 638.5,197.167 638.5,200.833 638.5,204.5 Z"/></g>
<g><path style="opacity:1" fill="#cfcfd1" d="M 1235.5,193.5 C 1192.83,194.833 1150.17,194.833 1107.5,193.5C 1114.83,193.5 1122.17,193.5 1129.5,193.5C 1129.5,192.5 1129.5,191.5 1129.5,190.5C 1130.5,190.5 1131.5,190.5 1132.5,190.5C 1132.5,191.5 1132.5,192.5 1132.5,193.5C 1166.83,193.5 1201.17,193.5 1235.5,193.5 Z"/></g>
<g><path style="opacity:1" fill="#d6d6d8" d="M 315.5,184.5 C 316.05,191.751 319.384,197.584 325.5,202C 336.229,208.728 346.396,216.228 356,224.5C 360.182,231.01 361.349,238.01 359.5,245.5C 360.02,238.029 358.187,231.029 354,224.5C 344.727,216.56 334.894,209.393 324.5,203C 320.153,199.663 316.986,195.496 315,190.5C 314.322,188.402 314.489,186.402 315.5,184.5 Z"/></g>
<g><path style="opacity:1" fill="#707072" d="M 1427.5,197.5 C 1464.33,196.336 1501.33,196.169 1538.5,197C 1537.96,197.717 1537.29,198.217 1536.5,198.5C 1500.34,197.502 1464,197.168 1427.5,197.5 Z"/></g>
<g><path style="opacity:1" fill="#414143" d="M 1427.5,197.5 C 1464,197.168 1500.34,197.502 1536.5,198.5C 1517.39,218.539 1498.39,238.705 1479.5,259C 1470.83,259.167 1462.17,259.333 1453.5,259.5C 1444.21,259.459 1435.04,258.793 1426,257.5C 1416.12,258.796 1406.12,259.463 1396,259.5C 1386.5,259.333 1377,259.167 1367.5,259C 1386.64,239.522 1405.48,219.689 1424,199.5C 1424.71,200.973 1425.88,201.64 1427.5,201.5C 1427.5,200.167 1427.5,198.833 1427.5,197.5 Z"/></g>
<g><path style="opacity:1" fill="#fefefe" d="M 73.5,206.5 C 73.5,232.833 73.5,259.167 73.5,285.5C 78.1667,285.5 82.8333,285.5 87.5,285.5C 87.5,286.5 87.5,287.5 87.5,288.5C 82.8333,288.5 78.1667,288.5 73.5,288.5C 73.5,330.167 73.5,371.833 73.5,413.5C 80.8333,413.5 88.1667,413.5 95.5,413.5C 95.5,414.833 95.5,416.167 95.5,417.5C 86.897,418.088 78.5637,417.422 70.5,415.5C 70.5,345.833 70.5,276.167 70.5,206.5C 71.5,206.5 72.5,206.5 73.5,206.5 Z"/></g>
<g><path style="opacity:1" fill="#414142" d="M 1483.5,372.5 C 1482.5,336.004 1482.17,299.337 1482.5,262.5C 1501.43,241.401 1520.93,220.734 1541,200.5C 1541.5,236.832 1541.67,273.165 1541.5,309.5C 1539.83,309.5 1538.17,309.5 1536.5,309.5C 1536.23,311.451 1536.89,312.951 1538.5,314C 1520.33,333.671 1501.99,353.171 1483.5,372.5 Z"/></g>
<g><path style="opacity:1" fill="#fcfcfc" d="M 697.5,260.5 C 697.5,244.167 697.5,227.833 697.5,211.5C 701.6,211.237 705.6,211.57 709.5,212.5C 709.56,213.043 709.893,213.376 710.5,213.5C 719.343,207.541 727.509,208.207 735,215.5C 735.862,217.087 736.529,218.754 737,220.5C 737.5,233.829 737.667,247.163 737.5,260.5C 732.833,260.5 728.167,260.5 723.5,260.5C 723.667,248.495 723.5,236.495 723,224.5C 719.818,220.943 716.318,220.609 712.5,223.5C 711.501,235.815 711.168,248.149 711.5,260.5C 706.833,260.5 702.167,260.5 697.5,260.5 Z"/></g>
<g><path style="opacity:1" fill="#f8f8f8" d="M 763.5,209.5 C 769.949,209.232 776.283,209.898 782.5,211.5C 782.099,214.748 781.432,217.915 780.5,221C 767.339,217.001 761.005,221.835 761.5,235.5C 760.932,250.647 767.765,255.313 782,249.5C 784.379,252.316 785.545,255.649 785.5,259.5C 755.592,266.421 742.758,254.754 747,224.5C 750.206,216.786 755.706,211.786 763.5,209.5 Z"/></g>
<g><path style="opacity:1" fill="#f9f9fa" d="M 830.5,210.5 C 850.622,207.373 861.289,215.873 862.5,236C 860.6,257.221 849.267,265.221 828.5,260C 816.3,251.08 812.467,239.247 817,224.5C 819.687,217.981 824.187,213.314 830.5,210.5 Z"/></g>
<g><path style="opacity:1" fill="#fdfdfd" d="M 892.5,209.5 C 901.198,208.264 907.365,211.597 911,219.5C 911.5,233.163 911.667,246.829 911.5,260.5C 906.833,260.5 902.167,260.5 897.5,260.5C 897.667,248.495 897.5,236.495 897,224.5C 893.941,220.863 890.441,220.53 886.5,223.5C 885.501,235.815 885.168,248.149 885.5,260.5C 880.833,260.5 876.167,260.5 871.5,260.5C 871.5,243.833 871.5,227.167 871.5,210.5C 875.5,210.5 879.5,210.5 883.5,210.5C 883.281,211.675 883.614,212.675 884.5,213.5C 887.259,212.121 889.925,210.787 892.5,209.5 Z"/></g>
<g><path style="opacity:1" fill="#f9f9f9" d="M 964.5,230.5 C 964.5,233.5 964.5,236.5 964.5,239.5C 954.652,239.173 944.986,239.506 935.5,240.5C 934.641,245.28 936.308,248.78 940.5,251C 947.556,251.397 954.556,250.897 961.5,249.5C 962.207,252.786 962.54,256.119 962.5,259.5C 954.246,261.217 945.913,261.717 937.5,261C 925.163,257.354 919.163,249.021 919.5,236C 920.043,217.123 929.71,208.456 948.5,210C 958.956,212.712 964.29,219.546 964.5,230.5 Z"/></g>
<g><path style="opacity:1" fill="#f9f9f9" d="M 985.5,209.5 C 992.602,209.251 999.602,209.918 1006.5,211.5C 1006.15,214.238 1005.48,216.904 1004.5,219.5C 998.561,219.678 992.561,219.845 986.5,220C 985.643,220.689 984.977,221.522 984.5,222.5C 988.733,226.22 993.4,229.387 998.5,232C 1007.59,237.994 1009.76,245.827 1005,255.5C 1002.37,258.231 999.207,260.064 995.5,261C 987.082,262.132 978.915,261.299 971,258.5C 970.699,255.493 970.865,252.493 971.5,249.5C 979.046,252.045 986.546,252.045 994,249.5C 994.667,248.167 994.667,246.833 994,245.5C 989.437,241.94 984.604,238.773 979.5,236C 967.359,223.768 969.359,214.935 985.5,209.5 Z"/></g>
<g><path style="opacity:1" fill="#fdfdfd" d="M 659.5,245.5 C 659.511,247.017 660.177,248.184 661.5,249C 664.23,249.728 666.897,249.562 669.5,248.5C 670.499,236.185 670.832,223.851 670.5,211.5C 675.167,211.5 679.833,211.5 684.5,211.5C 684.5,227.833 684.5,244.167 684.5,260.5C 680.833,260.5 677.167,260.5 673.5,260.5C 673.719,259.325 673.386,258.325 672.5,257.5C 666.606,261.023 660.272,262.19 653.5,261C 649.015,258.856 646.349,255.356 645.5,250.5C 645.5,237.5 645.5,224.5 645.5,211.5C 649.833,211.5 654.167,211.5 658.5,211.5C 658.172,223.012 658.505,234.346 659.5,245.5 Z"/></g>
<g><path style="opacity:1" fill="#acacad" d="M 659.5,245.5 C 658.505,234.346 658.172,223.012 658.5,211.5C 654.167,211.5 649.833,211.5 645.5,211.5C 645.5,224.5 645.5,237.5 645.5,250.5C 644.504,237.344 644.171,224.01 644.5,210.5C 649.5,210.5 654.5,210.5 659.5,210.5C 659.5,222.167 659.5,233.833 659.5,245.5 Z"/></g>
<g><path style="opacity:1" fill="#aeaeaf" d="M 670.5,211.5 C 675.305,210.513 680.305,210.179 685.5,210.5C 685.83,227.342 685.497,244.008 684.5,260.5C 684.5,244.167 684.5,227.833 684.5,211.5C 679.833,211.5 675.167,211.5 670.5,211.5 Z"/></g>
<g><path style="opacity:1" fill="#89898a" d="M 709.5,212.5 C 705.6,211.57 701.6,211.237 697.5,211.5C 697.5,227.833 697.5,244.167 697.5,260.5C 696.503,244.008 696.17,227.342 696.5,210.5C 701.294,209.903 705.627,210.57 709.5,212.5 Z"/></g>
<g><path style="opacity:1" fill="#b1b1b1" d="M 806.5,211.5 C 801.833,211.5 797.167,211.5 792.5,211.5C 792.5,227.833 792.5,244.167 792.5,260.5C 791.503,244.008 791.17,227.342 791.5,210.5C 796.695,210.179 801.695,210.513 806.5,211.5 Z"/></g>
<g><path style="opacity:1" fill="#fcfcfc" d="M 806.5,211.5 C 806.5,227.833 806.5,244.167 806.5,260.5C 801.833,260.5 797.167,260.5 792.5,260.5C 792.5,244.167 792.5,227.833 792.5,211.5C 797.167,211.5 801.833,211.5 806.5,211.5 Z"/></g>
<g><path style="opacity:1" fill="#f0f0f1" d="M 1424.5,210.5 C 1425.5,210.414 1426.33,210.748 1427,211.5C 1427.67,215.833 1427.67,220.167 1427,224.5C 1426.59,224.957 1426.09,225.291 1425.5,225.5C 1424.51,220.544 1424.17,215.544 1424.5,210.5 Z"/></g>
<g><path style="opacity:1" fill="#888889" d="M 638.5,204.5 C 631.018,205.492 623.352,205.825 615.5,205.5C 615.5,209.5 615.5,213.5 615.5,217.5C 621.358,217.178 627.025,217.511 632.5,218.5C 626.5,218.5 620.5,218.5 614.5,218.5C 614.5,213.833 614.5,209.167 614.5,204.5C 622.5,204.5 630.5,204.5 638.5,204.5 Z"/></g>
<g><path style="opacity:1" fill="#434345" d="M 835.5,220.5 C 842.02,219.185 845.52,221.852 846,228.5C 847.113,235.715 846.446,242.715 844,249.5C 838.412,252.916 834.412,251.583 832,245.5C 831.333,239.167 831.333,232.833 832,226.5C 832.926,224.308 834.093,222.308 835.5,220.5 Z"/></g>
<g><path style="opacity:1" fill="#444446" d="M 939.5,220.5 C 947.449,219.782 951.116,223.449 950.5,231.5C 945.5,231.5 940.5,231.5 935.5,231.5C 934.657,226.906 935.991,223.239 939.5,220.5 Z"/></g>
<g><path style="opacity:1" fill="#6b6b6c" d="M 632.5,230.5 C 627.025,231.489 621.358,231.822 615.5,231.5C 615.827,241.348 615.494,251.014 614.5,260.5C 614.5,250.5 614.5,240.5 614.5,230.5C 620.5,230.5 626.5,230.5 632.5,230.5 Z"/></g>
<g><path style="opacity:1" fill="#f5f5f5" d="M 1303.5,240.5 C 1304.4,239.791 1304.74,238.791 1304.5,237.5C 1301.61,237.194 1298.95,237.527 1296.5,238.5C 1294.03,249.046 1291.53,259.712 1289,270.5C 1287.65,275.729 1284.48,277.729 1279.5,276.5C 1277.36,271.109 1278.86,267.109 1284,264.5C 1285.74,255.934 1287.58,247.434 1289.5,239C 1284.1,237.781 1279.6,239.281 1276,243.5C 1275.95,238.177 1278.45,234.344 1283.5,232C 1295.83,231.5 1308.16,231.333 1320.5,231.5C 1320.5,233.833 1320.5,236.167 1320.5,238.5C 1317.17,238.5 1313.83,238.5 1310.5,238.5C 1309.16,248.19 1307.99,257.856 1307,267.5C 1313.13,270.947 1317.46,269.28 1320,262.5C 1321.51,272.322 1317.34,277.155 1307.5,277C 1304.42,276.214 1302.25,274.381 1301,271.5C 1300.95,261.113 1301.79,250.779 1303.5,240.5 Z"/></g>
<g><path style="opacity:1" fill="#404041" d="M 251.5,232.5 C 255.167,232.5 258.833,232.5 262.5,232.5C 262.5,236.167 262.5,239.833 262.5,243.5C 258.833,243.5 255.167,243.5 251.5,243.5C 251.5,239.833 251.5,236.167 251.5,232.5 Z"/></g>
<g><path style="opacity:1" fill="#f4f4f5" d="M 1176.5,226.5 C 1195.29,224.687 1213.29,227.521 1230.5,235C 1232.38,236.543 1233.88,238.376 1235,240.5C 1235.67,290.833 1235.67,341.167 1235,391.5C 1233.54,393.96 1231.71,396.127 1229.5,398C 1217.3,403.631 1204.47,406.131 1191,405.5C 1177.49,406.261 1164.66,403.761 1152.5,398C 1150,396.833 1148.17,395 1147,392.5C 1146.33,341.5 1146.33,290.5 1147,239.5C 1150.39,235.554 1154.55,232.72 1159.5,231C 1165.25,229.314 1170.92,227.814 1176.5,226.5 Z"/></g>
<g><path style="opacity:1" fill="#434344" d="M 1180.5,230.5 C 1194.86,229.673 1208.86,231.506 1222.5,236C 1226.02,237.256 1229.02,239.256 1231.5,242C 1223.06,242.608 1222.72,243.774 1230.5,245.5C 1225.96,250.435 1220.3,253.268 1213.5,254C 1199.25,256.996 1184.92,257.329 1170.5,255C 1162.95,253.806 1156.45,250.639 1151,245.5C 1150.68,241.454 1152.51,238.621 1156.5,237C 1164.3,233.656 1172.3,231.489 1180.5,230.5 Z"/></g>
<g><path style="opacity:1" fill="#f0f0f1" d="M 1424.5,234.5 C 1425.5,234.5 1426.5,234.5 1427.5,234.5C 1427.5,239.167 1427.5,243.833 1427.5,248.5C 1426.5,248.5 1425.5,248.5 1424.5,248.5C 1424.5,243.833 1424.5,239.167 1424.5,234.5 Z"/></g>
<g><path style="opacity:1" fill="#a2a2a4" d="M 1296.5,238.5 C 1298.95,237.527 1301.61,237.194 1304.5,237.5C 1304.74,238.791 1304.4,239.791 1303.5,240.5C 1301.72,238.656 1299.39,237.99 1296.5,238.5 Z"/></g>
<g><path style="opacity:1" fill="#d0d0d0" d="M 964.5,230.5 C 965.479,233.625 965.813,236.958 965.5,240.5C 955.5,240.5 945.5,240.5 935.5,240.5C 944.986,239.506 954.652,239.173 964.5,239.5C 964.5,236.5 964.5,233.5 964.5,230.5 Z"/></g>
<g><path style="opacity:1" fill="#f4f4f5" d="M 1193.5,242.5 C 1196.9,242.18 1200.23,242.513 1203.5,243.5C 1201.83,243.833 1200.17,244.167 1198.5,244.5C 1196.36,244.444 1194.69,243.777 1193.5,242.5 Z"/></g>
<g><path style="opacity:1" fill="#fbfbfd" d="M 1209.5,242.5 C 1212.57,242.183 1215.57,242.516 1218.5,243.5C 1217,243.833 1215.5,244.167 1214,244.5C 1212.01,244.431 1210.51,243.765 1209.5,242.5 Z"/></g>
<g><path style="opacity:1" fill="#f6f6f6" d="M 456.5,242.5 C 461.5,242.5 466.5,242.5 471.5,242.5C 471.5,264.167 471.5,285.833 471.5,307.5C 466.5,307.5 461.5,307.5 456.5,307.5C 456.5,305.833 456.5,304.167 456.5,302.5C 459.5,302.5 462.5,302.5 465.5,302.5C 465.5,284.167 465.5,265.833 465.5,247.5C 462.5,247.5 459.5,247.5 456.5,247.5C 456.5,245.833 456.5,244.167 456.5,242.5 Z"/></g>
<g><path style="opacity:1" fill="#fdfdfd" d="M 399.5,248.5 C 396.833,248.5 394.167,248.5 391.5,248.5C 390.503,266.993 390.17,285.659 390.5,304.5C 393.5,304.5 396.5,304.5 399.5,304.5C 399.5,305.833 399.5,307.167 399.5,308.5C 394.833,308.5 390.167,308.5 385.5,308.5C 385.5,287.167 385.5,265.833 385.5,244.5C 390.167,244.5 394.833,244.5 399.5,244.5C 399.5,245.833 399.5,247.167 399.5,248.5 Z"/></g>
<g><path style="opacity:1" fill="#cdcdcf" d="M 1189.5,241.5 C 1190.5,241.5 1191.5,241.5 1192.5,241.5C 1192.5,244.5 1192.5,247.5 1192.5,250.5C 1191.5,250.5 1190.5,250.5 1189.5,250.5C 1189.5,247.5 1189.5,244.5 1189.5,241.5 Z"/></g>
<g><path style="opacity:1" fill="#ededef" d="M 437.5,246.5 C 452.839,246.108 453.173,247.108 438.5,249.5C 438.167,250.167 437.833,250.833 437.5,251.5C 441.548,252.121 445.048,253.788 448,256.5C 448.863,262.338 446.363,266.171 440.5,268C 429.833,267.995 429.833,267.328 440.5,266C 444.292,263.947 445.458,260.781 444,256.5C 441.435,254.821 438.602,254.154 435.5,254.5C 435.963,251.779 436.629,249.112 437.5,246.5 Z"/></g>
<g><path style="opacity:1" fill="#a5a5a5" d="M 399.5,248.5 C 399.5,247.167 399.5,245.833 399.5,244.5C 394.833,244.5 390.167,244.5 385.5,244.5C 385.5,265.833 385.5,287.167 385.5,308.5C 384.503,287.006 384.169,265.34 384.5,243.5C 389.833,243.5 395.167,243.5 400.5,243.5C 400.784,245.415 400.451,247.081 399.5,248.5 Z"/></g>
<g><path style="opacity:1" fill="#787878" d="M 391.5,248.5 C 391.5,266.833 391.5,285.167 391.5,303.5C 394.5,303.5 397.5,303.5 400.5,303.5C 400.5,305.5 400.5,307.5 400.5,309.5C 395.305,309.821 390.305,309.487 385.5,308.5C 390.167,308.5 394.833,308.5 399.5,308.5C 399.5,307.167 399.5,305.833 399.5,304.5C 396.5,304.5 393.5,304.5 390.5,304.5C 390.17,285.659 390.503,266.993 391.5,248.5 Z"/></g>
<g><path style="opacity:1" fill="#404042" d="M 1150.5,251.5 C 1162.5,258.416 1175.5,261.416 1189.5,260.5C 1190.17,268.5 1190.83,268.5 1191.5,260.5C 1199.94,260.71 1208.27,259.877 1216.5,258C 1221.68,256.494 1226.51,254.327 1231,251.5C 1231.67,294.5 1231.67,337.5 1231,380.5C 1218.91,374.514 1206.08,371.514 1192.5,371.5C 1192.5,369.5 1192.5,367.5 1192.5,365.5C 1191.5,365.5 1190.5,365.5 1189.5,365.5C 1189.5,367.5 1189.5,369.5 1189.5,371.5C 1175.76,370.81 1162.93,373.81 1151,380.5C 1150.5,337.501 1150.33,294.501 1150.5,251.5 Z"/></g>
<g><path style="opacity:1" fill="#e9e9ea" d="M 412.5,249.5 C 413.5,249.5 414.5,249.5 415.5,249.5C 414.293,255.533 412.96,261.533 411.5,267.5C 410.5,267.5 409.5,267.5 408.5,267.5C 409.515,263.123 410.349,258.789 411,254.5C 409.867,256.211 408.367,256.711 406.5,256C 408.706,253.963 410.706,251.797 412.5,249.5 Z"/></g>
<g><path style="opacity:1" fill="#a1a1a1" d="M 1482.5,262.5 C 1482.17,299.337 1482.5,336.004 1483.5,372.5C 1483.44,373.043 1483.11,373.376 1482.5,373.5C 1481.17,336.336 1481.17,299.336 1482.5,262.5 Z"/></g>
<g><path style="opacity:1" fill="#9c9c9c" d="M 1364.5,264.5 C 1384.33,263.503 1404.33,263.17 1424.5,263.5C 1424.5,266.167 1424.5,268.833 1424.5,271.5C 1423.53,269.393 1423.2,267.059 1423.5,264.5C 1403.83,264.5 1384.17,264.5 1364.5,264.5 Z"/></g>
<g><path style="opacity:1" fill="#bababb" d="M 1427.5,264.5 C 1444.33,263.503 1461.33,263.17 1478.5,263.5C 1478.5,279.167 1478.5,294.833 1478.5,310.5C 1474.17,310.5 1469.83,310.5 1465.5,310.5C 1469.3,309.517 1473.3,309.183 1477.5,309.5C 1477.5,294.5 1477.5,279.5 1477.5,264.5C 1460.83,264.5 1444.17,264.5 1427.5,264.5 Z"/></g>
<g><path style="opacity:1" fill="#cecece" d="M 1364.5,264.5 C 1364.5,300.833 1364.5,337.167 1364.5,373.5C 1365.79,373.263 1366.79,373.596 1367.5,374.5C 1366.17,374.5 1364.83,374.5 1363.5,374.5C 1363.17,337.663 1363.5,300.996 1364.5,264.5 Z"/></g>
<g><path style="opacity:1" fill="#ccccce" d="M 1189.5,272.5 C 1190.5,272.5 1191.5,272.5 1192.5,272.5C 1192.91,276.048 1192.41,279.381 1191,282.5C 1189.59,279.381 1189.09,276.048 1189.5,272.5 Z"/></g>
<g><path style="opacity:1" fill="#f5f5f5" d="M 95.5,285.5 C 100.5,285.5 105.5,285.5 110.5,285.5C 110.5,286.5 110.5,287.5 110.5,288.5C 105.5,288.5 100.5,288.5 95.5,288.5C 95.5,287.5 95.5,286.5 95.5,285.5 Z"/></g>
<g><path style="opacity:1" fill="#fcfcfd" d="M 119.5,285.5 C 124.167,285.5 128.833,285.5 133.5,285.5C 133.5,286.5 133.5,287.5 133.5,288.5C 128.833,288.5 124.167,288.5 119.5,288.5C 119.5,287.5 119.5,286.5 119.5,285.5 Z"/></g>
<g><path style="opacity:1" fill="#f9f9fa" d="M 142.5,285.5 C 147.691,285.058 152.691,285.558 157.5,287C 152.691,288.442 147.691,288.942 142.5,288.5C 142.5,287.5 142.5,286.5 142.5,285.5 Z"/></g>
<g><path style="opacity:1" fill="#f5f5f6" d="M 165.5,285.5 C 170.5,285.5 175.5,285.5 180.5,285.5C 180.5,286.5 180.5,287.5 180.5,288.5C 175.5,288.5 170.5,288.5 165.5,288.5C 165.5,287.5 165.5,286.5 165.5,285.5 Z"/></g>
<g><path style="opacity:1" fill="#fbfbfc" d="M 189.5,285.5 C 194.167,285.5 198.833,285.5 203.5,285.5C 203.5,286.5 203.5,287.5 203.5,288.5C 198.833,288.5 194.167,288.5 189.5,288.5C 189.5,287.5 189.5,286.5 189.5,285.5 Z"/></g>
<g><path style="opacity:1" fill="#efeff0" d="M 220.5,284.5 C 227.243,284.269 233.577,285.769 239.5,289C 253.467,301.299 267.134,313.966 280.5,327C 285.703,331.435 291.703,333.935 298.5,334.5C 298.5,335.833 298.5,337.167 298.5,338.5C 290.639,337.906 283.639,335.073 277.5,330C 264.833,318 252.167,306 239.5,294C 235.847,291.615 231.847,290.115 227.5,289.5C 227.665,292.85 227.498,296.183 227,299.5C 226,300.833 225,300.833 224,299.5C 223.502,296.183 223.335,292.85 223.5,289.5C 217.225,289.967 211.558,292.134 206.5,296C 196.554,305.946 186.554,315.946 176.5,326C 169.634,331.935 161.967,336.602 153.5,340C 150.243,341.043 146.91,341.543 143.5,341.5C 143.5,345.167 143.5,348.833 143.5,352.5C 142.167,352.5 140.833,352.5 139.5,352.5C 139.5,348.833 139.5,345.167 139.5,341.5C 135.833,341.5 132.167,341.5 128.5,341.5C 128.762,340.022 128.429,338.689 127.5,337.5C 121.078,333.874 114.911,329.874 109,325.5C 108.316,324.216 108.483,323.049 109.5,322C 117.484,326.914 125.818,331.58 134.5,336C 141.636,338.199 148.636,337.866 155.5,335C 162.354,331.408 168.687,327.075 174.5,322C 184.221,312.279 193.887,302.613 203.5,293C 208.747,288.821 214.413,285.987 220.5,284.5 Z"/></g>
<g><path style="opacity:1" fill="#cecece" d="M 73.5,206.5 C 72.5,206.5 71.5,206.5 70.5,206.5C 70.5,276.167 70.5,345.833 70.5,415.5C 69.5008,345.669 69.1675,275.669 69.5,205.5C 71.099,205.232 72.4324,205.566 73.5,206.5 Z"/></g>
<g><path style="opacity:1" fill="#c9c9ca" d="M 1189.5,287.5 C 1190.5,287.5 1191.5,287.5 1192.5,287.5C 1192.5,290.833 1192.5,294.167 1192.5,297.5C 1191.5,297.5 1190.5,297.5 1189.5,297.5C 1189.5,294.167 1189.5,290.833 1189.5,287.5 Z"/></g>
<g><path style="opacity:1" fill="#e9e9eb" d="M 442.5,286.5 C 445.937,286.245 448.604,287.412 450.5,290C 450.167,290.5 449.833,291 449.5,291.5C 447.291,288.434 444.457,287.768 441,289.5C 440.582,291.788 441.249,293.788 443,295.5C 450.763,291.36 451.263,292.026 444.5,297.5C 448.422,305.086 446.088,308.586 437.5,308C 435.604,306.192 435.104,304.025 436,301.5C 437.5,300 439,298.5 440.5,297C 436.046,292.333 436.713,288.833 442.5,286.5 Z"/></g>
<g><path style="opacity:1" fill="#e7e7e9" d="M 413.5,288.5 C 420.088,288.657 422.588,291.99 421,298.5C 419.011,304.851 414.844,307.351 408.5,306C 406.05,298.957 407.716,293.124 413.5,288.5 Z"/></g>
<g><path style="opacity:1" fill="#49494b" d="M 413.5,291.5 C 416.865,290.964 418.865,292.297 419.5,295.5C 418.653,299.992 416.32,303.325 412.5,305.5C 410.239,304.652 409.239,302.985 409.5,300.5C 410.03,297.11 411.363,294.11 413.5,291.5 Z"/></g>
<g><path style="opacity:1" fill="#4a4a4c" d="M 440.5,299.5 C 442.849,299.458 444.182,300.625 444.5,303C 442.526,307.297 440.526,307.464 438.5,303.5C 438.752,301.927 439.418,300.594 440.5,299.5 Z"/></g>
<g><path style="opacity:1" fill="#ccccce" d="M 1189.5,303.5 C 1190.5,303.5 1191.5,303.5 1192.5,303.5C 1192.91,307.048 1192.41,310.381 1191,313.5C 1189.59,310.381 1189.09,307.048 1189.5,303.5 Z"/></g>
<g><path style="opacity:1" fill="#e0e0e1" d="M 224.5,308.5 C 225.496,308.414 226.329,308.748 227,309.5C 227.667,313.833 227.667,318.167 227,322.5C 226,323.833 225,323.833 224,322.5C 223.227,317.748 223.393,313.081 224.5,308.5 Z"/></g>
<g><path style="opacity:1" fill="#dfdfe0" d="M 1489.5,309.5 C 1494.17,309.5 1498.83,309.5 1503.5,309.5C 1503.5,310.833 1503.5,312.167 1503.5,313.5C 1498.83,313.5 1494.17,313.5 1489.5,313.5C 1489.5,312.167 1489.5,310.833 1489.5,309.5 Z"/></g>
<g><path style="opacity:1" fill="#e1e1e2" d="M 1513.5,309.5 C 1517.85,309.334 1522.18,309.501 1526.5,310C 1527.83,311 1527.83,312 1526.5,313C 1522.17,313.667 1517.83,313.667 1513.5,313C 1512.32,311.855 1512.32,310.688 1513.5,309.5 Z"/></g>
<g><path style="opacity:1" fill="#404042" d="M 1364.5,264.5 C 1384.17,264.5 1403.83,264.5 1423.5,264.5C 1423.2,267.059 1423.53,269.393 1424.5,271.5C 1425.19,272.774 1426.02,272.774 1427,271.5C 1427.5,269.19 1427.66,266.857 1427.5,264.5C 1444.17,264.5 1460.83,264.5 1477.5,264.5C 1477.5,279.5 1477.5,294.5 1477.5,309.5C 1473.3,309.183 1469.3,309.517 1465.5,310.5C 1465.41,311.496 1465.75,312.329 1466.5,313C 1470.15,313.499 1473.82,313.665 1477.5,313.5C 1477.5,334.833 1477.5,356.167 1477.5,377.5C 1440.5,377.667 1403.5,377.5 1366.5,377C 1367.25,376.329 1367.59,375.496 1367.5,374.5C 1366.79,373.596 1365.79,373.263 1364.5,373.5C 1364.5,337.167 1364.5,300.833 1364.5,264.5 Z"/></g>
<g><path style="opacity:1" fill="#dfdfe0" d="M 1442.5,309.5 C 1446.85,309.334 1451.18,309.501 1455.5,310C 1456.34,311.011 1456.67,312.178 1456.5,313.5C 1451.82,313.666 1447.15,313.499 1442.5,313C 1441.32,311.855 1441.32,310.688 1442.5,309.5 Z"/></g>
<g><path style="opacity:1" fill="#ececed" d="M 1424.5,304.5 C 1425.5,304.5 1426.5,304.5 1427.5,304.5C 1427.5,306.167 1427.5,307.833 1427.5,309.5C 1429.2,309.34 1430.87,309.506 1432.5,310C 1433.45,310.718 1433.62,311.551 1433,312.5C 1430.59,313.274 1428.09,313.774 1425.5,314C 1424.49,316.172 1422.82,317.338 1420.5,317.5C 1420.57,314.916 1421.74,312.916 1424,311.5C 1424.5,309.19 1424.66,306.857 1424.5,304.5 Z"/></g>
<g><path style="opacity:1" fill="#eeeeee" d="M 1424.5,280.5 C 1425.5,280.414 1426.33,280.748 1427,281.5C 1427.5,286.155 1427.67,290.821 1427.5,295.5C 1426.5,295.5 1425.5,295.5 1424.5,295.5C 1424.5,290.5 1424.5,285.5 1424.5,280.5 Z"/></g>
<g><path style="opacity:1" fill="#efeff0" d="M 1412.5,322.5 C 1413.5,322.5 1414.5,322.5 1415.5,322.5C 1415.65,323.552 1415.48,324.552 1415,325.5C 1411.86,329.154 1408.36,332.154 1404.5,334.5C 1404.35,333.448 1404.52,332.448 1405,331.5C 1408.09,328.919 1410.59,325.919 1412.5,322.5 Z"/></g>
<g><path style="opacity:1" fill="#cacacb" d="M 1189.5,318.5 C 1190.5,318.414 1191.33,318.748 1192,319.5C 1192.5,322.482 1192.66,325.482 1192.5,328.5C 1191.5,328.5 1190.5,328.5 1189.5,328.5C 1189.5,325.167 1189.5,321.833 1189.5,318.5 Z"/></g>
<g><path style="opacity:1" fill="#ececed" d="M 1295.5,302.5 C 1296.82,302.33 1297.99,302.663 1299,303.5C 1299.5,306.531 1299.33,309.531 1298.5,312.5C 1302.14,313.268 1301.81,313.934 1297.5,314.5C 1296.38,318.733 1294.72,322.733 1292.5,326.5C 1292.52,332.073 1294.69,333.407 1299,330.5C 1300.62,324.576 1304.12,320.243 1309.5,317.5C 1310.17,317.833 1310.83,318.167 1311.5,318.5C 1308.99,320.506 1306.83,322.84 1305,325.5C 1304.33,327.167 1304.33,328.833 1305,330.5C 1307.18,327.462 1309.35,324.462 1311.5,321.5C 1311.36,325.042 1311.7,328.708 1312.5,332.5C 1313.5,332 1314.5,331.5 1315.5,331C 1318.3,326.925 1320.14,322.425 1321,317.5C 1322.01,316.663 1323.18,316.33 1324.5,316.5C 1323.95,319.562 1323.45,322.562 1323,325.5C 1324.51,322.143 1327.01,320.143 1330.5,319.5C 1330.08,323.703 1330.58,327.703 1332,331.5C 1334.61,329.631 1336.78,327.297 1338.5,324.5C 1338.83,325 1339.17,325.5 1339.5,326C 1331.79,336.95 1327.96,335.783 1328,322.5C 1324.82,326.871 1321.65,331.205 1318.5,335.5C 1317.83,334.5 1317.17,333.5 1316.5,332.5C 1312.81,335.536 1309.98,334.87 1308,330.5C 1305.89,333.79 1303.56,334.123 1301,331.5C 1295.88,337.464 1292.21,336.797 1290,329.5C 1289.75,324.628 1289.25,319.795 1288.5,315C 1290.37,310.521 1292.71,306.355 1295.5,302.5 Z"/></g>
<g><path style="opacity:1" fill="#6f6f70" d="M 1292.5,315.5 C 1293.55,315.351 1294.55,315.517 1295.5,316C 1293.29,322.058 1292.29,321.891 1292.5,315.5 Z"/></g>
<g><path style="opacity:1" fill="#525254" d="M 1296.5,304.5 C 1297.63,306.628 1297.8,308.961 1297,311.5C 1295.82,312.731 1294.65,312.731 1293.5,311.5C 1294.31,309.055 1295.31,306.722 1296.5,304.5 Z"/></g>
<g><path style="opacity:1" fill="#dfdfe0" d="M 223.5,332.5 C 224.833,332.5 226.167,332.5 227.5,332.5C 227.5,337.167 227.5,341.833 227.5,346.5C 226.167,346.5 224.833,346.5 223.5,346.5C 223.5,341.833 223.5,337.167 223.5,332.5 Z"/></g>
<g><path style="opacity:1" fill="#ccccce" d="M 1189.5,334.5 C 1190.5,334.5 1191.5,334.5 1192.5,334.5C 1192.91,338.048 1192.41,341.381 1191,344.5C 1189.59,341.381 1189.09,338.048 1189.5,334.5 Z"/></g>
<g><path style="opacity:1" fill="#d5d5d5" d="M 95.5,337.5 C 95.5,338.833 95.5,340.167 95.5,341.5C 91.1539,341.666 86.8206,341.499 82.5,341C 81.1667,340 81.1667,339 82.5,338C 86.8206,337.501 91.1539,337.334 95.5,337.5 Z"/></g>
<g><path style="opacity:1" fill="#d6d6d6" d="M 105.5,337.5 C 110.167,337.5 114.833,337.5 119.5,337.5C 119.5,338.833 119.5,340.167 119.5,341.5C 114.833,341.5 110.167,341.5 105.5,341.5C 105.5,340.167 105.5,338.833 105.5,337.5 Z"/></g>
<g><path style="opacity:1" fill="#efeff0" d="M 1396.5,339.5 C 1398.69,339.511 1399.52,340.511 1399,342.5C 1396.13,345.037 1393.63,347.87 1391.5,351C 1390.55,351.483 1389.55,351.649 1388.5,351.5C 1388.35,350.448 1388.52,349.448 1389,348.5C 1392.09,345.919 1394.59,342.919 1396.5,339.5 Z"/></g>
<g><path style="opacity:1" fill="#f2f2f2" d="M 358.5,349.5 C 359.978,349.238 361.311,349.571 362.5,350.5C 359.467,356.826 357.634,363.493 357,370.5C 356.411,372.863 354.911,373.863 352.5,373.5C 353.62,368.136 354.953,362.803 356.5,357.5C 355.923,355.37 354.923,355.537 353.5,358C 352.365,358.749 351.365,358.583 350.5,357.5C 353.494,355.173 356.161,352.506 358.5,349.5 Z"/></g>
<g><path style="opacity:1" fill="#ececed" d="M 431.5,345.5 C 434.187,345.336 436.854,345.503 439.5,346C 442.644,346.919 443.644,348.752 442.5,351.5C 441.155,350.653 440.155,349.487 439.5,348C 429.752,346.204 427.752,349.038 433.5,356.5C 435.833,355.167 438.167,353.833 440.5,352.5C 440.833,352.833 441.167,353.167 441.5,353.5C 439.194,355.139 437.194,357.139 435.5,359.5C 440.854,369.333 437.854,373.833 426.5,373C 424.007,369.692 423.841,366.192 426,362.5C 430.152,360.227 430.485,357.561 427,354.5C 425.422,349.786 426.922,346.786 431.5,345.5 Z"/></g>
<g><path style="opacity:1" fill="#cacacc" d="M 1189.5,349.5 C 1190.5,349.414 1191.33,349.748 1192,350.5C 1192.5,353.482 1192.66,356.482 1192.5,359.5C 1191.5,359.5 1190.5,359.5 1189.5,359.5C 1189.5,356.167 1189.5,352.833 1189.5,349.5 Z"/></g>
<g><path style="opacity:1" fill="#f0f0f1" d="M 1381.5,356.5 C 1383.23,356.843 1383.73,357.843 1383,359.5C 1380.13,362.037 1377.63,364.87 1375.5,368C 1374.55,368.483 1373.55,368.649 1372.5,368.5C 1372.35,367.448 1372.52,366.448 1373,365.5C 1376.04,362.631 1378.87,359.631 1381.5,356.5 Z"/></g>
<g><path style="opacity:1" fill="#e0e0e1" d="M 223.5,355.5 C 224.822,355.33 225.989,355.663 227,356.5C 227.499,360.821 227.666,365.154 227.5,369.5C 226.167,369.5 224.833,369.5 223.5,369.5C 223.5,364.833 223.5,360.167 223.5,355.5 Z"/></g>
<g><path style="opacity:1" fill="#d6d6d6" d="M 139.5,361.5 C 140.833,361.5 142.167,361.5 143.5,361.5C 143.5,366.167 143.5,370.833 143.5,375.5C 142.167,375.5 140.833,375.5 139.5,375.5C 139.5,370.833 139.5,366.167 139.5,361.5 Z"/></g>
<g><path style="opacity:1" fill="#48484a" d="M 431.5,361.5 C 434.754,362.673 435.92,365.006 435,368.5C 431.832,372.636 429.332,372.469 427.5,368C 428.207,365.413 429.541,363.246 431.5,361.5 Z"/></g>
<g><path style="opacity:1" fill="#dfdfe0" d="M 224.5,378.5 C 225.496,378.414 226.329,378.748 227,379.5C 227.667,383.833 227.667,388.167 227,392.5C 226,393.833 225,393.833 224,392.5C 223.227,387.748 223.393,383.081 224.5,378.5 Z"/></g>
<g><path style="opacity:1" fill="#fcfcfc" d="M 334.5,384.5 C 346.833,384.5 359.167,384.5 371.5,384.5C 371.5,385.833 371.5,387.167 371.5,388.5C 359.167,388.5 346.833,388.5 334.5,388.5C 334.5,387.167 334.5,385.833 334.5,384.5 Z"/></g>
<g><path style="opacity:1" fill="#fcfcfc" d="M 407.5,384.5 C 419.833,384.5 432.167,384.5 444.5,384.5C 444.5,385.833 444.5,387.167 444.5,388.5C 432.167,388.5 419.833,388.5 407.5,388.5C 407.5,387.167 407.5,385.833 407.5,384.5 Z"/></g>
<g><path style="opacity:1" fill="#444445" d="M 1181.5,375.5 C 1197.98,374.181 1213.64,377.015 1228.5,384C 1229.36,384.689 1230.02,385.522 1230.5,386.5C 1222.72,388.226 1223.06,389.392 1231.5,390C 1228.87,393.318 1225.53,395.651 1221.5,397C 1199.24,403.554 1177.24,402.887 1155.5,395C 1148.34,388.955 1149.34,384.288 1158.5,381C 1166.18,378.594 1173.84,376.761 1181.5,375.5 Z"/></g>
<g><path style="opacity:1" fill="#ccccce" d="M 1189.5,380.5 C 1190.5,380.414 1191.33,380.748 1192,381.5C 1192.5,384.146 1192.66,386.813 1192.5,389.5C 1191.5,389.5 1190.5,389.5 1189.5,389.5C 1189.5,386.5 1189.5,383.5 1189.5,380.5 Z"/></g>
<g><path style="opacity:1" fill="#e2e2e4" d="M 386.5,381.5 C 387.451,382.919 387.784,384.585 387.5,386.5C 389.604,386.201 391.604,386.534 393.5,387.5C 391.955,388.452 390.288,388.785 388.5,388.5C 387.833,396.5 387.167,396.5 386.5,388.5C 378.5,387.833 378.5,387.167 386.5,386.5C 386.5,384.833 386.5,383.167 386.5,381.5 Z"/></g>
<g><path style="opacity:1" fill="#f4f4f6" d="M 1193.5,387.5 C 1196.9,387.18 1200.23,387.513 1203.5,388.5C 1201.83,388.833 1200.17,389.167 1198.5,389.5C 1196.36,389.444 1194.69,388.777 1193.5,387.5 Z"/></g>
<g><path style="opacity:1" fill="#fbfbfd" d="M 1209.5,387.5 C 1212.57,387.183 1215.57,387.516 1218.5,388.5C 1217,388.833 1215.5,389.167 1214,389.5C 1212.01,389.431 1210.51,388.765 1209.5,387.5 Z"/></g>
<g><path style="opacity:1" fill="#ececed" d="M 348.5,395.5 C 359.324,395.153 361.824,399.486 356,408.5C 353.5,411 351,413.5 348.5,416C 352.423,416.793 356.256,416.626 360,415.5C 360.684,416.784 360.517,417.951 359.5,419C 353.833,419.667 348.167,419.667 342.5,419C 347.805,414.701 351.972,409.534 355,403.5C 355.622,398.293 353.456,396.626 348.5,398.5C 347.333,400.167 346.167,401.833 345,403.5C 343.78,399.707 344.947,397.04 348.5,395.5 Z"/></g>
<g><path style="opacity:1" fill="#e8e8e9" d="M 428.5,393.5 C 430.225,393.843 430.725,394.843 430,396.5C 426.334,401.162 423.167,406.162 420.5,411.5C 422.833,412.833 425.167,412.833 427.5,411.5C 428.269,408.49 429.103,405.49 430,402.5C 431.487,401.259 432.32,401.759 432.5,404C 432.135,406.261 431.469,408.427 430.5,410.5C 438.199,412.327 437.866,413.66 429.5,414.5C 429.559,417.962 428.559,420.962 426.5,423.5C 425.551,420.874 425.551,418.208 426.5,415.5C 423.482,415.665 420.482,415.498 417.5,415C 416.572,414.612 415.905,413.945 415.5,413C 419.256,406.085 423.589,399.585 428.5,393.5 Z"/></g>
<g><path style="opacity:1" fill="#eaeaeb" d="M 1291.5,398.5 C 1294.66,397.964 1297.33,398.797 1299.5,401C 1299.04,408.575 1297.87,416.075 1296,423.5C 1293.51,429.529 1289.68,430.862 1284.5,427.5C 1285.53,426.548 1286.7,426.548 1288,427.5C 1291.22,425.42 1293.22,422.42 1294,418.5C 1294.67,415.167 1294.67,411.833 1294,408.5C 1292.47,411.431 1290.14,413.431 1287,414.5C 1283.13,412.003 1282.47,408.67 1285,404.5C 1287.06,402.266 1289.23,400.266 1291.5,398.5 Z"/></g>
<g><path style="opacity:1" fill="#e9e9ea" d="M 1263.5,381.5 C 1266.93,380.755 1268.6,382.089 1268.5,385.5C 1267.27,392.348 1264.77,398.681 1261,404.5C 1260.33,407.167 1260.33,409.833 1261,412.5C 1262.05,413.517 1263.22,413.684 1264.5,413C 1267.87,409.764 1270.37,405.931 1272,401.5C 1277.21,398.003 1280.04,399.336 1280.5,405.5C 1280.77,412.734 1277.44,415.901 1270.5,415C 1269.81,413.933 1269.31,412.766 1269,411.5C 1266.84,415.368 1263.67,416.868 1259.5,416C 1255.68,406.963 1255.51,397.796 1259,388.5C 1260.01,385.798 1261.51,383.465 1263.5,381.5 Z"/></g>
<g><path style="opacity:1" fill="#49494b" d="M 1264.5,383.5 C 1265.4,389.045 1264.23,394.379 1261,399.5C 1260.7,393.847 1261.86,388.514 1264.5,383.5 Z"/></g>
<g><path style="opacity:1" fill="#484849" d="M 1293.5,400.5 C 1294.87,400.343 1296.21,400.51 1297.5,401C 1294.83,404.333 1292.17,407.667 1289.5,411C 1288.55,411.483 1287.55,411.649 1286.5,411.5C 1286.76,406.562 1289.09,402.895 1293.5,400.5 Z"/></g>
<g><path style="opacity:1" fill="#765235" d="M 176.5,413.5 C 177.167,414.5 177.833,415.5 178.5,416.5C 178.5,417.833 179.167,418.5 180.5,418.5C 183.479,420.812 186.146,423.479 188.5,426.5C 189.386,427.325 189.719,428.325 189.5,429.5C 188.518,430.141 187.518,430.807 186.5,431.5C 181.23,430.549 175.897,430.215 170.5,430.5C 166.59,425.983 162.257,421.983 157.5,418.5C 157.5,418.167 157.5,417.833 157.5,417.5C 156.5,415.833 155.167,414.5 153.5,413.5C 146.164,405.604 138.498,398.271 130.5,391.5C 125.581,384.91 119.914,378.91 113.5,373.5C 112.501,386.817 112.167,400.15 112.5,413.5C 112.5,414.833 112.5,416.167 112.5,417.5C 112.5,417.833 112.5,418.167 112.5,418.5C 112.5,422.833 112.5,427.167 112.5,431.5C 106.642,431.822 100.975,431.489 95.5,430.5C 95.5,430.167 95.5,429.833 95.5,429.5C 95.5,425.5 95.5,421.5 95.5,417.5C 95.5,416.167 95.5,414.833 95.5,413.5C 95.5,389.5 95.5,365.5 95.5,341.5C 95.5,340.167 95.5,338.833 95.5,337.5C 95.4701,336.503 95.9701,335.836 97,335.5C 98.2502,337.706 100.084,339.039 102.5,339.5C 102.5,340.833 102.5,342.167 102.5,343.5C 103.873,343.343 105.207,343.51 106.5,344C 112.66,351.493 119.493,358.326 127,364.5C 127.483,365.448 127.649,366.448 127.5,367.5C 128.552,367.351 129.552,367.517 130.5,368C 136.804,373.973 142.804,380.306 148.5,387C 147.062,389.366 147.562,389.866 150,388.5C 155.686,394.502 162.02,400.502 169,406.5C 169.617,407.449 169.451,408.282 168.5,409C 171.525,409.154 173.191,410.654 173.5,413.5C 174.5,413.5 175.5,413.5 176.5,413.5 Z"/></g>
<g><path style="opacity:1" fill="#414042" d="M 130.5,391.5 C 138.498,398.271 146.164,405.604 153.5,413.5C 150.167,413.5 146.833,413.5 143.5,413.5C 143.949,411.023 143.283,409.023 141.5,407.5C 139.717,409.023 139.051,411.023 139.5,413.5C 131.167,413.5 122.833,413.5 114.5,413.5C 114.589,402.417 114.756,391.417 115,380.5C 116.825,381.103 118.659,381.77 120.5,382.5C 123.905,385.579 127.238,388.579 130.5,391.5 Z"/></g>
<g><path style="opacity:1" fill="#4a403a" d="M 130.5,391.5 C 127.238,388.579 123.905,385.579 120.5,382.5C 118.659,381.77 116.825,381.103 115,380.5C 114.756,391.417 114.589,402.417 114.5,413.5C 113.833,413.5 113.167,413.5 112.5,413.5C 112.167,400.15 112.501,386.817 113.5,373.5C 119.914,378.91 125.581,384.91 130.5,391.5 Z"/></g>
<g><path style="opacity:1" fill="#454547" d="M 1275.5,402.5 C 1277.89,402.685 1278.89,404.018 1278.5,406.5C 1278.45,409.598 1277.12,411.932 1274.5,413.5C 1271.84,409.721 1272.18,406.054 1275.5,402.5 Z"/></g>
<g><path style="opacity:1" fill="#fbfbfb" d="M 304.5,417.5 C 262.428,417.827 220.428,417.494 178.5,416.5C 177.833,415.5 177.167,414.5 176.5,413.5C 192.167,413.5 207.833,413.5 223.5,413.5C 223.335,409.818 223.501,406.152 224,402.5C 225,401.167 226,401.167 227,402.5C 227.499,406.152 227.665,409.818 227.5,413.5C 253.167,413.5 278.833,413.5 304.5,413.5C 304.5,414.833 304.5,416.167 304.5,417.5 Z"/></g>
<g><path style="opacity:1" fill="#f8f8f6" d="M 153.5,413.5 C 155.167,414.5 156.5,415.833 157.5,417.5C 142.5,417.5 127.5,417.5 112.5,417.5C 112.5,416.167 112.5,414.833 112.5,413.5C 113.167,413.5 113.833,413.5 114.5,413.5C 122.833,413.5 131.167,413.5 139.5,413.5C 139.051,411.023 139.717,409.023 141.5,407.5C 143.283,409.023 143.949,411.023 143.5,413.5C 146.833,413.5 150.167,413.5 153.5,413.5 Z"/></g>
<g><path style="opacity:1" fill="#727272" d="M 178.5,416.5 C 220.428,417.494 262.428,417.827 304.5,417.5C 264.337,418.499 224.003,418.832 183.5,418.5C 182.5,418.5 181.5,418.5 180.5,418.5C 179.167,418.5 178.5,417.833 178.5,416.5 Z"/></g>
<g><path style="opacity:1" fill="#444345" d="M 112.5,418.5 C 112.5,418.167 112.5,417.833 112.5,417.5C 127.5,417.5 142.5,417.5 157.5,417.5C 157.5,417.833 157.5,418.167 157.5,418.5C 156.448,418.351 155.448,418.517 154.5,419C 156.604,419.791 157.937,421.291 158.5,423.5C 160.373,422.911 162.04,423.578 163.5,425.5C 164.711,426.72 164.711,427.887 163.5,429C 147.5,429.667 131.5,429.667 115.5,429C 115.171,425.108 114.171,421.608 112.5,418.5 Z"/></g>
<g><path style="opacity:1" fill="#4d3e31" d="M 112.5,418.5 C 114.171,421.608 115.171,425.108 115.5,429C 131.5,429.667 147.5,429.667 163.5,429C 164.711,427.887 164.711,426.72 163.5,425.5C 162.04,423.578 160.373,422.911 158.5,423.5C 157.937,421.291 156.604,419.791 154.5,419C 155.448,418.517 156.448,418.351 157.5,418.5C 162.257,421.983 166.59,425.983 170.5,430.5C 151.243,431.487 131.909,431.82 112.5,431.5C 112.5,427.167 112.5,422.833 112.5,418.5 Z"/></g>
<g><path style="opacity:1" fill="#5f3813" d="M 189.5,429.5 C 220.482,431.493 251.816,432.159 283.5,431.5C 283.5,437.167 283.5,442.833 283.5,448.5C 283.5,455.5 283.5,462.5 283.5,469.5C 217.5,469.5 151.5,469.5 85.5,469.5C 85.5,462.5 85.5,455.5 85.5,448.5C 85.5,442.833 85.5,437.167 85.5,431.5C 88.9023,431.658 92.2356,431.324 95.5,430.5C 100.975,431.489 106.642,431.822 112.5,431.5C 131.909,431.82 151.243,431.487 170.5,430.5C 175.897,430.215 181.23,430.549 186.5,431.5C 187.518,430.807 188.518,430.141 189.5,429.5 Z"/></g>
<g><path style="opacity:1" fill="#564033" d="M 21.5,20.5 C 540.333,19.5001 1059.33,19.1668 1578.5,19.5C 1580.5,162.163 1581.17,305.163 1580.5,448.5C 1148.5,448.5 716.5,448.5 284.5,448.5C 284.167,448.5 283.833,448.5 283.5,448.5C 283.5,442.833 283.5,437.167 283.5,431.5C 251.816,432.159 220.482,431.493 189.5,429.5C 189.719,428.325 189.386,427.325 188.5,426.5C 186.146,423.479 183.479,420.812 180.5,418.5C 181.5,418.5 182.5,418.5 183.5,418.5C 186.482,422.196 189.816,425.696 193.5,429C 224.183,428.839 254.517,429.673 284.5,431.5C 284.226,436.263 284.559,440.93 285.5,445.5C 715.165,447.499 1145.17,448.166 1575.5,447.5C 1576.5,447.5 1577.5,447.5 1578.5,447.5C 1579.5,305.334 1579.83,163.001 1579.5,20.5C 1060.83,20.5 542.167,20.5 23.5,20.5C 22.8333,20.5 22.1667,20.5 21.5,20.5 Z"/></g>
<g><path style="opacity:1" fill="#403735" d="M 1575.5,447.5 C 1145.17,448.166 715.165,447.499 285.5,445.5C 711.598,446.833 1137.6,446.833 1563.5,445.5C 1566.79,445.927 1569.79,445.26 1572.5,443.5C 1574.29,444.283 1575.29,445.616 1575.5,447.5 Z"/></g>
<g><path style="opacity:1" fill="#3e3939" d="M 284.5,431.5 C 285.903,434.909 286.57,438.575 286.5,442.5C 289.008,444.237 292.008,445.07 295.5,445C 718.387,445.498 1141.05,445.665 1563.5,445.5C 1137.6,446.833 711.598,446.833 285.5,445.5C 284.559,440.93 284.226,436.263 284.5,431.5 Z"/></g>
<g><path style="opacity:1" fill="#865e44" d="M 284.5,448.5 C 716.5,448.5 1148.5,448.5 1580.5,448.5C 1580.39,449.117 1580.06,449.617 1579.5,450C 1364.17,450.167 1148.83,450.333 933.5,450.5C 718.167,450.333 502.833,450.167 287.5,450C 286.263,449.768 285.263,449.268 284.5,448.5 Z"/></g>
</svg>
