<?xml version="1.0" encoding="UTF-8"?>
<!DOCTYPE svg PUBLIC "-//W3C//DTD SVG 1.1//EN" "http://www.w3.org/Graphics/SVG/1.1/DTD/svg11.dtd">
<svg xmlns="http://www.w3.org/2000/svg" version="1.1" width="1606px" height="480px" style="shape-rendering:geometricPrecision; text-rendering:geometricPrecision; image-rendering:optimizeQuality; fill-rule:evenodd; clip-rule:evenodd" xmlns:xlink="http://www.w3.org/1999/xlink">
<g><path style="opacity:1" fill="#221f20" d="M -0.5,-0.5 C 534.833,-0.5 1070.17,-0.5 1605.5,-0.5C 1605.5,159.5 1605.5,319.5 1605.5,479.5C 1183.5,479.5 761.5,479.5 339.5,479.5C 339.5,471.5 339.5,463.5 339.5,455.5C 753.833,455.5 1168.17,455.5 1582.5,455.5C 1582.5,312.5 1582.5,169.5 1582.5,26.5C 1062.67,26.1668 543,26.5001 23.5,27.5C 22.5004,169.999 22.1671,312.666 22.5,455.5C 61.8333,455.5 101.167,455.5 140.5,455.5C 140.5,463.5 140.5,471.5 140.5,479.5C 93.5,479.5 46.5,479.5 -0.5,479.5C -0.5,319.5 -0.5,159.5 -0.5,-0.5 Z"/></g>
<g><path style="opacity:1" fill="#8e8c8d" d="M 23.5,27.5 C 23.5,169.833 23.5,312.167 23.5,454.5C 62.5,454.5 101.5,454.5 140.5,454.5C 140.5,454.833 140.5,455.167 140.5,455.5C 101.167,455.5 61.8333,455.5 22.5,455.5C 22.1671,312.666 22.5004,169.999 23.5,27.5 Z"/></g>
<g><path style="opacity:1" fill="#c8c8c8" d="M 23.5,27.5 C 542.833,27.5 1062.17,27.5 1581.5,27.5C 1581.5,169.833 1581.5,312.167 1581.5,454.5C 1167.5,454.5 753.5,454.5 339.5,454.5C 339.5,452.833 339.5,451.167 339.5,449.5C 751.833,449.5 1164.17,449.5 1576.5,449.5C 1576.5,310.5 1576.5,171.5 1576.5,32.5C 1061.17,32.5 545.833,32.5 30.5,32.5C 30.5,171.5 30.5,310.5 30.5,449.5C 67.1667,449.5 103.833,449.5 140.5,449.5C 140.5,451.167 140.5,452.833 140.5,454.5C 101.5,454.5 62.5,454.5 23.5,454.5C 23.5,312.167 23.5,169.833 23.5,27.5 Z"/></g>
<g><path style="opacity:1" fill="#f1f1f1" d="M 339.5,449.5 C 339.815,445.629 339.482,441.962 338.5,438.5C 272.5,438.5 206.5,438.5 140.5,438.5C 140.5,442.167 140.5,445.833 140.5,449.5C 103.833,449.5 67.1667,449.5 30.5,449.5C 30.5,310.5 30.5,171.5 30.5,32.5C 545.833,32.5 1061.17,32.5 1576.5,32.5C 1576.5,171.5 1576.5,310.5 1576.5,449.5C 1164.17,449.5 751.833,449.5 339.5,449.5 Z"/></g>
<g><path style="opacity:1" fill="#231f20" d="M 1251.5,71.5 C 1244.11,71.2363 1236.78,71.5696 1229.5,72.5C 1203.33,71.1708 1177,71.1708 1150.5,72.5C 1150.62,73.1067 1150.96,73.44 1151.5,73.5C 1152.17,73.5 1152.5,73.8333 1152.5,74.5C 1151.83,74.5 1151.17,74.5 1150.5,74.5C 1149.21,74.7373 1148.21,74.404 1147.5,73.5C 1126.86,71.5113 1105.86,70.8447 1084.5,71.5C 1084.5,70.1667 1084.5,68.8333 1084.5,67.5C 1140.17,67.5 1195.83,67.5 1251.5,67.5C 1251.5,68.8333 1251.5,70.1667 1251.5,71.5 Z"/></g>
<g><path style="opacity:1" fill="#555555" d="M 1084.5,71.5 C 1105.86,70.8447 1126.86,71.5113 1147.5,73.5C 1126.4,72.844 1105.4,72.1774 1084.5,71.5 Z"/></g>
<g><path style="opacity:1" fill="#545454" d="M 1229.5,72.5 C 1203.33,72.1689 1177.33,72.5022 1151.5,73.5C 1150.96,73.44 1150.62,73.1067 1150.5,72.5C 1177,71.1708 1203.33,71.1708 1229.5,72.5 Z"/></g>
<g><path style="opacity:1" fill="#292728" d="M 434.5,71.5 C 435.879,77.45 437.879,83.45 440.5,89.5C 442.483,88.018 444.316,86.3513 446,84.5C 444.738,90.4204 440.904,93.4204 434.5,93.5C 431.994,93.7793 429.994,92.9459 428.5,91C 436.693,92.6249 438.693,89.6249 434.5,82C 434.167,81.8333 433.833,81.6667 433.5,81.5C 428.15,89.3183 427.65,88.9849 432,80.5C 432.057,77.1888 432.89,74.1888 434.5,71.5 Z"/></g>
<g><path style="opacity:1" fill="#565556" d="M 400.5,100.5 C 405.544,100.173 410.544,100.506 415.5,101.5C 413,101.833 410.5,102.167 408,102.5C 405.071,102.475 402.571,101.809 400.5,100.5 Z"/></g>
<g><path style="opacity:1" fill="#626161" d="M 427.5,103.5 C 436.833,103.5 446.167,103.5 455.5,103.5C 455.5,104.5 455.5,105.5 455.5,106.5C 446.167,106.5 436.833,106.5 427.5,106.5C 427.5,105.5 427.5,104.5 427.5,103.5 Z"/></g>
<g><path style="opacity:1" fill="#454444" d="M 400.5,104.5 C 405.544,104.173 410.544,104.506 415.5,105.5C 413,105.833 410.5,106.167 408,106.5C 405.071,106.475 402.571,105.809 400.5,104.5 Z"/></g>
<g><path style="opacity:1" fill="#272727" d="M 395.5,94.5 C 396.376,94.3691 397.043,94.7025 397.5,95.5C 394.752,100.666 391.752,105.666 388.5,110.5C 386.209,105.589 384.209,100.589 382.5,95.5C 383.822,95.33 384.989,95.6634 386,96.5C 387.444,99.0546 388.611,101.721 389.5,104.5C 391.925,101.411 393.925,98.0781 395.5,94.5 Z"/></g>
<g><path style="opacity:1" fill="#262525" d="M 1296.5,84.5 C 1298.46,91.4238 1299.13,98.7572 1298.5,106.5C 1370.83,106.5 1443.17,106.5 1515.5,106.5C 1515.17,116.522 1515.5,126.522 1516.5,136.5C 1517.17,135.5 1517.83,134.5 1518.5,133.5C 1520.91,134.577 1523.25,135.744 1525.5,137C 1523.04,138.312 1520.54,139.478 1518,140.5C 1517.75,139.376 1517.25,138.376 1516.5,137.5C 1515.5,147.478 1515.17,157.478 1515.5,167.5C 1514.83,167.5 1514.5,167.167 1514.5,166.5C 1514.67,157.494 1514.5,148.494 1514,139.5C 1511.1,146.292 1507.44,152.625 1503,158.5C 1500.52,161.823 1497.35,164.157 1493.5,165.5C 1488.1,168.117 1482.77,168.117 1477.5,165.5C 1469.92,158.697 1464.59,150.364 1461.5,140.5C 1461.03,139.094 1460.03,138.427 1458.5,138.5C 1440.67,137.503 1422.67,137.17 1404.5,137.5C 1404.5,147.167 1404.5,156.833 1404.5,166.5C 1404.17,167.833 1403.83,167.833 1403.5,166.5C 1403.67,158.826 1403.5,151.159 1403,143.5C 1400.68,148.136 1398.35,152.802 1396,157.5C 1393.95,161.048 1391.12,163.715 1387.5,165.5C 1382.56,168.112 1377.56,168.112 1372.5,165.5C 1362.05,160.381 1354.71,152.381 1350.5,141.5C 1350.16,140.662 1349.49,140.328 1348.5,140.5C 1348.5,139.5 1348.5,138.5 1348.5,137.5C 1331.66,137.17 1314.99,137.503 1298.5,138.5C 1298.5,147.833 1298.5,157.167 1298.5,166.5C 1298.5,167.167 1298.5,167.833 1298.5,168.5C 1299.13,175.913 1298.46,182.913 1296.5,189.5C 1296.5,172.167 1296.5,154.833 1296.5,137.5C 1291.17,137.167 1291.17,136.833 1296.5,136.5C 1296.5,119.167 1296.5,101.833 1296.5,84.5 Z"/></g>
<g><path style="opacity:1" fill="#ededed" d="M 1298.5,107.5 C 1304.51,107.334 1310.51,107.501 1316.5,108C 1308.64,113.884 1302.8,121.384 1299,130.5C 1298.5,122.841 1298.33,115.174 1298.5,107.5 Z"/></g>
<g><path style="opacity:1" fill="#ededed" d="M 1347.5,107.5 C 1347.82,115.019 1347.49,122.352 1346.5,129.5C 1342.87,120.74 1337.2,113.573 1329.5,108C 1335.49,107.501 1341.49,107.334 1347.5,107.5 Z"/></g>
<g><path style="opacity:1" fill="#ededed" d="M 1349.5,107.5 C 1367.5,107.5 1385.5,107.5 1403.5,107.5C 1403.5,117.167 1403.5,126.833 1403.5,136.5C 1385.14,137.153 1367.14,136.487 1349.5,134.5C 1349.5,125.5 1349.5,116.5 1349.5,107.5 Z"/></g>
<g><path style="opacity:1" fill="#edecec" d="M 1404.5,107.5 C 1411.17,107.334 1417.84,107.5 1424.5,108C 1415.46,114.051 1408.96,122.217 1405,132.5C 1404.5,124.173 1404.33,115.84 1404.5,107.5 Z"/></g>
<g><path style="opacity:1" fill="#ededed" d="M 1440.5,108.5 C 1446.31,107.51 1452.31,107.177 1458.5,107.5C 1458.67,114.508 1458.5,121.508 1458,128.5C 1454.05,120.056 1448.21,113.39 1440.5,108.5 Z"/></g>
<g><path style="opacity:1" fill="#ebebeb" d="M 1459.5,107.5 C 1477.83,107.5 1496.17,107.5 1514.5,107.5C 1514.5,117.167 1514.5,126.833 1514.5,136.5C 1496.82,136.833 1479.15,136.5 1461.5,135.5C 1461,134.5 1460.5,133.5 1460,132.5C 1459.5,124.173 1459.33,115.84 1459.5,107.5 Z"/></g>
<g><path style="opacity:1" fill="#f0f0f0" d="M 1458.5,135.5 C 1440.99,135.83 1423.66,135.497 1406.5,134.5C 1410.38,123.789 1417.05,115.289 1426.5,109C 1432.3,107.776 1437.64,108.776 1442.5,112C 1450.07,118.384 1455.4,126.217 1458.5,135.5 Z"/></g>
<g><path style="opacity:1" fill="#efefef" d="M 1346.5,134.5 C 1330.83,135.833 1315.17,135.833 1299.5,134.5C 1315.02,99.9136 1330.69,99.9136 1346.5,134.5 Z"/></g>
<g><path style="opacity:1" fill="#302f2f" d="M 1150.5,74.5 C 1151.17,74.5 1151.83,74.5 1152.5,74.5C 1154.72,75.2026 1156.55,76.5359 1158,78.5C 1158.13,81.5251 1159.13,84.1918 1161,86.5C 1161.93,90.2621 1161.43,93.7621 1159.5,97C 1162.14,101.448 1162.14,105.948 1159.5,110.5C 1162.17,115.167 1162.17,119.833 1159.5,124.5C 1162.53,129.949 1161.86,134.949 1157.5,139.5C 1158.97,142.793 1158.3,145.627 1155.5,148C 1153.13,149.185 1150.8,150.351 1148.5,151.5C 1147.83,151.167 1147.17,150.833 1146.5,150.5C 1149.57,149.215 1152.4,147.549 1155,145.5C 1155.78,144.056 1155.61,142.723 1154.5,141.5C 1144.69,145.164 1134.53,146.831 1124,146.5C 1114.48,147.231 1105.65,145.231 1097.5,140.5C 1096.25,138.958 1096.25,137.458 1097.5,136C 1101.28,134.053 1105.28,132.72 1109.5,132C 1092.7,127.991 1092.37,123.324 1108.5,118C 1093.18,114.131 1092.85,109.798 1107.5,105C 1092.58,99.0043 1093.25,94.3376 1109.5,91C 1103.83,90.9063 1099.5,88.573 1096.5,84C 1097.66,81.4074 1099.66,79.7408 1102.5,79C 1114.72,76.5841 1127.05,75.9175 1139.5,77C 1144.89,77.8058 1150.06,79.3058 1155,81.5C 1155,78.307 1153.5,75.9737 1150.5,74.5 Z"/></g>
<g><path style="opacity:1" fill="#e9e9e9" d="M 1155.5,99.5 C 1158.49,99.1547 1159.82,100.488 1159.5,103.5C 1159.49,105.854 1158.66,107.854 1157,109.5C 1153.33,107.457 1149.5,105.791 1145.5,104.5C 1149.44,103.862 1152.78,102.195 1155.5,99.5 Z"/></g>
<g><path style="opacity:1" fill="#ebebeb" d="M 1114.5,105.5 C 1127.03,104.796 1139.36,105.963 1151.5,109C 1153.39,110.079 1153.73,111.413 1152.5,113C 1149.34,114.578 1146.01,115.578 1142.5,116C 1128.72,117.143 1115.05,116.476 1101.5,114C 1099,112.216 1099,110.549 1101.5,109C 1105.97,107.88 1110.31,106.714 1114.5,105.5 Z"/></g>
<g><path style="opacity:1" fill="#edecec" d="M 1111.5,92.5 C 1120.84,92.3335 1130.17,92.5002 1139.5,93C 1143.94,93.5275 1148.28,94.5275 1152.5,96C 1153.93,97.7141 1153.59,99.0475 1151.5,100C 1135.59,104.227 1119.59,104.561 1103.5,101C 1097.57,99.4791 1097.23,97.4791 1102.5,95C 1105.74,94.5939 1108.74,93.7605 1111.5,92.5 Z"/></g>
<g><path style="opacity:1" fill="#e7e6e6" d="M 1156.5,85.5 C 1159.33,87.4065 1160.17,90.0732 1159,93.5C 1158.31,94.3567 1157.48,95.0233 1156.5,95.5C 1152.33,93.5406 1148,92.0406 1143.5,91C 1148.61,90.7743 1152.94,88.9409 1156.5,85.5 Z"/></g>
<g><path style="opacity:1" fill="#ecedec" d="M 1114.5,78.5 C 1127.03,77.8495 1139.36,79.0162 1151.5,82C 1153.59,82.9525 1153.93,84.2859 1152.5,86C 1148.28,87.4725 1143.94,88.4725 1139.5,89C 1130.17,89.6667 1120.83,89.6667 1111.5,89C 1106.52,88.8966 1102.18,87.2299 1098.5,84C 1100,82.7485 1101.67,81.7485 1103.5,81C 1107.39,80.5812 1111.06,79.7479 1114.5,78.5 Z"/></g>
<g><path style="opacity:1" fill="#e8e8e8" d="M 1156.5,112.5 C 1159.33,114.407 1160.17,117.073 1159,120.5C 1158.31,121.357 1157.48,122.023 1156.5,122.5C 1152.22,120.847 1147.89,119.347 1143.5,118C 1148.39,117.214 1152.73,115.38 1156.5,112.5 Z"/></g>
<g><path style="opacity:1" fill="#ececec" d="M 1112.5,119.5 C 1126.04,118.699 1139.37,119.865 1152.5,123C 1153.71,125.709 1152.71,127.375 1149.5,128C 1135.24,130.906 1120.91,131.239 1106.5,129C 1103.41,128.421 1100.75,127.087 1098.5,125C 1099.55,123.615 1100.88,122.615 1102.5,122C 1105.99,121.262 1109.32,120.429 1112.5,119.5 Z"/></g>
<g><path style="opacity:1" fill="#656565" d="M 1347.5,107.5 C 1348.17,107.5 1348.83,107.5 1349.5,107.5C 1349.5,116.5 1349.5,125.5 1349.5,134.5C 1348.26,133.035 1347.26,131.368 1346.5,129.5C 1347.49,122.352 1347.82,115.019 1347.5,107.5 Z"/></g>
<g><path style="opacity:1" fill="#2a2929" d="M 112.5,45.5 C 127.418,43.9934 141.751,46.16 155.5,52C 209.253,63.4166 262.919,75.0833 316.5,87C 328.085,92.3457 331.918,101.179 328,113.5C 324.849,119.317 320.016,122.817 313.5,124C 252.559,136.521 191.892,150.188 131.5,165C 100.689,166.507 79.5224,153.007 68,124.5C 59.492,84.8365 74.3254,58.5032 112.5,45.5 Z"/></g>
<g><path style="opacity:1" fill="#efefef" d="M 305.5,89.5 C 320.873,88.2783 327.706,95.2783 326,110.5C 321.527,119.482 314.36,122.649 304.5,120C 295.767,115.131 292.934,107.965 296,98.5C 298.406,94.5915 301.572,91.5915 305.5,89.5 Z"/></g>
<g><path style="opacity:1" fill="#f0f0f0" d="M 161.5,57.5 C 207.464,66.1964 253.464,76.0297 299.5,87C 300.167,87.3333 300.833,87.6667 301.5,88C 290.958,95.5448 288.792,105.045 295,116.5C 297.016,118.684 299.183,120.684 301.5,122.5C 254.266,133.602 206.932,144.102 159.5,154C 176.72,141.726 185.053,124.892 184.5,103.5C 184.283,84.399 176.616,69.0657 161.5,57.5 Z"/></g>
<g><path style="opacity:1" fill="#eeeeee" d="M 113.5,48.5 C 126.898,48.2659 139.898,50.4326 152.5,55C 179.997,73.4895 188.164,97.9895 177,128.5C 166.169,150.555 148.836,160.888 125,159.5C 123.13,160.743 120.964,161.41 118.5,161.5C 92.3753,157.213 75.8753,142.213 69,116.5C 65.5635,81.6728 80.3968,59.0061 113.5,48.5 Z"/></g>
<g><path style="opacity:1" fill="#e6e5e5" d="M 1155.5,126.5 C 1158.49,126.155 1159.82,127.488 1159.5,130.5C 1158.76,137.501 1156.1,138.667 1151.5,134C 1141.18,132.231 1141.52,130.565 1152.5,129C 1153.94,128.623 1154.94,127.79 1155.5,126.5 Z"/></g>
<g><path style="opacity:1" fill="#312f30" d="M 1251.5,71.5 C 1246.01,72.3272 1240.35,72.8272 1234.5,73C 1237.72,76.511 1239.22,80.6776 1239,85.5C 1243.77,91.099 1243.6,96.599 1238.5,102C 1243.5,107.506 1243.83,113.34 1239.5,119.5C 1240.56,122.196 1241.56,124.863 1242.5,127.5C 1242,130.825 1241,133.991 1239.5,137C 1240.2,138.893 1241.03,140.726 1242,142.5C 1242.76,144.769 1242.59,146.936 1241.5,149C 1242.31,149.308 1242.97,149.808 1243.5,150.5C 1240.87,151.293 1239.04,152.96 1238,155.5C 1239.72,161.575 1237.89,166.408 1232.5,170C 1222.62,172.093 1222.29,171.427 1231.5,168C 1235.26,165.675 1236.59,162.508 1235.5,158.5C 1231.88,161.144 1227.88,162.977 1223.5,164C 1209.96,166.621 1196.63,165.954 1183.5,162C 1177.22,160.312 1175.55,156.812 1178.5,151.5C 1178.29,150.914 1177.96,150.414 1177.5,150C 1182.23,149.317 1186.9,148.317 1191.5,147C 1186.11,146.056 1181.28,143.89 1177,140.5C 1176.1,137.975 1176.6,135.808 1178.5,134C 1182.33,131.749 1186.33,130.082 1190.5,129C 1185.26,128.297 1180.76,126.13 1177,122.5C 1176.25,119.211 1177.42,116.711 1180.5,115C 1183.41,113.714 1186.41,112.714 1189.5,112C 1172.06,105.272 1172.4,99.2717 1190.5,94C 1186.61,93.2606 1182.95,91.9272 1179.5,90C 1175.5,87 1175.5,84 1179.5,81C 1184.44,78.0984 1189.77,76.4317 1195.5,76C 1209.72,74.0964 1223.39,75.9297 1236.5,81.5C 1235.31,77.6425 1232.98,74.6425 1229.5,72.5C 1236.78,71.5696 1244.11,71.2363 1251.5,71.5 Z"/></g>
<g><path style="opacity:1" fill="#ededed" d="M 1194.5,130.5 C 1204.54,130.244 1214.54,130.744 1224.5,132C 1237.78,136.479 1237.44,140.479 1223.5,144C 1210.74,146.3 1198.07,145.966 1185.5,143C 1182.66,142.259 1180.66,140.593 1179.5,138C 1179.76,136.739 1180.43,135.739 1181.5,135C 1185.71,132.763 1190.05,131.263 1194.5,130.5 Z"/></g>
<g><path style="opacity:1" fill="#e8e9e9" d="M 1236.5,121.5 C 1238.96,122.874 1239.96,125.04 1239.5,128C 1239.74,130.891 1238.91,133.391 1237,135.5C 1232.18,132.557 1227.01,130.391 1221.5,129C 1224.89,128.202 1228.23,127.202 1231.5,126C 1233.66,125.004 1235.33,123.504 1236.5,121.5 Z"/></g>
<g><path style="opacity:1" fill="#ededed" d="M 1198.5,112.5 C 1208.71,111.929 1218.71,113.096 1228.5,116C 1236.5,119 1236.5,122 1228.5,125C 1214.92,127.947 1201.25,128.28 1187.5,126C 1176.11,122.955 1175.78,119.288 1186.5,115C 1190.64,114.161 1194.64,113.327 1198.5,112.5 Z"/></g>
<g><path style="opacity:1" fill="#e7e6e6" d="M 1236.5,104.5 C 1238.93,105.607 1239.93,107.607 1239.5,110.5C 1239.6,112.926 1238.93,115.093 1237.5,117C 1232.51,114.786 1227.18,113.119 1221.5,112C 1224.36,110.754 1227.36,109.754 1230.5,109C 1233.11,108.208 1235.11,106.708 1236.5,104.5 Z"/></g>
<g><path style="opacity:1" fill="#ececec" d="M 1194.5,95.5 C 1202.84,95.3336 1211.17,95.5003 1219.5,96C 1225.27,96.5559 1230.27,98.7225 1234.5,102.5C 1230.06,107.542 1224.39,110.042 1217.5,110C 1208.12,110.816 1198.79,110.483 1189.5,109C 1184.89,108.546 1181.56,106.379 1179.5,102.5C 1180.88,100.295 1182.88,98.7946 1185.5,98C 1188.63,97.1588 1191.63,96.3254 1194.5,95.5 Z"/></g>
<g><path style="opacity:1" fill="#e9e9e9" d="M 1236.5,86.5 C 1238.96,87.8738 1239.96,90.0405 1239.5,93C 1239.74,95.8912 1238.91,98.3912 1237,100.5C 1232.21,97.566 1227.04,95.3993 1221.5,94C 1227.87,93.9865 1232.87,91.4865 1236.5,86.5 Z"/></g>
<g><path style="opacity:1" fill="#eaebeb" d="M 1195.5,77.5 C 1207.85,76.5477 1219.85,78.0477 1231.5,82C 1235.58,84.8601 1235.25,87.1935 1230.5,89C 1227.34,90.5781 1224.01,91.5781 1220.5,92C 1210.83,92.6667 1201.17,92.6667 1191.5,92C 1187.61,91.2606 1183.95,89.9272 1180.5,88C 1178.78,84.5921 1179.78,82.2587 1183.5,81C 1187.62,79.8077 1191.62,78.641 1195.5,77.5 Z"/></g>
<g><path style="opacity:1" fill="#e9e9e9" d="M 1123.5,132.5 C 1129.82,133.025 1136.16,133.525 1142.5,134C 1146.55,134.627 1150.22,136.127 1153.5,138.5C 1152.22,140.146 1150.55,141.313 1148.5,142C 1132.72,145.661 1117.05,145.327 1101.5,141C 1099.61,139.921 1099.27,138.587 1100.5,137C 1102.96,135.438 1105.62,134.438 1108.5,134C 1113.68,133.826 1118.68,133.326 1123.5,132.5 Z"/></g>
<g><path style="opacity:1" fill="#878686" d="M 1299.5,134.5 C 1315.17,135.833 1330.83,135.833 1346.5,134.5C 1347.04,134.56 1347.38,134.893 1347.5,135.5C 1331.17,136.833 1314.83,136.833 1298.5,135.5C 1298.62,134.893 1298.96,134.56 1299.5,134.5 Z"/></g>
<g><path style="opacity:1" fill="#888788" d="M 1406.5,134.5 C 1423.66,135.497 1440.99,135.83 1458.5,135.5C 1441,136.827 1423.33,136.827 1405.5,135.5C 1405.62,134.893 1405.96,134.56 1406.5,134.5 Z"/></g>
<g><path style="opacity:1" fill="#302f30" d="M 1532.5,126.5 C 1536.51,126.334 1540.51,126.501 1544.5,127C 1548.49,130.286 1548.49,133.619 1544.5,137C 1545.42,137.374 1546.25,137.874 1547,138.5C 1547.73,141.23 1547.56,143.897 1546.5,146.5C 1545.97,147.192 1545.31,147.692 1544.5,148C 1540.51,148.499 1536.51,148.666 1532.5,148.5C 1532.5,141.167 1532.5,133.833 1532.5,126.5 Z"/></g>
<g><path style="opacity:1" fill="#e3e2e3" d="M 1534.5,128.5 C 1537.19,128.336 1539.85,128.503 1542.5,129C 1545.17,131 1545.17,133 1542.5,135C 1539.85,135.497 1537.19,135.664 1534.5,135.5C 1534.5,133.167 1534.5,130.833 1534.5,128.5 Z"/></g>
<g><path style="opacity:1" fill="#888888" d="M 1298.5,138.5 C 1314.99,137.503 1331.66,137.17 1348.5,137.5C 1348.5,138.5 1348.5,139.5 1348.5,140.5C 1348.83,149.349 1348.49,158.016 1347.5,166.5C 1347.5,157.167 1347.5,147.833 1347.5,138.5C 1331.17,138.5 1314.83,138.5 1298.5,138.5 Z"/></g>
<g><path style="opacity:1" fill="#888888" d="M 1351.5,138.5 C 1368.34,137.173 1385.34,137.173 1402.5,138.5C 1402.38,139.107 1402.04,139.44 1401.5,139.5C 1385.01,138.503 1368.34,138.17 1351.5,138.5 Z"/></g>
<g><path style="opacity:1" fill="#878686" d="M 1511.5,139.5 C 1495.5,138.167 1479.5,138.167 1463.5,139.5C 1462.96,139.44 1462.62,139.107 1462.5,138.5C 1479.17,137.167 1495.83,137.167 1512.5,138.5C 1512.38,139.107 1512.04,139.44 1511.5,139.5 Z"/></g>
<g><path style="opacity:1" fill="#f1f2f2" d="M 1298.5,138.5 C 1314.83,138.5 1331.17,138.5 1347.5,138.5C 1347.5,147.833 1347.5,157.167 1347.5,166.5C 1331.17,166.5 1314.83,166.5 1298.5,166.5C 1298.5,157.167 1298.5,147.833 1298.5,138.5 Z"/></g>
<g><path style="opacity:1" fill="#efefef" d="M 1351.5,138.5 C 1368.34,138.17 1385.01,138.503 1401.5,139.5C 1398.92,149.164 1393.92,157.331 1386.5,164C 1379.13,166.437 1372.46,165.104 1366.5,160C 1359.88,153.91 1354.88,146.744 1351.5,138.5 Z"/></g>
<g><path style="opacity:1" fill="#eeeeee" d="M 1458.5,138.5 C 1458.5,147.833 1458.5,157.167 1458.5,166.5C 1440.5,166.5 1422.5,166.5 1404.5,166.5C 1404.5,156.833 1404.5,147.167 1404.5,137.5C 1422.67,137.17 1440.67,137.503 1458.5,138.5 Z"/></g>
<g><path style="opacity:1" fill="#efefef" d="M 1511.5,139.5 C 1507.94,150.222 1501.28,158.389 1491.5,164C 1483.81,167.269 1477.64,165.435 1473,158.5C 1469.3,152.423 1466.13,146.09 1463.5,139.5C 1479.5,138.167 1495.5,138.167 1511.5,139.5 Z"/></g>
<g><path style="opacity:1" fill="#f1f1f1" d="M 1535.5,138.5 C 1538.19,138.336 1540.85,138.503 1543.5,139C 1544.83,141 1544.83,143 1543.5,145C 1540.85,145.497 1538.19,145.664 1535.5,145.5C 1535.5,143.167 1535.5,140.833 1535.5,138.5 Z"/></g>
<g><path style="opacity:1" fill="#292829" d="M 116.5,67.5 C 147.843,66.3432 163.009,81.3432 162,112.5C 155.067,135.562 139.567,145.396 115.5,142C 93.9112,134.006 84.7446,118.506 88,95.5C 92.7862,81.2124 102.286,71.8791 116.5,67.5 Z"/></g>
<g><path style="opacity:1" fill="#eeeeee" d="M 117.5,70.5 C 136.278,68.9698 149.778,76.6365 158,93.5C 159.108,97.0863 159.608,100.753 159.5,104.5C 155.5,104.833 155.5,105.167 159.5,105.5C 157.824,126.509 146.491,137.843 125.5,139.5C 125.167,135.5 124.833,135.5 124.5,139.5C 107.665,138.168 96.4985,129.501 91,113.5C 88.1544,91.8415 96.9878,77.5081 117.5,70.5 Z"/></g>
<g><path style="opacity:1" fill="#8a8a8a" d="M 123.5,120.5 C 124.586,120.62 125.253,121.287 125.5,122.5C 125.167,123.167 124.833,123.833 124.5,124.5C 123.571,123.311 123.238,121.978 123.5,120.5 Z"/></g>
<g><path style="opacity:1" fill="#959595" d="M 132.5,104.5 C 134.288,104.215 135.955,104.548 137.5,105.5C 136.667,105.833 135.833,106.167 135,106.5C 133.624,106.316 132.791,105.649 132.5,104.5 Z"/></g>
<g><path style="opacity:1" fill="#2b292a" d="M 440.5,110.5 C 441.5,110.5 442.5,110.5 443.5,110.5C 443.5,113.833 443.5,117.167 443.5,120.5C 444.552,120.351 445.552,120.517 446.5,121C 444.998,121.583 443.665,122.416 442.5,123.5C 441.253,126.329 439.753,128.995 438,131.5C 437.333,133.833 437.333,136.167 438,138.5C 438.725,140.158 439.892,140.658 441.5,140C 443.681,137.239 446.015,135.406 448.5,134.5C 446.458,138.709 443.292,141.709 439,143.5C 436.575,142.739 435.242,141.072 435,138.5C 435.087,133.037 434.254,127.87 432.5,123C 435.04,118.753 437.707,114.587 440.5,110.5 Z"/></g>
<g><path style="opacity:1" fill="#e0dedf" d="M 437.5,123.5 C 439.97,124.36 440.137,125.694 438,127.5C 437.51,126.207 437.343,124.873 437.5,123.5 Z"/></g>
<g><path style="opacity:1" fill="#cfcccd" d="M 440.5,113.5 C 441.649,113.791 442.316,114.624 442.5,116C 442.642,118.912 441.309,120.412 438.5,120.5C 438.4,117.892 439.067,115.558 440.5,113.5 Z"/></g>
<g><path style="opacity:1" fill="#b8b7b7" d="M 1296.5,84.5 C 1296.5,101.833 1296.5,119.167 1296.5,136.5C 1291.17,136.833 1291.17,137.167 1296.5,137.5C 1296.5,154.833 1296.5,172.167 1296.5,189.5C 1295.5,172.675 1295.17,155.675 1295.5,138.5C 1294.17,138.5 1292.83,138.5 1291.5,138.5C 1291.5,137.5 1291.5,136.5 1291.5,135.5C 1292.83,135.5 1294.17,135.5 1295.5,135.5C 1295.17,118.325 1295.5,101.325 1296.5,84.5 Z"/></g>
<g><path style="opacity:1" fill="#2b2a2a" d="M 1274.5,126.5 C 1275.82,126.33 1276.99,126.663 1278,127.5C 1281,134.345 1283.5,141.345 1285.5,148.5C 1284.5,148.5 1283.5,148.5 1282.5,148.5C 1281.9,141.587 1278.23,139.587 1271.5,142.5C 1270.25,144.323 1269.59,146.323 1269.5,148.5C 1268.5,148.5 1267.5,148.5 1266.5,148.5C 1268.97,141.097 1271.63,133.764 1274.5,126.5 Z"/></g>
<g><path style="opacity:1" fill="#848283" d="M 1273.5,137.5 C 1275.17,138.833 1276.83,138.833 1278.5,137.5C 1279.04,137.56 1279.38,137.893 1279.5,138.5C 1277.17,139.833 1274.83,139.833 1272.5,138.5C 1272.62,137.893 1272.96,137.56 1273.5,137.5 Z"/></g>
<g><path style="opacity:1" fill="#e9e7e8" d="M 1278.5,137.5 C 1276.83,138.833 1275.17,138.833 1273.5,137.5C 1275.18,128.189 1276.84,128.189 1278.5,137.5 Z"/></g>
<g><path style="opacity:1" fill="#e8e8e8" d="M 1236.5,139.5 C 1238.93,140.607 1239.93,142.607 1239.5,145.5C 1239.62,148.597 1238.62,151.264 1236.5,153.5C 1234.51,152.711 1234.18,151.545 1235.5,150C 1230.7,149.622 1226.03,148.622 1221.5,147C 1224.44,145.848 1227.44,144.848 1230.5,144C 1233.11,143.208 1235.11,141.708 1236.5,139.5 Z"/></g>
<g><path style="opacity:1" fill="#e8e8e8" d="M 1193.5,149.5 C 1201.65,147.068 1209.98,146.901 1218.5,149C 1215.97,149.998 1215.97,150.831 1218.5,151.5C 1224.83,148.918 1230.16,150.418 1234.5,156C 1229.24,160.09 1223.24,162.423 1216.5,163C 1206.38,163.994 1196.38,163.328 1186.5,161C 1183.27,159.894 1180.61,158.061 1178.5,155.5C 1179.36,153.803 1180.7,152.637 1182.5,152C 1186.25,151.379 1189.92,150.546 1193.5,149.5 Z"/></g>
<g><path style="opacity:1" fill="#eae9e9" d="M 1514.5,166.5 C 1507.31,166.825 1500.31,166.491 1493.5,165.5C 1497.35,164.157 1500.52,161.823 1503,158.5C 1507.44,152.625 1511.1,146.292 1514,139.5C 1514.5,148.494 1514.67,157.494 1514.5,166.5 Z"/></g>
<g><path style="opacity:1" fill="#777777" d="M 1084.5,149.5 C 1085.98,149.238 1087.31,149.571 1088.5,150.5C 1087.83,150.833 1087.17,151.167 1086.5,151.5C 1085.29,151.253 1084.62,150.586 1084.5,149.5 Z"/></g>
<g><path style="opacity:1" fill="#777777" d="M 1092.5,149.5 C 1093.98,149.238 1095.31,149.571 1096.5,150.5C 1095.83,150.833 1095.17,151.167 1094.5,151.5C 1093.29,151.253 1092.62,150.586 1092.5,149.5 Z"/></g>
<g><path style="opacity:1" fill="#878787" d="M 1099.5,149.5 C 1101.29,149.215 1102.95,149.548 1104.5,150.5C 1103.67,150.833 1102.83,151.167 1102,151.5C 1100.62,151.316 1099.79,150.649 1099.5,149.5 Z"/></g>
<g><path style="opacity:1" fill="#848484" d="M 1107.5,149.5 C 1109.29,149.215 1110.95,149.548 1112.5,150.5C 1111.67,150.833 1110.83,151.167 1110,151.5C 1108.62,151.316 1107.79,150.649 1107.5,149.5 Z"/></g>
<g><path style="opacity:1" fill="#777777" d="M 1115.5,149.5 C 1116.98,149.238 1118.31,149.571 1119.5,150.5C 1118.83,150.833 1118.17,151.167 1117.5,151.5C 1116.29,151.253 1115.62,150.586 1115.5,149.5 Z"/></g>
<g><path style="opacity:1" fill="#787878" d="M 1123.5,149.5 C 1124.98,149.238 1126.31,149.571 1127.5,150.5C 1126.83,150.833 1126.17,151.167 1125.5,151.5C 1124.29,151.253 1123.62,150.586 1123.5,149.5 Z"/></g>
<g><path style="opacity:1" fill="#878787" d="M 1130.5,149.5 C 1132.29,149.215 1133.95,149.548 1135.5,150.5C 1134.67,150.833 1133.83,151.167 1133,151.5C 1131.62,151.316 1130.79,150.649 1130.5,149.5 Z"/></g>
<g><path style="opacity:1" fill="#767676" d="M 1154.5,149.5 C 1155.98,149.238 1157.31,149.571 1158.5,150.5C 1157.83,150.833 1157.17,151.167 1156.5,151.5C 1155.29,151.253 1154.62,150.586 1154.5,149.5 Z"/></g>
<g><path style="opacity:1" fill="#868686" d="M 1161.5,149.5 C 1163.29,149.215 1164.95,149.548 1166.5,150.5C 1165.67,150.833 1164.83,151.167 1164,151.5C 1162.62,151.316 1161.79,150.649 1161.5,149.5 Z"/></g>
<g><path style="opacity:1" fill="#7d7d7d" d="M 1193.5,149.5 C 1194.98,149.238 1196.31,149.571 1197.5,150.5C 1196.83,150.833 1196.17,151.167 1195.5,151.5C 1194.29,151.253 1193.62,150.586 1193.5,149.5 Z"/></g>
<g><path style="opacity:1" fill="#7d7d7d" d="M 1208.5,149.5 C 1209.98,149.238 1211.31,149.571 1212.5,150.5C 1211.83,150.833 1211.17,151.167 1210.5,151.5C 1209.29,151.253 1208.62,150.586 1208.5,149.5 Z"/></g>
<g><path style="opacity:1" fill="#767676" d="M 1247.5,149.5 C 1248.98,149.238 1250.31,149.571 1251.5,150.5C 1250.83,150.833 1250.17,151.167 1249.5,151.5C 1248.29,151.253 1247.62,150.586 1247.5,149.5 Z"/></g>
<g><path style="opacity:1" fill="#ededed" d="M 1461.5,140.5 C 1464.59,150.364 1469.92,158.697 1477.5,165.5C 1472.02,166.489 1466.36,166.822 1460.5,166.5C 1460.17,157.651 1460.51,148.984 1461.5,140.5 Z"/></g>
<g><path style="opacity:1" fill="#8a8a8a" d="M 123.5,152.5 C 124.586,152.62 125.253,153.287 125.5,154.5C 125.167,155.167 124.833,155.833 124.5,156.5C 123.571,155.311 123.238,153.978 123.5,152.5 Z"/></g>
<g><path style="opacity:1" fill="#686868" d="M 1458.5,138.5 C 1460.03,138.427 1461.03,139.094 1461.5,140.5C 1460.51,148.984 1460.17,157.651 1460.5,166.5C 1466.36,166.822 1472.02,166.489 1477.5,165.5C 1482.77,168.117 1488.1,168.117 1493.5,165.5C 1500.31,166.491 1507.31,166.825 1514.5,166.5C 1514.5,167.167 1514.83,167.5 1515.5,167.5C 1443.34,168.499 1371,168.833 1298.5,168.5C 1298.5,167.833 1298.5,167.167 1298.5,166.5C 1314.83,166.5 1331.17,166.5 1347.5,166.5C 1348.49,158.016 1348.83,149.349 1348.5,140.5C 1349.49,140.328 1350.16,140.662 1350.5,141.5C 1349.51,149.65 1349.17,157.983 1349.5,166.5C 1357.35,166.825 1365.02,166.492 1372.5,165.5C 1377.56,168.112 1382.56,168.112 1387.5,165.5C 1392.64,166.488 1397.97,166.821 1403.5,166.5C 1403.83,167.833 1404.17,167.833 1404.5,166.5C 1422.5,166.5 1440.5,166.5 1458.5,166.5C 1458.5,157.167 1458.5,147.833 1458.5,138.5 Z"/></g>
<g><path style="opacity:1" fill="#ebebeb" d="M 1403.5,166.5 C 1397.97,166.821 1392.64,166.488 1387.5,165.5C 1391.12,163.715 1393.95,161.048 1396,157.5C 1398.35,152.802 1400.68,148.136 1403,143.5C 1403.5,151.159 1403.67,158.826 1403.5,166.5 Z"/></g>
<g><path style="opacity:1" fill="#eeeeee" d="M 1350.5,141.5 C 1354.71,152.381 1362.05,160.381 1372.5,165.5C 1365.02,166.492 1357.35,166.825 1349.5,166.5C 1349.17,157.983 1349.51,149.65 1350.5,141.5 Z"/></g>
<g><path style="opacity:1" fill="#8b8b8b" d="M 1170.5,169.5 C 1171.98,169.238 1173.31,169.571 1174.5,170.5C 1173.83,170.833 1173.17,171.167 1172.5,171.5C 1171.29,171.253 1170.62,170.586 1170.5,169.5 Z"/></g>
<g><path style="opacity:1" fill="#8b8b8b" d="M 1201.5,169.5 C 1202.98,169.238 1204.31,169.571 1205.5,170.5C 1204.83,170.833 1204.17,171.167 1203.5,171.5C 1202.29,171.253 1201.62,170.586 1201.5,169.5 Z"/></g>
<g><path style="opacity:1" fill="#2b2a2a" d="M 462.5,183.5 C 463.978,183.238 465.311,183.571 466.5,184.5C 465.833,184.833 465.167,185.167 464.5,185.5C 463.287,185.253 462.62,184.586 462.5,183.5 Z"/></g>
<g><path style="opacity:1" fill="#3b3b3b" d="M 469.5,183.5 C 471.09,183.628 472.423,184.295 473.5,185.5C 471.167,186.941 469.834,186.275 469.5,183.5 Z"/></g>
<g><path style="opacity:1" fill="#3c3c3c" d="M 288.5,184.5 C 290.792,184.244 292.959,184.577 295,185.5C 295.559,189.553 294.059,192.72 290.5,195C 292.54,196.38 294.54,196.88 296.5,196.5C 296.291,197.086 295.957,197.586 295.5,198C 292.118,198.824 288.784,198.657 285.5,197.5C 290.392,194.952 292.726,190.952 292.5,185.5C 290.097,185.393 288.264,186.393 287,188.5C 286.7,186.934 287.2,185.601 288.5,184.5 Z"/></g>
<g><path style="opacity:1" fill="#464646" d="M 456.5,186.5 C 460.157,186.974 460.324,188.307 457,190.5C 455.232,189.318 455.065,187.985 456.5,186.5 Z"/></g>
<g><path style="opacity:1" fill="#323031" d="M 476.5,187.5 C 479.564,187.981 480.398,189.314 479,191.5C 477.519,190.529 476.685,189.196 476.5,187.5 Z"/></g>
<g><path style="opacity:1" fill="#3b3b3b" d="M 452.5,192.5 C 454.176,193.183 454.843,194.517 454.5,196.5C 453.325,196.719 452.325,196.386 451.5,195.5C 452.127,194.583 452.461,193.583 452.5,192.5 Z"/></g>
<g><path style="opacity:1" fill="#080808" d="M 681.5,192.5 C 689.775,191.706 692.942,195.373 691,203.5C 686.667,208.833 682.333,208.833 678,203.5C 676.663,198.872 677.83,195.205 681.5,192.5 Z"/></g>
<g><path style="opacity:1" fill="#0c0c0c" d="M 799.5,192.5 C 805.629,191.555 809.296,194.055 810.5,200C 809.296,206.106 805.629,208.439 799.5,207C 794.225,202.122 794.225,197.289 799.5,192.5 Z"/></g>
<g><path style="opacity:1" fill="#2a2829" d="M 195.5,193.5 C 194.596,194.209 194.263,195.209 194.5,196.5C 196.735,196.795 198.735,196.461 200.5,195.5C 202.288,195.215 203.955,195.548 205.5,196.5C 201.698,198.323 197.698,199.323 193.5,199.5C 192.566,206.718 195.566,210.218 202.5,210C 204.996,208.669 206.996,206.836 208.5,204.5C 209.625,205.348 209.625,206.348 208.5,207.5C 203.19,214.252 197.357,214.919 191,209.5C 190.047,206.568 189.547,203.568 189.5,200.5C 185.807,199.753 185.807,198.42 189.5,196.5C 191.523,191.62 194.19,187.12 197.5,183C 200.366,181.543 203.366,181.21 206.5,182C 207.747,183.494 207.747,184.994 206.5,186.5C 205.259,183.856 203.259,183.023 200.5,184C 198.15,186.869 196.484,190.035 195.5,193.5 Z"/></g>
<g><path style="opacity:1" fill="#929191" d="M 195.5,193.5 C 196.552,195.256 198.219,195.923 200.5,195.5C 198.735,196.461 196.735,196.795 194.5,196.5C 194.263,195.209 194.596,194.209 195.5,193.5 Z"/></g>
<g><path style="opacity:1" fill="#2e2e2e" d="M 480.5,194.5 C 481.586,194.62 482.253,195.287 482.5,196.5C 482.167,197.167 481.833,197.833 481.5,198.5C 480.571,197.311 480.238,195.978 480.5,194.5 Z"/></g>
<g><path style="opacity:1" fill="#010101" d="M 638.5,261.5 C 647.986,262.494 657.652,262.827 667.5,262.5C 667.5,265.833 667.5,269.167 667.5,272.5C 653.167,272.5 638.833,272.5 624.5,272.5C 624.5,247.5 624.5,222.5 624.5,197.5C 629.167,197.5 633.833,197.5 638.5,197.5C 638.5,218.833 638.5,240.167 638.5,261.5 Z"/></g>
<g><path style="opacity:1" fill="#292929" d="M 451.5,200.5 C 452.586,200.62 453.253,201.287 453.5,202.5C 453.167,203.167 452.833,203.833 452.5,204.5C 451.571,203.311 451.238,201.978 451.5,200.5 Z"/></g>
<g><path style="opacity:1" fill="#080808" d="M 838.5,216.5 C 843.305,217.487 848.305,217.821 853.5,217.5C 853.5,220.5 853.5,223.5 853.5,226.5C 848.305,226.179 843.305,226.513 838.5,227.5C 838.333,238.505 838.5,249.505 839,260.5C 839.374,261.416 839.874,262.25 840.5,263C 844.853,263.245 849.187,263.245 853.5,263C 854.713,265.687 855.38,268.52 855.5,271.5C 849.629,273.323 843.629,273.823 837.5,273C 830.216,271.382 826.049,266.882 825,259.5C 824.5,248.505 824.333,237.505 824.5,226.5C 822.833,226.5 821.167,226.5 819.5,226.5C 819.5,223.167 819.5,219.833 819.5,216.5C 821.167,216.5 822.833,216.5 824.5,216.5C 825.22,212.27 825.887,207.937 826.5,203.5C 830.452,202.728 834.452,202.395 838.5,202.5C 838.5,207.167 838.5,211.833 838.5,216.5 Z"/></g>
<g><path style="opacity:1" fill="#939192" d="M 224.5,206.5 C 219.637,206.181 214.97,206.514 210.5,207.5C 209.833,207.5 209.167,207.5 208.5,207.5C 209.625,206.348 209.625,205.348 208.5,204.5C 208.918,203.778 209.584,203.278 210.5,203C 229.167,203.002 229.167,203.668 210.5,205C 215.351,205.174 220.018,205.674 224.5,206.5 Z"/></g>
<g><path style="opacity:1" fill="#505050" d="M 480.5,201.5 C 481.586,201.62 482.253,202.287 482.5,203.5C 482.167,204.167 481.833,204.833 481.5,205.5C 480.571,204.311 480.238,202.978 480.5,201.5 Z"/></g>
<g><path style="opacity:1" fill="#666666" d="M 826.5,203.5 C 825.887,207.937 825.22,212.27 824.5,216.5C 823.903,211.706 824.57,207.373 826.5,203.5 Z"/></g>
<g><path style="opacity:1" fill="#646363" d="M 224.5,206.5 C 222.603,207.805 220.269,208.471 217.5,208.5C 214.975,208.497 212.641,208.163 210.5,207.5C 214.97,206.514 219.637,206.181 224.5,206.5 Z"/></g>
<g><path style="opacity:1" fill="#212021" d="M 451.5,208.5 C 453.465,208.948 453.798,209.948 452.5,211.5C 451.614,210.675 451.281,209.675 451.5,208.5 Z"/></g>
<g><path style="opacity:1" fill="#2b292a" d="M 273.5,181.5 C 282.041,180.592 284.874,184.259 282,192.5C 280.844,193.993 280.01,193.826 279.5,192C 281.102,189.029 280.769,186.362 278.5,184C 275.72,183.731 273.554,184.898 272,187.5C 268.297,193.865 267.63,200.532 270,207.5C 273.419,210.848 277.252,211.348 281.5,209C 283.333,207.167 285.167,205.333 287,203.5C 286.323,208.179 283.489,211.012 278.5,212C 271.383,213.858 266.549,211.358 264,204.5C 256.677,213.501 252.677,212.167 252,200.5C 249.667,204.5 247.333,208.5 245,212.5C 243.556,214.155 241.722,214.822 239.5,214.5C 238.251,210.267 237.418,205.934 237,201.5C 236.038,207.274 233.205,211.774 228.5,215C 223.166,214.981 223.166,214.314 228.5,213C 230.378,211.457 231.878,209.624 233,207.5C 235.914,200.094 237.581,192.428 238,184.5C 239.333,183.167 240.667,183.167 242,184.5C 242.333,193.167 242.667,201.833 243,210.5C 248.137,203.561 251.637,195.895 253.5,187.5C 254.5,187.5 255.5,187.5 256.5,187.5C 255.818,193.827 255.652,200.161 256,206.5C 257.049,207.517 258.216,207.684 259.5,207C 262.879,203.588 264.379,199.422 264,194.5C 265.553,188.809 268.72,184.476 273.5,181.5 Z"/></g>
<g><path style="opacity:1" fill="#484848" d="M 480.5,209.5 C 481.586,209.62 482.253,210.287 482.5,211.5C 482.167,212.167 481.833,212.833 481.5,213.5C 480.571,212.311 480.238,210.978 480.5,209.5 Z"/></g>
<g><path style="opacity:1" fill="#060606" d="M 706.5,217.5 C 710.6,217.237 714.6,217.57 718.5,218.5C 718.281,219.675 718.614,220.675 719.5,221.5C 725.369,216.709 732.036,214.876 739.5,216C 743.255,217.588 746.255,220.088 748.5,223.5C 754.601,217.278 761.934,214.778 770.5,216C 775.573,217.406 779.073,220.572 781,225.5C 781.5,241.163 781.667,256.83 781.5,272.5C 777.167,272.5 772.833,272.5 768.5,272.5C 768.667,258.163 768.5,243.829 768,229.5C 762.85,224.448 757.517,224.448 752,229.5C 751.5,243.829 751.333,258.163 751.5,272.5C 746.833,272.5 742.167,272.5 737.5,272.5C 737.667,258.163 737.5,243.829 737,229.5C 731.116,224.083 725.45,224.416 720,230.5C 719.5,244.496 719.333,258.496 719.5,272.5C 715.167,272.5 710.833,272.5 706.5,272.5C 706.5,254.167 706.5,235.833 706.5,217.5 Z"/></g>
<g><path style="opacity:1" fill="#585858" d="M 706.5,217.5 C 708.304,216.838 710.304,216.505 712.5,216.5C 714.952,216.539 716.952,217.206 718.5,218.5C 714.6,217.57 710.6,217.237 706.5,217.5 Z"/></g>
<g><path style="opacity:1" fill="#050505" d="M 879.5,215.5 C 895.563,213.107 905.396,219.774 909,235.5C 909.499,239.821 909.666,244.154 909.5,248.5C 897.833,248.5 886.167,248.5 874.5,248.5C 873.919,255.51 876.586,260.676 882.5,264C 890.539,264.272 898.539,263.772 906.5,262.5C 907.092,265.127 907.425,267.794 907.5,270.5C 871.868,280.813 856.701,267.813 862,231.5C 865.503,223.492 871.336,218.159 879.5,215.5 Z"/></g>
<g><path style="opacity:1" fill="#060606" d="M 931.5,215.5 C 939.674,215.202 947.674,216.202 955.5,218.5C 955.221,221.118 954.554,223.618 953.5,226C 947.188,225.644 940.855,225.644 934.5,226C 930.11,227.222 929.444,229.555 932.5,233C 939.762,236.879 946.595,241.379 953,246.5C 960.869,258.591 958.036,267.091 944.5,272C 935.294,274.397 926.294,273.897 917.5,270.5C 916.477,267.211 917.144,264.211 919.5,261.5C 927.584,264.326 935.584,264.16 943.5,261C 945.124,257.794 944.458,255.128 941.5,253C 933.877,249.273 927.044,244.439 921,238.5C 915.876,226.754 919.376,219.087 931.5,215.5 Z"/></g>
<g><path style="opacity:1" fill="#050505" d="M 677.5,217.5 C 681.833,217.5 686.167,217.5 690.5,217.5C 690.5,235.833 690.5,254.167 690.5,272.5C 686.167,272.5 681.833,272.5 677.5,272.5C 677.5,254.167 677.5,235.833 677.5,217.5 Z"/></g>
<g><path style="opacity:1" fill="#5e5e5e" d="M 677.5,217.5 C 681.97,216.514 686.637,216.181 691.5,216.5C 691.83,235.341 691.497,254.007 690.5,272.5C 690.5,254.167 690.5,235.833 690.5,217.5C 686.167,217.5 681.833,217.5 677.5,217.5 Z"/></g>
<g><path style="opacity:1" fill="#676767" d="M 809.5,217.5 C 805.167,217.5 800.833,217.5 796.5,217.5C 796.5,235.833 796.5,254.167 796.5,272.5C 795.503,254.007 795.17,235.341 795.5,216.5C 800.363,216.181 805.03,216.514 809.5,217.5 Z"/></g>
<g><path style="opacity:1" fill="#030303" d="M 809.5,217.5 C 809.5,235.833 809.5,254.167 809.5,272.5C 805.167,272.5 800.833,272.5 796.5,272.5C 796.5,254.167 796.5,235.833 796.5,217.5C 800.833,217.5 805.167,217.5 809.5,217.5 Z"/></g>
<g><path style="opacity:1" fill="#303030" d="M 480.5,217.5 C 481.586,217.62 482.253,218.287 482.5,219.5C 482.167,220.167 481.833,220.833 481.5,221.5C 480.571,220.311 480.238,218.978 480.5,217.5 Z"/></g>
<g><path style="opacity:1" fill="#232021" d="M 1359.5,272.5 C 1359.57,272.938 1359.4,273.272 1359,273.5C 1358.72,272.584 1358.22,271.918 1357.5,271.5C 1357.5,262.167 1357.5,252.833 1357.5,243.5C 1351.5,243.5 1345.5,243.5 1339.5,243.5C 1338.83,250.167 1338.17,256.833 1337.5,263.5C 1337.5,249.5 1337.5,235.5 1337.5,221.5C 1344.83,221.5 1352.17,221.5 1359.5,221.5C 1359.5,238.5 1359.5,255.5 1359.5,272.5 Z"/></g>
<g><path style="opacity:1" fill="#232021" d="M 1402.5,273.5 C 1401.83,273.5 1401.17,273.5 1400.5,273.5C 1400.5,263.5 1400.5,253.5 1400.5,243.5C 1394.5,243.5 1388.5,243.5 1382.5,243.5C 1382.5,252.5 1382.5,261.5 1382.5,270.5C 1381.83,270.167 1381.17,269.833 1380.5,269.5C 1380.5,253.5 1380.5,237.5 1380.5,221.5C 1387.83,221.5 1395.17,221.5 1402.5,221.5C 1402.5,238.833 1402.5,256.167 1402.5,273.5 Z"/></g>
<g><path style="opacity:1" fill="#ebebeb" d="M 880.5,225.5 C 891.556,224.219 896.889,229.219 896.5,240.5C 889.167,240.5 881.833,240.5 874.5,240.5C 874.017,234.472 876.017,229.472 880.5,225.5 Z"/></g>
<g><path style="opacity:1" fill="#494949" d="M 480.5,225.5 C 481.586,225.62 482.253,226.287 482.5,227.5C 482.167,228.167 481.833,228.833 481.5,229.5C 480.571,228.311 480.238,226.978 480.5,225.5 Z"/></g>
<g><path style="opacity:1" fill="#606060" d="M 838.5,216.5 C 843.833,216.5 849.167,216.5 854.5,216.5C 854.5,220.167 854.5,223.833 854.5,227.5C 849.167,227.5 843.833,227.5 838.5,227.5C 843.305,226.513 848.305,226.179 853.5,226.5C 853.5,223.5 853.5,220.5 853.5,217.5C 848.305,217.821 843.305,217.487 838.5,216.5 Z"/></g>
<g><path style="opacity:1" fill="#232021" d="M 117.5,228.5 C 123.5,228.5 129.5,228.5 135.5,228.5C 136.646,235.064 137.979,241.564 139.5,248C 144.08,249.638 148.58,251.471 153,253.5C 158.567,250.299 164.067,246.966 169.5,243.5C 173.485,246.984 177.318,250.651 181,254.5C 181.667,255.5 181.667,256.5 181,257.5C 177.454,262.094 174.288,266.927 171.5,272C 173.844,277.052 176.178,282.052 178.5,287C 184.811,288.661 191.144,290.161 197.5,291.5C 197.5,297.5 197.5,303.5 197.5,309.5C 190.647,309.937 183.98,311.271 177.5,313.5C 175.695,318.249 173.695,322.915 171.5,327.5C 175.085,333.002 178.419,338.669 181.5,344.5C 178.016,348.485 174.349,352.318 170.5,356C 169.092,356.315 167.759,355.982 166.5,355C 162.256,351.756 157.756,348.922 153,346.5C 149.167,348 145.333,349.5 141.5,351C 139.667,351.5 138.5,352.667 138,354.5C 136.671,360.148 135.504,365.815 134.5,371.5C 128.5,371.5 122.5,371.5 116.5,371.5C 115.702,365.046 114.369,358.713 112.5,352.5C 107.382,350.774 102.382,348.774 97.5,346.5C 91.9916,349.755 86.325,352.755 80.5,355.5C 76.2503,352.757 72.4169,349.424 69,345.5C 68.4795,343.711 68.8129,342.044 70,340.5C 73.2443,336.256 76.0776,331.756 78.5,327C 76.3384,322.682 74.6717,318.182 73.5,313.5C 67.8844,311.679 62.2178,310.013 56.5,308.5C 55.1667,302.5 55.1667,296.5 56.5,290.5C 62.0685,288.961 67.7352,287.961 73.5,287.5C 74.325,282.024 76.325,277.024 79.5,272.5C 75.4842,266.795 72.3175,260.795 70,254.5C 73.712,250.452 77.712,246.785 82,243.5C 87.3333,246.833 92.6667,250.167 98,253.5C 102.33,251.252 106.83,249.419 111.5,248C 114.691,241.889 116.691,235.389 117.5,228.5 Z"/></g>
<g><path style="opacity:1" fill="#262324" d="M 360.5,174.5 C 362.833,174.5 365.167,174.5 367.5,174.5C 367.183,177.572 367.516,180.572 368.5,183.5C 373.259,186.534 374.593,190.7 372.5,196C 381.055,223.72 389.222,251.553 397,279.5C 397.861,282.368 399.528,284.702 402,286.5C 401.907,292.811 401.574,299.144 401,305.5C 398.13,302.643 396.13,299.31 395,295.5C 393.488,294.743 392.154,293.743 391,292.5C 390.892,288.823 390.892,285.157 391,281.5C 383.063,255.191 375.23,228.858 367.5,202.5C 365.002,201.062 362.836,201.396 361,203.5C 352.337,234.817 343.67,266.15 335,297.5C 332.71,300.174 330.877,303.174 329.5,306.5C 328.953,302.371 328.787,298.038 329,293.5C 337.92,262.898 346.587,232.231 355,201.5C 355.093,197.159 355.093,192.826 355,188.5C 356.041,186.415 357.541,184.748 359.5,183.5C 360.484,180.572 360.817,177.572 360.5,174.5 Z"/></g>
<g><path style="opacity:1" fill="#242021" d="M 448.5,221.5 C 460.044,220.208 464.877,225.208 463,236.5C 459.723,242.109 454.89,243.942 448.5,242C 443.365,238.945 441.532,234.445 443,228.5C 443.967,225.379 445.8,223.046 448.5,221.5 Z"/></g>
<g><path style="opacity:1" fill="#5a5a5a" d="M 480.5,232.5 C 481.649,232.791 482.316,233.624 482.5,235C 482.167,235.833 481.833,236.667 481.5,237.5C 480.548,235.955 480.215,234.288 480.5,232.5 Z"/></g>
<g><path style="opacity:1" fill="#2e2d2e" d="M 1263.5,229.5 C 1264.83,229.5 1266.17,229.5 1267.5,229.5C 1267.61,233.247 1267.11,236.914 1266,240.5C 1264.2,243.766 1262.7,247.1 1261.5,250.5C 1261.34,252.319 1262.01,253.652 1263.5,254.5C 1265.48,253.018 1267.32,251.351 1269,249.5C 1268.9,253.276 1266.9,255.609 1263,256.5C 1261.74,256.241 1260.74,255.574 1260,254.5C 1257.49,245.629 1258.65,237.295 1263.5,229.5 Z"/></g>
<g><path style="opacity:1" fill="#c5c3c4" d="M 1265.5,230.5 C 1266.12,230.917 1266.46,231.584 1266.5,232.5C 1265.28,236.605 1263.78,240.605 1262,244.5C 1261.43,239.376 1262.6,234.71 1265.5,230.5 Z"/></g>
<g><path style="opacity:1" fill="#494949" d="M 480.5,240.5 C 481.586,240.62 482.253,241.287 482.5,242.5C 482.167,243.167 481.833,243.833 481.5,244.5C 480.571,243.311 480.238,241.978 480.5,240.5 Z"/></g>
<g><path style="opacity:1" fill="#313131" d="M 1162.5,240.5 C 1164.03,240.517 1164.53,241.184 1164,242.5C 1162.64,243.38 1161.14,243.714 1159.5,243.5C 1160.2,251.52 1158.2,258.687 1153.5,265C 1151.04,265.946 1149.04,265.446 1147.5,263.5C 1147.67,263.167 1147.83,262.833 1148,262.5C 1150.79,265.129 1152.79,264.462 1154,260.5C 1155.34,255.264 1155.84,249.93 1155.5,244.5C 1152.73,244.421 1150.06,244.921 1147.5,246C 1146.79,247.425 1146.62,248.925 1147,250.5C 1144.6,248.919 1144.1,246.919 1145.5,244.5C 1151.23,243.023 1156.9,241.69 1162.5,240.5 Z"/></g>
<g><path style="opacity:1" fill="#efefef" d="M 1339.5,243.5 C 1345.5,243.5 1351.5,243.5 1357.5,243.5C 1357.5,252.833 1357.5,262.167 1357.5,271.5C 1361.17,282.23 1368.17,285.063 1378.5,280C 1380.9,277.297 1382.24,274.13 1382.5,270.5C 1382.5,261.5 1382.5,252.5 1382.5,243.5C 1388.5,243.5 1394.5,243.5 1400.5,243.5C 1400.5,253.5 1400.5,263.5 1400.5,273.5C 1396.7,289.599 1386.37,297.265 1369.5,296.5C 1355.51,297.43 1346.01,291.43 1341,278.5C 1339.59,266.896 1339.09,255.229 1339.5,243.5 Z"/></g>
<g><path style="opacity:1" fill="#2a2829" d="M 1256.5,217.5 C 1268.77,216.654 1280.77,217.987 1292.5,221.5C 1283.6,222.327 1274.77,221.66 1266,219.5C 1257.23,218.877 1251.23,222.544 1248,230.5C 1247.88,246.236 1246.88,261.902 1245,277.5C 1244.27,279.871 1243.43,282.205 1242.5,284.5C 1241.28,285.614 1239.94,285.781 1238.5,285C 1234.27,276.842 1229.94,268.675 1225.5,260.5C 1225.83,259.5 1226.5,258.833 1227.5,258.5C 1228.81,259.313 1229.98,260.313 1231,261.5C 1234.29,267.743 1237.29,274.076 1240,280.5C 1241.07,276.916 1241.74,273.25 1242,269.5C 1242.33,257.5 1242.67,245.5 1243,233.5C 1244.17,225.176 1248.67,219.843 1256.5,217.5 Z"/></g>
<g><path style="opacity:1" fill="#424242" d="M 480.5,248.5 C 481.586,248.62 482.253,249.287 482.5,250.5C 482.167,251.167 481.833,251.833 481.5,252.5C 480.571,251.311 480.238,249.978 480.5,248.5 Z"/></g>
<g><path style="opacity:1" fill="#353334" d="M 1457.5,251.5 C 1464.13,250.983 1468.46,253.816 1470.5,260C 1468.58,265.079 1464.91,268.245 1459.5,269.5C 1459.02,272.184 1458.02,274.517 1456.5,276.5C 1455.06,268.663 1456.06,261.163 1459.5,254C 1458.24,253.583 1457.58,252.75 1457.5,251.5 Z"/></g>
<g><path style="opacity:1" fill="#858585" d="M 1205.5,253.5 C 1208.96,252.518 1212.63,252.185 1216.5,252.5C 1216.5,253.5 1216.5,254.5 1216.5,255.5C 1215.5,255.5 1214.5,255.5 1213.5,255.5C 1213.92,254.778 1214.58,254.278 1215.5,254C 1212.18,253.502 1208.85,253.335 1205.5,253.5 Z"/></g>
<g><path style="opacity:1" fill="#2a2829" d="M 1492.5,237.5 C 1493.82,237.33 1494.99,237.663 1496,238.5C 1496.94,242.114 1497.61,245.781 1498,249.5C 1500.36,246.64 1502.53,243.64 1504.5,240.5C 1505.32,239.614 1506.32,239.281 1507.5,239.5C 1507.33,244.179 1507.5,248.845 1508,253.5C 1509.69,258.689 1511.69,258.689 1514,253.5C 1515.8,248.322 1516.8,242.989 1517,237.5C 1519.06,243.99 1518.39,250.323 1515,256.5C 1512.84,260.616 1510.01,261.283 1506.5,258.5C 1505.05,253.958 1504.22,249.292 1504,244.5C 1500.66,249.862 1497.32,255.196 1494,260.5C 1493.5,260.167 1493,259.833 1492.5,259.5C 1495.08,252.194 1495.08,244.86 1492.5,237.5 Z"/></g>
<g><path style="opacity:1" fill="#bcbcbc" d="M 1124.5,248.5 C 1122.52,273.606 1121.86,298.939 1122.5,324.5C 1121.5,299.339 1121.17,274.005 1121.5,248.5C 1122.5,248.5 1123.5,248.5 1124.5,248.5 Z"/></g>
<g><path style="opacity:1" fill="#323132" d="M 1189.5,247.5 C 1195.99,245.835 1198.82,248.168 1198,254.5C 1195.87,257.63 1193.37,260.463 1190.5,263C 1193.55,263.179 1196.55,263.679 1199.5,264.5C 1198.97,265.192 1198.31,265.692 1197.5,266C 1193.41,265.601 1189.41,265.434 1185.5,265.5C 1189.63,261.711 1192.97,257.378 1195.5,252.5C 1194.69,248.594 1192.69,247.761 1189.5,250C 1188.93,251.205 1188.26,252.372 1187.5,253.5C 1187.17,253 1186.83,252.5 1186.5,252C 1187.31,250.357 1188.31,248.857 1189.5,247.5 Z"/></g>
<g><path style="opacity:1" fill="#636363" d="M 1164.5,256.5 C 1168.23,256.177 1171.89,256.511 1175.5,257.5C 1173.67,257.833 1171.83,258.167 1170,258.5C 1167.7,258.453 1165.87,257.787 1164.5,256.5 Z"/></g>
<g><path style="opacity:1" fill="#e7e7e7" d="M 1461.5,254.5 C 1465.19,254.861 1467.19,256.861 1467.5,260.5C 1466.73,264.93 1464.07,267.264 1459.5,267.5C 1459.87,263.106 1460.54,258.773 1461.5,254.5 Z"/></g>
<g><path style="opacity:1" fill="#4a4a4a" d="M 480.5,256.5 C 481.586,256.62 482.253,257.287 482.5,258.5C 482.167,259.167 481.833,259.833 481.5,260.5C 480.571,259.311 480.238,257.978 480.5,256.5 Z"/></g>
<g><path style="opacity:1" fill="#666666" d="M 1164.5,259.5 C 1168.23,259.177 1171.89,259.511 1175.5,260.5C 1173.67,260.833 1171.83,261.167 1170,261.5C 1167.7,261.453 1165.87,260.787 1164.5,259.5 Z"/></g>
<g><path style="opacity:1" fill="#474747" d="M 638.5,261.5 C 648.5,261.5 658.5,261.5 668.5,261.5C 668.815,265.371 668.482,269.038 667.5,272.5C 667.5,269.167 667.5,265.833 667.5,262.5C 657.652,262.827 647.986,262.494 638.5,261.5 Z"/></g>
<g><path style="opacity:1" fill="#2f2f2f" d="M 1205.5,253.5 C 1208.85,253.335 1212.18,253.502 1215.5,254C 1214.58,254.278 1213.92,254.778 1213.5,255.5C 1212.52,258.287 1212.19,261.287 1212.5,264.5C 1214.12,264.64 1215.29,263.973 1216,262.5C 1216.36,266.48 1214.69,267.813 1211,266.5C 1210.83,262.789 1210.33,259.122 1209.5,255.5C 1207.89,258.22 1207.06,261.22 1207,264.5C 1206.07,267.592 1204.9,267.925 1203.5,265.5C 1205.26,262.383 1206.26,259.05 1206.5,255.5C 1205.18,255.33 1204.01,255.663 1203,256.5C 1202.48,254.511 1203.31,253.511 1205.5,253.5 Z"/></g>
<g><path style="opacity:1" fill="#424242" d="M 1257.5,261.5 C 1264.53,261.17 1271.53,261.503 1278.5,262.5C 1275,262.833 1271.5,263.167 1268,263.5C 1264.1,263.488 1260.6,262.821 1257.5,261.5 Z"/></g>
<g><path style="opacity:1" fill="#5a5a5a" d="M 480.5,263.5 C 481.649,263.791 482.316,264.624 482.5,266C 482.167,266.833 481.833,267.667 481.5,268.5C 480.548,266.955 480.215,265.288 480.5,263.5 Z"/></g>
<g><path style="opacity:1" fill="#686868" d="M 1471.5,266.5 C 1475.55,266.176 1479.55,266.509 1483.5,267.5C 1481.5,267.833 1479.5,268.167 1477.5,268.5C 1475.05,268.461 1473.05,267.794 1471.5,266.5 Z"/></g>
<g><path style="opacity:1" fill="#f0f0f0" d="M 118.5,265.5 C 140.749,263.614 154.915,273.28 161,294.5C 160.813,324.018 145.98,337.518 116.5,335C 97.8122,327.968 89.3122,314.468 91,294.5C 95.274,280.062 104.441,270.396 118.5,265.5 Z"/></g>
<g><path style="opacity:1" fill="#211f20" d="M 1491.5,269.5 C 1498.53,269.17 1505.53,269.503 1512.5,270.5C 1509,270.833 1505.5,271.167 1502,271.5C 1498.1,271.488 1494.6,270.821 1491.5,269.5 Z"/></g>
<g><path style="opacity:1" fill="#494949" d="M 480.5,271.5 C 481.586,271.62 482.253,272.287 482.5,273.5C 482.167,274.167 481.833,274.833 481.5,275.5C 480.571,274.311 480.238,272.978 480.5,271.5 Z"/></g>
<g><path style="opacity:1" fill="#303030" d="M 1263.5,266.5 C 1266.07,266.148 1268.41,266.648 1270.5,268C 1264.67,266.953 1261.01,269.453 1259.5,275.5C 1263.01,276.047 1265.35,274.38 1266.5,270.5C 1267.32,269.614 1268.32,269.281 1269.5,269.5C 1270.28,276.517 1268.95,283.017 1265.5,289C 1262.86,291.108 1260.53,290.941 1258.5,288.5C 1260.28,288.431 1262.11,288.097 1264,287.5C 1266.22,283.405 1266.89,279.072 1266,274.5C 1264.28,277.397 1261.78,278.731 1258.5,278.5C 1257.47,273.233 1259.14,269.233 1263.5,266.5 Z"/></g>
<g><path style="opacity:1" fill="#323132" d="M 1339.5,243.5 C 1339.09,255.229 1339.59,266.896 1341,278.5C 1346.01,291.43 1355.51,297.43 1369.5,296.5C 1386.37,297.265 1396.7,289.599 1400.5,273.5C 1401.17,273.5 1401.83,273.5 1402.5,273.5C 1400.09,287.08 1392.09,295.246 1378.5,298C 1366.93,300.235 1356.26,298.235 1346.5,292C 1339.2,283.921 1336.2,274.421 1337.5,263.5C 1338.17,256.833 1338.83,250.167 1339.5,243.5 Z"/></g>
<g><path style="opacity:1" fill="#2f2f2f" d="M 480.5,279.5 C 481.586,279.62 482.253,280.287 482.5,281.5C 482.167,282.167 481.833,282.833 481.5,283.5C 480.571,282.311 480.238,280.978 480.5,279.5 Z"/></g>
<g><path style="opacity:1" fill="#3b3a3a" d="M 1380.5,269.5 C 1381.17,269.833 1381.83,270.167 1382.5,270.5C 1382.24,274.13 1380.9,277.297 1378.5,280C 1368.17,285.063 1361.17,282.23 1357.5,271.5C 1358.22,271.918 1358.72,272.584 1359,273.5C 1359.4,273.272 1359.57,272.938 1359.5,272.5C 1362.7,279.227 1368.03,281.393 1375.5,279C 1378.71,276.657 1380.38,273.491 1380.5,269.5 Z"/></g>
<g><path style="opacity:1" fill="#4a4a4a" d="M 480.5,287.5 C 481.586,287.62 482.253,288.287 482.5,289.5C 482.167,290.167 481.833,290.833 481.5,291.5C 480.571,290.311 480.238,288.978 480.5,287.5 Z"/></g>
<g><path style="opacity:1" fill="#242022" d="M 232.5,260.5 C 234.604,260.201 236.604,260.534 238.5,261.5C 239.766,265.197 241.432,268.697 243.5,272C 246.188,272.392 248.855,272.892 251.5,273.5C 255.431,270.91 259.098,267.91 262.5,264.5C 266.221,266.354 269.554,268.687 272.5,271.5C 271.028,274.945 269.694,278.445 268.5,282C 270.452,284.732 272.285,287.565 274,290.5C 279.072,291.471 284.238,291.805 289.5,291.5C 290.038,295.524 290.705,299.524 291.5,303.5C 287.181,304.741 283.015,306.408 279,308.5C 278.41,312.201 278.077,315.868 278,319.5C 281.016,322.349 283.85,325.349 286.5,328.5C 284.571,332.033 282.405,335.367 280,338.5C 276.333,337.167 272.667,335.833 269,334.5C 265.738,336.093 262.738,338.093 260,340.5C 259.828,344.871 259.328,349.204 258.5,353.5C 255.287,354.427 252.12,355.427 249,356.5C 246.639,353.112 244.806,349.446 243.5,345.5C 239.197,344.374 234.864,343.874 230.5,344C 227.667,346.833 224.833,349.667 222,352.5C 219.749,350.623 217.249,349.123 214.5,348C 213.426,347.261 212.759,346.261 212.5,345C 213.636,341.257 214.97,337.59 216.5,334C 214.288,331.446 212.455,328.613 211,325.5C 206.599,324.533 202.099,324.2 197.5,324.5C 196.833,320.5 196.167,316.5 195.5,312.5C 200.702,311.924 204.368,309.424 206.5,305C 207.203,302.171 207.37,299.338 207,296.5C 204.167,293.667 201.333,290.833 198.5,288C 200.377,285.749 201.877,283.249 203,280.5C 203.739,279.426 204.739,278.759 206,278.5C 210.032,280.45 214.199,281.616 218.5,282C 220.47,279.684 222.804,277.851 225.5,276.5C 226.167,271.833 226.833,267.167 227.5,262.5C 229.336,261.972 231.003,261.306 232.5,260.5 Z"/></g>
<g><path style="opacity:1" fill="#efefef" d="M 235.5,285.5 C 249.839,283.084 260.005,288.418 266,301.5C 268.32,322.175 259.153,332.342 238.5,332C 222.899,326.966 217.065,316.466 221,300.5C 224.021,293.647 228.855,288.647 235.5,285.5 Z"/></g>
<g><path style="opacity:1" fill="#343334" d="M 1500.5,274.5 C 1501.5,274.5 1502.5,274.5 1503.5,274.5C 1503.01,277.711 1503.68,280.544 1505.5,283C 1504.55,283.483 1503.55,283.649 1502.5,283.5C 1502.16,286.516 1500.99,289.182 1499,291.5C 1498.26,294.212 1498.93,296.545 1501,298.5C 1503.02,295.898 1505.18,294.231 1507.5,293.5C 1505.95,297.903 1502.95,300.07 1498.5,300C 1497.87,299.25 1497.37,298.416 1497,297.5C 1496.77,293.113 1496.27,288.779 1495.5,284.5C 1497.18,281.145 1498.84,277.811 1500.5,274.5 Z"/></g>
<g><path style="opacity:1" fill="#d2d0d1" d="M 1501.5,276.5 C 1502.14,277.097 1502.47,277.93 1502.5,279C 1502.47,282.096 1501.47,282.762 1499.5,281C 1500.04,279.415 1500.71,277.915 1501.5,276.5 Z"/></g>
<g><path style="opacity:1" fill="#606060" d="M 480.5,295.5 C 481.586,295.62 482.253,296.287 482.5,297.5C 482.167,298.167 481.833,298.833 481.5,299.5C 480.571,298.311 480.238,296.978 480.5,295.5 Z"/></g>
<g><path style="opacity:1" fill="#242122" d="M 478.5,304.5 C 490.17,304.668 494.336,310.335 491,321.5C 484.264,328.346 477.93,328.013 472,320.5C 471.333,317.167 471.333,313.833 472,310.5C 474.063,308.266 476.229,306.266 478.5,304.5 Z"/></g>
<g><path style="opacity:1" fill="#262425" d="M 1358.5,331.5 C 1416.83,331.5 1475.17,331.5 1533.5,331.5C 1533.5,364.833 1533.5,398.167 1533.5,431.5C 1532.17,431.5 1530.83,431.5 1529.5,431.5C 1529.5,399.5 1529.5,367.5 1529.5,335.5C 1519.17,335.5 1508.83,335.5 1498.5,335.5C 1501.71,346.449 1504.71,357.449 1507.5,368.5C 1515.03,369.517 1517.03,373.35 1513.5,380C 1505.76,383.248 1502.26,380.748 1503,372.5C 1504.08,370.933 1504.91,369.266 1505.5,367.5C 1502.56,357.027 1499.23,346.693 1495.5,336.5C 1492.23,335.513 1488.9,335.18 1485.5,335.5C 1485.33,346.838 1485.5,358.172 1486,369.5C 1490.71,372.042 1491.71,375.709 1489,380.5C 1482.93,384.178 1479.1,382.511 1477.5,375.5C 1478.41,372.918 1480.08,370.918 1482.5,369.5C 1483.5,358.186 1483.83,346.853 1483.5,335.5C 1478.83,335.5 1474.17,335.5 1469.5,335.5C 1469.17,346.853 1469.5,358.186 1470.5,369.5C 1477.66,375.165 1477,379.499 1468.5,382.5C 1463.34,381.189 1461.51,377.855 1463,372.5C 1464.02,371.313 1465.19,370.313 1466.5,369.5C 1467.5,358.186 1467.83,346.853 1467.5,335.5C 1463.17,335.5 1458.83,335.5 1454.5,335.5C 1454.33,346.838 1454.5,358.172 1455,369.5C 1459.53,372.148 1460.53,375.815 1458,380.5C 1452.19,384.07 1448.35,382.57 1446.5,376C 1447.19,373.14 1448.85,370.973 1451.5,369.5C 1452.5,358.186 1452.83,346.853 1452.5,335.5C 1447.83,335.5 1443.17,335.5 1438.5,335.5C 1438.17,346.853 1438.5,358.186 1439.5,369.5C 1446.3,374.639 1445.8,378.972 1438,382.5C 1432.45,381.422 1430.45,378.089 1432,372.5C 1433.15,371.257 1434.49,370.257 1436,369.5C 1436.5,358.172 1436.67,346.838 1436.5,335.5C 1432.17,335.5 1427.83,335.5 1423.5,335.5C 1423.33,346.838 1423.5,358.172 1424,369.5C 1428.22,371.563 1429.55,374.896 1428,379.5C 1422.13,384.261 1417.97,383.095 1415.5,376C 1416.19,373.14 1417.85,370.973 1420.5,369.5C 1421.5,358.186 1421.83,346.853 1421.5,335.5C 1416.83,335.5 1412.17,335.5 1407.5,335.5C 1407.33,346.838 1407.5,358.172 1408,369.5C 1414.62,372.915 1415.12,377.081 1409.5,382C 1402.24,383.033 1399.41,379.867 1401,372.5C 1402.02,371.313 1403.19,370.313 1404.5,369.5C 1405.5,358.186 1405.83,346.853 1405.5,335.5C 1401.17,335.5 1396.83,335.5 1392.5,335.5C 1392.33,346.838 1392.5,358.172 1393,369.5C 1397.22,371.563 1398.55,374.896 1397,379.5C 1391.13,384.261 1386.97,383.095 1384.5,376C 1385.19,373.14 1386.85,370.973 1389.5,369.5C 1390.5,358.186 1390.83,346.853 1390.5,335.5C 1385.83,335.5 1381.17,335.5 1376.5,335.5C 1376.17,346.853 1376.5,358.186 1377.5,369.5C 1383.19,372.641 1383.86,376.641 1379.5,381.5C 1371.7,383.532 1368.53,380.532 1370,372.5C 1371.15,371.257 1372.49,370.257 1374,369.5C 1374.5,358.172 1374.67,346.838 1374.5,335.5C 1370.5,335.5 1366.5,335.5 1362.5,335.5C 1361.5,366.996 1361.17,398.662 1361.5,430.5C 1360.5,430.5 1359.5,430.5 1358.5,430.5C 1358.5,397.5 1358.5,364.5 1358.5,331.5 Z"/></g>
<g><path style="opacity:1" fill="#666465" d="M 1358.5,331.5 C 1358.5,364.5 1358.5,397.5 1358.5,430.5C 1359.5,430.5 1360.5,430.5 1361.5,430.5C 1361.17,398.662 1361.5,366.996 1362.5,335.5C 1362.5,367.5 1362.5,399.5 1362.5,431.5C 1360.83,431.5 1359.17,431.5 1357.5,431.5C 1357.17,397.996 1357.5,364.662 1358.5,331.5 Z"/></g>
<g><path style="opacity:1" fill="#252223" d="M 193.5,341.5 C 195.83,343.478 198.163,345.478 200.5,347.5C 202.728,346.781 204.561,345.448 206,343.5C 207,344.167 208,344.833 209,345.5C 208.845,347.811 208.845,350.144 209,352.5C 211.434,354.023 214.101,355.023 217,355.5C 218.165,358.814 216.998,360.814 213.5,361.5C 211.918,365.009 212.584,368.009 215.5,370.5C 214.974,372.23 213.974,373.564 212.5,374.5C 205.909,372.144 203.242,374.477 204.5,381.5C 200.855,382.32 198.522,380.987 197.5,377.5C 193.805,375.814 190.971,376.814 189,380.5C 187.414,379.624 185.914,378.624 184.5,377.5C 187.433,371.412 185.433,368.412 178.5,368.5C 176.531,364.453 177.864,362.453 182.5,362.5C 183.077,358.92 182.077,355.92 179.5,353.5C 180.026,351.77 181.026,350.436 182.5,349.5C 188.799,351.541 191.466,349.208 190.5,342.5C 191.791,342.737 192.791,342.404 193.5,341.5 Z"/></g>
<g><path style="opacity:1" fill="#ececec" d="M 193.5,352.5 C 202.998,351.173 207.498,355.173 207,364.5C 204.611,370.777 200.111,372.943 193.5,371C 188.777,367.746 187.277,363.246 189,357.5C 190.634,355.938 192.134,354.271 193.5,352.5 Z"/></g>
<g><path style="opacity:1" fill="#2d2b2c" d="M 394.5,341.5 C 395.675,341.281 396.675,341.614 397.5,342.5C 393.786,344.936 391.953,348.269 392,352.5C 393.999,350.507 395.499,348.173 396.5,345.5C 397.325,344.614 398.325,344.281 399.5,344.5C 398.833,347.833 398.167,351.167 397.5,354.5C 400.988,353.857 403.488,351.857 405,348.5C 404.678,352.985 402.178,355.318 397.5,355.5C 397.975,361.196 397.308,366.696 395.5,372C 394.552,372.483 393.552,372.649 392.5,372.5C 392.05,366.666 392.717,360.999 394.5,355.5C 394.333,354.833 394.167,354.167 394,353.5C 390.811,356.493 388.978,355.826 388.5,351.5C 389.32,347.371 391.32,344.038 394.5,341.5 Z"/></g>
<g><path style="opacity:1" fill="#b0afb0" d="M 395.5,358.5 C 396.774,362.074 396.607,365.741 395,369.5C 394.55,365.812 394.717,362.146 395.5,358.5 Z"/></g>
<g><path style="opacity:1" fill="#2c2a2b" d="M 370.5,356.5 C 371.5,356.5 372.5,356.5 373.5,356.5C 372.776,359.843 371.943,363.176 371,366.5C 370.333,368.833 370.333,371.167 371,373.5C 373.185,372.072 375.185,370.405 377,368.5C 377.667,369.167 377.667,369.833 377,370.5C 374.982,372.35 373.149,374.35 371.5,376.5C 379.794,382.186 379.461,383.186 370.5,379.5C 369.833,382.167 369.167,384.833 368.5,387.5C 366.93,376.996 367.596,366.662 370.5,356.5 Z"/></g>
<g><path style="opacity:1" fill="#2f2e2f" d="M 350.5,360.5 C 351.573,361.251 351.74,362.251 351,363.5C 346.405,370.023 342.905,377.023 340.5,384.5C 339.5,384.5 338.5,384.5 337.5,384.5C 337.02,377.573 334.853,371.239 331,365.5C 330.618,360.584 331.951,360.251 335,364.5C 337.062,368.688 338.729,373.021 340,377.5C 343.511,371.805 347.011,366.139 350.5,360.5 Z"/></g>
<g><path style="opacity:1" fill="#686868" d="M 351.5,375.5 C 355.884,375.174 360.217,375.508 364.5,376.5C 362.333,376.833 360.167,377.167 358,377.5C 355.39,377.467 353.223,376.8 351.5,375.5 Z"/></g>
<g><path style="opacity:1" fill="#202020" d="M 384.5,378.5 C 391.863,378.169 399.197,378.503 406.5,379.5C 402.833,379.833 399.167,380.167 395.5,380.5C 391.435,380.489 387.768,379.822 384.5,378.5 Z"/></g>
<g><path style="opacity:1" fill="#302f2f" d="M 390.5,387.5 C 391.803,389.844 393.636,391.844 396,393.5C 394.832,404.161 396.998,405.494 402.5,397.5C 402.833,397.833 403.167,398.167 403.5,398.5C 396.273,407.44 392.607,406.107 392.5,394.5C 391.573,396.113 390.739,397.779 390,399.5C 389.282,400.451 388.449,400.617 387.5,400C 388.764,398.139 389.764,396.139 390.5,394C 389.227,391.784 389.227,389.617 390.5,387.5 Z"/></g>
<g><path style="opacity:1" fill="#e5e5e5" d="M 1140.5,388.5 C 1142.63,391.446 1143.63,394.779 1143.5,398.5C 1142.73,399.172 1142.07,400.005 1141.5,401C 1135.83,401.667 1130.17,401.667 1124.5,401C 1128.87,396.967 1132.87,392.634 1136.5,388C 1137.82,387.805 1139.15,387.972 1140.5,388.5 Z"/></g>
<g><path style="opacity:1" fill="#474747" d="M 1140.5,388.5 C 1143.92,390.813 1145.25,394.146 1144.5,398.5C 1144.17,398.5 1143.83,398.5 1143.5,398.5C 1143.63,394.779 1142.63,391.446 1140.5,388.5 Z"/></g>
<g><path style="opacity:1" fill="#2f2e2f" d="M 455.5,352.5 C 457.225,352.843 457.725,353.843 457,355.5C 452.5,362.667 448,369.833 443.5,377C 449.998,379.243 456.665,380.91 463.5,382C 457.247,392.505 451.247,403.171 445.5,414C 446.956,414.423 447.456,415.256 447,416.5C 444.815,417.928 442.815,419.595 441,421.5C 440.503,418.854 440.336,416.187 440.5,413.5C 441.822,413.67 442.989,413.337 444,412.5C 449.468,402.561 454.635,392.561 459.5,382.5C 452.976,381.951 446.642,380.618 440.5,378.5C 445.555,369.799 450.555,361.132 455.5,352.5 Z"/></g>
<g><path style="opacity:1" fill="#bab8b9" d="M 1269.5,400.5 C 1256.56,401.815 1243.39,402.482 1230,402.5C 1217,402.5 1204.16,402.167 1191.5,401.5C 1217.33,402.145 1242.99,401.478 1268.5,399.5C 1269.11,399.624 1269.44,399.957 1269.5,400.5 Z"/></g>
<g><path style="opacity:1" fill="#272526" d="M 1124.5,248.5 C 1123.5,248.5 1122.5,248.5 1121.5,248.5C 1121.17,274.005 1121.5,299.339 1122.5,324.5C 1126.5,324.833 1126.5,325.167 1122.5,325.5C 1123.2,328.573 1124.2,331.573 1125.5,334.5C 1125.04,335.298 1124.38,335.631 1123.5,335.5C 1122.34,356.329 1122.17,377.329 1123,398.5C 1123.72,397.956 1124.22,397.289 1124.5,396.5C 1145.3,373.528 1165.97,350.361 1186.5,327C 1188.67,326.5 1189.5,327.333 1189,329.5C 1172.17,348.333 1155.33,367.167 1138.5,386C 1139.38,386.708 1140.05,387.542 1140.5,388.5C 1139.15,387.972 1137.82,387.805 1136.5,388C 1132.87,392.634 1128.87,396.967 1124.5,401C 1130.17,401.667 1135.83,401.667 1141.5,401C 1142.07,400.005 1142.73,399.172 1143.5,398.5C 1143.5,399.5 1143.5,400.5 1143.5,401.5C 1155.68,401.828 1167.68,401.495 1179.5,400.5C 1179.37,399.624 1179.7,398.957 1180.5,398.5C 1183.5,399.833 1186.5,401.167 1189.5,402.5C 1190.28,401.271 1190.78,399.938 1191,398.5C 1191.48,399.448 1191.65,400.448 1191.5,401.5C 1204.16,402.167 1217,402.5 1230,402.5C 1243.39,402.482 1256.56,401.815 1269.5,400.5C 1276.13,402.323 1275.96,403.99 1269,405.5C 1255.72,404.176 1242.22,403.509 1228.5,403.5C 1215.17,403.667 1201.83,403.833 1188.5,404C 1185.59,405.037 1182.76,406.204 1180,407.5C 1179.52,406.552 1179.35,405.552 1179.5,404.5C 1159.5,404.5 1139.5,404.5 1119.5,404.5C 1119.5,381.5 1119.5,358.5 1119.5,335.5C 1118.45,335.649 1117.45,335.483 1116.5,335C 1117.8,332.239 1118.96,329.405 1120,326.5C 1120.5,300.502 1120.67,274.502 1120.5,248.5C 1119.45,248.649 1118.45,248.483 1117.5,248C 1120.15,238.113 1122.48,238.28 1124.5,248.5 Z"/></g>
<g><path style="opacity:1" fill="#bdbbbc" d="M 1143.5,398.5 C 1143.83,398.5 1144.17,398.5 1144.5,398.5C 1155.79,400.478 1167.45,401.145 1179.5,400.5C 1167.68,401.495 1155.68,401.828 1143.5,401.5C 1143.5,400.5 1143.5,399.5 1143.5,398.5 Z"/></g>
<g><path style="opacity:1" fill="#bebcbd" d="M 1123.5,335.5 C 1123.17,356.007 1123.5,376.34 1124.5,396.5C 1124.22,397.289 1123.72,397.956 1123,398.5C 1122.17,377.329 1122.34,356.329 1123.5,335.5 Z"/></g>
<g><path style="opacity:1" fill="#6c6d71" d="M 338.5,438.5 C 338.178,444.358 338.511,450.025 339.5,455.5C 339.5,463.5 339.5,471.5 339.5,479.5C 273.167,479.5 206.833,479.5 140.5,479.5C 140.5,471.5 140.5,463.5 140.5,455.5C 140.5,455.167 140.5,454.833 140.5,454.5C 140.5,452.833 140.5,451.167 140.5,449.5C 140.5,445.833 140.5,442.167 140.5,438.5C 206.5,438.5 272.5,438.5 338.5,438.5 Z"/></g>
<g><path style="opacity:1" fill="#918f90" d="M 23.5,27.5 C 543,26.5001 1062.67,26.1668 1582.5,26.5C 1582.5,169.5 1582.5,312.5 1582.5,455.5C 1168.17,455.5 753.833,455.5 339.5,455.5C 338.511,450.025 338.178,444.358 338.5,438.5C 339.482,441.962 339.815,445.629 339.5,449.5C 339.5,451.167 339.5,452.833 339.5,454.5C 753.5,454.5 1167.5,454.5 1581.5,454.5C 1581.5,312.167 1581.5,169.833 1581.5,27.5C 1062.17,27.5 542.833,27.5 23.5,27.5 Z"/></g>
</svg>
